<svg version="1.1" id="Layer_1" xmlns="http://www.w3.org/2000/svg" xmlns:xlink="http://www.w3.org/1999/xlink" x="0px" y="0px"
	 width="100%" viewBox="0 0 469 469" enable-background="new 0 0 469 469" xml:space="preserve">
<path fill="#000000" opacity="1.000000" stroke="none" 
	d="
M470.000000,158.000000 
	C470.000000,262.305664 470.000000,366.111328 470.000000,469.958496 
	C313.736023,469.958496 157.472000,469.958496 1.103999,469.958496 
	C1.103999,313.777710 1.103999,157.555359 1.103999,1.166491 
	C157.333191,1.166491 313.666595,1.166491 470.000000,1.166491 
	C470.000000,53.194599 470.000000,105.347298 470.000000,158.000000 
M9.169890,256.099030 
	C9.423076,256.888367 9.846870,257.665527 9.904075,258.468811 
	C10.895374,272.388794 13.877335,285.844940 17.708782,299.291260 
	C22.479208,316.032898 29.244759,331.710815 37.743786,346.830200 
	C52.770157,373.561523 72.894928,395.938873 97.065033,414.357361 
	C125.823822,436.272583 158.252960,450.465363 194.114853,456.751007 
	C213.436722,460.137634 232.891708,461.070282 252.229630,459.571655 
	C266.690125,458.450989 280.902405,454.210846 295.244781,451.461731 
	C313.694824,447.925262 330.520508,439.949463 346.475311,430.717773 
	C370.556335,416.784180 391.828888,399.206848 409.401184,377.260223 
	C426.222046,356.252075 439.279083,333.261169 448.076691,307.912872 
	C458.797974,277.022095 462.159424,245.250336 459.112671,212.653854 
	C457.494263,195.338852 454.339905,178.380478 448.552032,162.085770 
	C440.618713,139.750870 430.282166,118.615059 415.540833,99.717033 
	C404.136139,85.096535 391.801819,71.637779 377.492523,59.736881 
	C360.523254,45.623741 342.011993,34.422924 321.779358,25.834955 
	C297.624725,15.582240 272.448975,9.722071 246.249832,8.811136 
	C233.405960,8.364559 220.440033,8.076361 207.681900,9.303102 
	C188.638855,11.134159 170.030899,15.862019 152.322159,23.122597 
	C140.122681,28.124386 127.892624,33.624214 116.852348,40.729023 
	C104.373405,48.759655 93.058914,58.650402 81.537003,68.096893 
	C75.447830,73.089249 69.285019,78.286652 64.386314,84.380882 
	C49.659473,102.701813 36.130192,121.775040 26.851690,143.706528 
	C14.831514,172.118484 8.876338,201.657959 8.087570,232.328842 
	C7.892037,239.932053 8.706936,247.561234 9.169890,256.099030 
z"/>
<path fill="#054879" opacity="1.000000" stroke="none" 
	d="
M9.113630,255.638763 
	C8.706936,247.561234 7.892037,239.932053 8.087570,232.328842 
	C8.876338,201.657959 14.831514,172.118484 26.851690,143.706528 
	C36.130192,121.775040 49.659473,102.701813 64.386314,84.380882 
	C69.285019,78.286652 75.447830,73.089249 81.537003,68.096893 
	C93.058914,58.650402 104.373405,48.759655 116.852348,40.729023 
	C127.892624,33.624214 140.122681,28.124386 152.322159,23.122597 
	C170.030899,15.862019 188.638855,11.134159 207.681900,9.303102 
	C220.440033,8.076361 233.405960,8.364559 246.249832,8.811136 
	C272.448975,9.722071 297.624725,15.582240 321.779358,25.834955 
	C342.011993,34.422924 360.523254,45.623741 377.492523,59.736881 
	C391.801819,71.637779 404.136139,85.096535 415.540833,99.717033 
	C430.282166,118.615059 440.618713,139.750870 448.552032,162.085770 
	C454.339905,178.380478 457.494263,195.338852 459.112671,212.653854 
	C462.159424,245.250336 458.797974,277.022095 448.076691,307.912872 
	C439.279083,333.261169 426.222046,356.252075 409.401184,377.260223 
	C391.828888,399.206848 370.556335,416.784180 346.475311,430.717773 
	C330.520508,439.949463 313.694824,447.925262 295.244781,451.461731 
	C280.902405,454.210846 266.690125,458.450989 252.229630,459.571655 
	C232.891708,461.070282 213.436722,460.137634 194.114853,456.751007 
	C158.252960,450.465363 125.823822,436.272583 97.065033,414.357361 
	C72.894928,395.938873 52.770157,373.561523 37.743786,346.830200 
	C29.244759,331.710815 22.479208,316.032898 17.708782,299.291260 
	C13.877335,285.844940 10.895374,272.388794 9.904075,258.468811 
	C9.846870,257.665527 9.423076,256.888367 9.113630,255.638763 
M417.130981,341.608032 
	C442.998657,296.900177 451.664886,248.994202 443.158264,198.128632 
	C423.376709,79.844185 306.952911,1.007541 189.879852,26.419968 
	C74.885475,51.381184 2.452171,162.663269 26.145367,277.971588 
	C48.852558,388.481293 157.361496,462.896576 268.621338,443.619751 
	C333.207733,432.429535 382.458893,398.051178 417.130981,341.608032 
z"/>
<path fill="#FDD752" opacity="1.000000" stroke="none" 
	d="
M416.966370,341.934631 
	C382.458893,398.051178 333.207733,432.429535 268.621338,443.619751 
	C157.361496,462.896576 48.852558,388.481293 26.145367,277.971588 
	C2.452171,162.663269 74.885475,51.381184 189.879852,26.419968 
	C306.952911,1.007541 423.376709,79.844185 443.158264,198.128632 
	C451.664886,248.994202 442.998657,296.900177 416.966370,341.934631 
M267.193634,32.200966 
	C216.944443,24.752279 170.012054,33.565666 126.357407,60.149792 
	C134.645706,74.474060 142.520630,88.083900 150.536682,101.937653 
	C114.300674,125.127846 91.356216,157.157425 82.363243,199.029312 
	C67.672806,196.413895 53.575935,194.036514 39.543850,191.323990 
	C35.419884,190.526794 33.242908,191.184387 32.951595,195.762375 
	C31.939190,211.672333 29.134605,227.664612 29.992968,243.463623 
	C33.943489,316.176880 68.080376,371.376801 129.436707,410.066956 
	C132.602402,412.063171 135.959732,413.755493 139.541992,415.765564 
	C147.690338,401.912872 155.426498,388.760956 163.340378,375.306854 
	C186.331024,387.288940 210.489777,392.023163 235.659149,391.741943 
	C260.929688,391.459595 285.148590,386.150330 308.183441,374.748779 
	C309.947876,378.124329 311.584015,381.005005 312.991425,383.993439 
	C317.319427,393.183228 321.670563,402.365326 325.776672,411.654724 
	C327.294189,415.087860 328.890778,415.614380 332.208191,413.775024 
	C407.356018,372.109985 448.134613,290.326996 436.650299,205.938126 
	C435.784119,199.573212 434.364227,193.283630 433.082642,186.311172 
	C417.291504,190.658020 402.317505,194.779938 387.141846,198.957367 
	C377.628540,158.157303 355.169434,127.133377 320.495392,104.449112 
	C329.097504,90.641975 337.529266,77.108246 345.939178,63.609577 
	C331.203308,51.905449 298.915497,37.305473 267.193634,32.200966 
z"/>
<path fill="#FBFCFC" opacity="1.000000" stroke="none" 
	d="
M267.621918,32.280849 
	C298.915497,37.305473 331.203308,51.905449 345.939178,63.609577 
	C337.529266,77.108246 329.097504,90.641975 320.495392,104.449112 
	C355.169434,127.133377 377.628540,158.157303 387.141846,198.957367 
	C402.317505,194.779938 417.291504,190.658020 433.082642,186.311172 
	C434.364227,193.283630 435.784119,199.573212 436.650299,205.938126 
	C448.134613,290.326996 407.356018,372.109985 332.208191,413.775024 
	C328.890778,415.614380 327.294189,415.087860 325.776672,411.654724 
	C321.670563,402.365326 317.319427,393.183228 312.991425,383.993439 
	C311.584015,381.005005 309.947876,378.124329 308.183441,374.748779 
	C285.148590,386.150330 260.929688,391.459595 235.659149,391.741943 
	C210.489777,392.023163 186.331024,387.288940 163.340378,375.306854 
	C155.426498,388.760956 147.690338,401.912872 139.541992,415.765564 
	C135.959732,413.755493 132.602402,412.063171 129.436707,410.066956 
	C68.080376,371.376801 33.943489,316.176880 29.992968,243.463623 
	C29.134605,227.664612 31.939190,211.672333 32.951595,195.762375 
	C33.242908,191.184387 35.419884,190.526794 39.543850,191.323990 
	C53.575935,194.036514 67.672806,196.413895 82.363243,199.029312 
	C91.356216,157.157425 114.300674,125.127846 150.536682,101.937653 
	C142.520630,88.083900 134.645706,74.474060 126.357407,60.149792 
	C170.012054,33.565666 216.944443,24.752279 267.621918,32.280849 
M86.843803,243.372864 
	C87.138939,246.519974 87.349915,249.677612 87.741524,252.812668 
	C97.693291,332.480988 170.459869,389.828247 250.161957,380.834106 
	C333.524414,371.426910 392.918335,294.987793 379.588287,212.076569 
	C370.229675,153.867310 336.594666,113.359978 280.722687,94.686333 
	C224.684341,75.957085 173.520309,88.234680 130.732025,129.164200 
	C98.808678,159.700760 84.940475,198.258987 86.843803,243.372864 
M36.491158,244.942093 
	C36.491158,246.722412 36.491158,248.502747 36.491158,251.073349 
	C48.392879,251.073349 60.057274,251.073349 71.770859,251.073349 
	C71.770859,248.343887 71.770859,245.582764 71.770859,242.006042 
	C65.015312,242.006042 58.509808,242.006042 52.004303,242.006042 
	C56.939480,237.229950 61.788918,233.130539 67.193733,229.985580 
	C72.745979,226.754868 73.972870,222.466858 72.357231,215.965515 
	C60.979420,215.965515 49.460121,215.965515 37.560799,215.965515 
	C37.560799,218.630203 37.560799,221.498077 37.560799,225.169678 
	C44.376488,225.169678 50.857380,225.169678 57.694427,225.169678 
	C57.217258,226.121658 57.181999,226.324265 57.062511,226.411438 
	C51.156414,230.719788 45.157978,234.908951 39.393536,239.398621 
	C38.040886,240.452118 37.476654,242.517899 36.491158,244.942093 
M400.552429,260.796082 
	C399.285004,261.582367 397.922760,262.249969 396.765717,263.174408 
	C389.727417,268.797516 387.208557,278.734558 390.638275,287.071503 
	C393.892242,294.981232 400.970978,298.969971 410.380005,298.195587 
	C418.385559,297.536682 425.036560,291.150238 426.801758,282.427002 
	C429.887268,267.179047 416.518494,255.674164 400.552429,260.796082 
M272.675171,81.895943 
	C272.978271,82.651527 273.087799,83.870430 273.614624,84.090523 
	C278.509247,86.135406 283.378815,88.337601 288.450958,89.830574 
	C292.770386,91.101997 297.199188,90.741142 299.939545,86.331223 
	C302.677948,81.924461 302.904785,77.563118 298.562256,73.636284 
	C303.071136,71.393524 305.193695,67.753448 304.770081,63.102581 
	C304.348877,58.478405 300.536560,56.676540 296.753998,55.141312 
	C293.087036,53.652996 289.400604,52.212662 285.316925,50.590015 
	C281.119293,60.972347 277.029877,71.087029 272.675171,81.895943 
M77.614227,326.167480 
	C83.443306,323.455902 89.272385,320.744324 95.195869,317.988831 
	C93.657051,314.781097 92.406425,312.174103 91.146873,309.548523 
	C84.094841,312.760803 77.815460,315.838226 71.360794,318.488800 
	C66.655128,320.421204 62.324902,318.275024 62.613754,313.876892 
	C62.767502,311.535797 65.193947,308.559143 67.408638,307.290283 
	C73.272987,303.930359 79.580742,301.344421 85.972664,298.327484 
	C84.555992,295.308685 83.319214,292.673218 81.973618,289.805878 
	C74.763237,293.209259 67.936188,296.238861 61.288929,299.621704 
	C54.160137,303.249603 52.012379,308.673767 54.247280,316.261475 
	C57.679024,327.912659 65.393471,331.405670 77.614227,326.167480 
M430.007172,230.814865 
	C428.428619,226.004578 425.403656,222.253586 420.214111,222.117905 
	C411.503632,221.890167 402.772308,222.457993 394.319733,222.683853 
	C394.319733,226.302322 394.319733,229.050888 394.319733,231.969421 
	C396.520905,231.969421 398.326141,232.037720 400.124634,231.956467 
	C405.275085,231.723755 410.420349,231.300201 415.572388,231.203339 
	C419.470612,231.130035 422.582886,232.624573 422.752197,237.067322 
	C422.911835,241.255524 420.152252,242.878464 416.389008,243.197159 
	C413.241455,243.463715 410.090057,243.693863 406.936981,243.883743 
	C403.018799,244.119690 399.097107,244.297577 394.910126,244.514343 
	C395.081116,247.898254 395.220764,250.661484 395.394989,254.109512 
	C404.398804,253.406067 412.989441,252.980103 421.510681,251.969101 
	C425.988861,251.437805 429.245209,248.316086 429.990173,243.884781 
	C430.661041,239.894501 430.176849,235.710022 430.007172,230.814865 
M234.692841,43.811241 
	C233.939697,44.265453 232.544632,44.698185 232.528610,45.177059 
	C232.235001,53.951290 231.471527,62.781162 232.158920,71.492615 
	C232.644608,77.647606 239.320724,81.013535 247.753632,80.915192 
	C255.527664,80.824532 260.943756,77.381561 261.772278,70.855766 
	C262.831482,62.512890 263.014252,54.058743 263.599945,45.274029 
	C260.062775,45.274029 257.211365,45.274029 254.215195,45.274029 
	C253.771500,52.516926 253.611069,59.499767 252.759476,66.397278 
	C252.501495,68.486832 250.728348,71.030975 248.907944,72.077339 
	C247.520813,72.874664 244.180054,72.329384 243.116394,71.131371 
	C241.670959,69.503311 240.996552,66.682762 240.998169,64.374336 
	C241.002808,57.779526 241.516159,51.185074 241.844101,44.281494 
	C239.511215,44.113407 237.564178,43.973122 234.692841,43.811241 
M48.091400,261.471527 
	C44.507622,261.135162 40.923843,260.798798 37.281437,260.456940 
	C38.066189,267.901917 38.089802,267.848114 44.474560,270.649689 
	C45.327919,271.024139 46.095062,272.175201 46.394096,273.126343 
	C47.378017,276.255951 48.128288,279.459045 48.930042,282.489319 
	C42.900543,287.580383 42.900490,287.580780 46.879597,295.899628 
	C56.341831,289.116791 65.717987,282.286102 75.222336,275.638702 
	C78.824211,273.119537 75.976433,270.478363 75.461357,268.129425 
	C75.115929,266.554199 73.197372,264.376770 71.727615,264.154327 
	C64.190681,263.013702 56.571022,262.419739 48.091400,261.471527 
M386.734192,334.844635 
	C381.965088,333.433411 377.194061,332.028656 372.427643,330.608368 
	C369.815796,329.830048 367.373627,328.320312 365.150299,331.811798 
	C362.959625,335.252014 361.258789,338.204285 364.147278,342.123505 
	C366.601196,345.453094 368.614868,349.107758 370.813843,352.624481 
	C374.270355,358.152344 377.718903,363.685211 381.278015,369.387756 
	C384.981201,365.037689 389.877594,361.568970 383.888550,356.153870 
	C386.604675,352.557709 389.075134,349.286835 391.441345,346.153992 
	C398.796997,347.995636 399.116119,347.818176 403.176605,339.686890 
	C397.915253,338.113312 392.719116,336.559265 386.734192,334.844635 
M356.618164,372.886963 
	C357.950714,373.564484 360.260956,374.098389 360.386536,374.953247 
	C360.574707,376.234009 359.590790,378.377716 358.460632,379.019958 
	C355.979950,380.429749 353.094940,381.128143 350.200134,382.180542 
	C350.820129,384.772369 351.415405,387.260864 352.002380,389.714691 
	C358.879944,388.952728 364.096039,386.315826 367.752167,381.087616 
	C371.041168,376.384399 370.719513,371.410461 367.091003,366.770203 
	C363.888367,362.674561 360.362915,361.855408 354.574310,363.899475 
	C353.005859,364.453278 351.505585,365.337006 349.897766,365.596100 
	C348.756744,365.779999 347.487671,365.169281 346.275757,364.913269 
	C346.585144,363.567413 346.452606,361.692169 347.297028,360.987213 
	C348.991455,359.572540 351.219543,358.797028 353.498718,357.617249 
	C352.990875,355.303497 352.477905,352.966370 351.592255,348.931396 
	C346.620789,352.462128 342.169861,354.780853 338.859192,358.202759 
	C335.288147,361.893738 335.993378,367.796448 339.215210,372.022583 
	C342.456116,376.273743 346.493652,376.873138 351.196594,374.896515 
	C352.729858,374.252136 354.283051,373.655090 356.618164,372.886963 
M159.090073,72.892838 
	C162.292740,86.564049 175.618210,89.900475 184.649536,86.196808 
	C191.809937,83.260399 192.356857,82.009117 189.255981,74.958466 
	C188.794464,73.909081 188.255981,72.893539 187.715561,71.785355 
	C182.614960,78.162399 178.005020,79.867767 173.333649,77.215950 
	C169.449997,75.011307 167.448303,69.812340 168.851746,65.575172 
	C170.523071,60.529247 174.948807,58.554974 182.643799,59.579140 
	C181.945648,57.818279 181.097565,56.226585 180.683517,54.529026 
	C179.585846,50.028526 176.952805,49.543365 172.895737,50.715523 
	C163.409622,53.456238 158.364288,60.948540 159.090073,72.892838 
M126.815636,389.997070 
	C122.015350,388.481750 118.870232,385.374908 119.268562,380.195160 
	C119.614159,375.701111 122.384178,372.301300 126.868393,371.285706 
	C133.825165,369.710114 136.881546,374.557770 139.275574,380.256683 
	C140.474380,378.661163 141.213715,377.293701 142.297714,376.303589 
	C146.143173,372.791199 145.006912,369.982727 141.592712,366.887909 
	C135.788330,361.626526 127.146873,360.097504 120.225090,363.487122 
	C113.132988,366.960205 108.984627,374.515930 109.857826,382.369812 
	C110.756577,390.453552 116.408005,396.539673 125.312668,398.774109 
	C127.250435,396.190063 129.251358,393.521851 131.565353,390.436127 
	C129.576614,390.282410 128.581985,390.205505 126.815636,389.997070 
M99.458252,324.998749 
	C98.682816,323.977112 97.907372,322.955444 96.951729,321.696381 
	C94.715187,323.246460 92.728973,324.623047 90.635468,326.074005 
	C92.064484,328.384827 93.257912,330.314667 94.575233,332.444855 
	C86.934036,337.625854 79.545174,342.635773 71.909111,347.813293 
	C73.740692,350.539886 75.366386,352.959991 77.151321,355.617157 
	C84.954948,350.376617 92.340988,345.416504 99.877563,340.355316 
	C101.535065,342.538208 102.912247,344.351929 104.460991,346.391602 
	C106.651512,344.885101 108.651199,343.509827 110.882294,341.975433 
	C107.060295,336.284882 103.468765,330.937500 99.458252,324.998749 
M415.775055,312.293579 
	C413.730072,310.659576 411.685089,309.025574 409.338409,307.150482 
	C407.382416,311.326874 405.944580,314.396912 404.437897,317.613922 
	C395.769836,313.802307 387.638000,310.226471 379.331085,306.573639 
	C377.946747,309.660248 376.815430,312.182739 375.501526,315.112335 
	C386.446198,319.988007 396.995361,324.687439 407.976654,329.579407 
	C410.565948,323.801758 412.994263,318.383270 415.775055,312.293579 
M209.760605,51.839317 
	C209.457764,49.610199 209.154938,47.381077 208.834656,45.023495 
	C205.460846,45.434444 202.732056,45.766830 199.715286,46.134293 
	C200.770996,58.021687 201.783127,69.418381 202.840515,81.324532 
	C209.779724,80.723984 216.316498,80.158264 223.146362,79.567184 
	C222.914490,76.755974 222.727203,74.485184 222.503571,71.773766 
	C218.688965,71.985268 215.272705,72.174683 211.466705,72.385704 
	C210.900009,65.615242 210.360992,59.175732 209.760605,51.839317 
M111.135780,359.636108 
	C114.206779,356.702667 117.277771,353.769226 119.623779,351.528320 
	C117.219070,348.695282 115.339401,346.480804 113.968819,344.866089 
	C105.664200,353.172943 97.490082,361.349274 89.791061,369.050385 
	C91.339378,370.985687 93.158401,373.259338 95.160782,375.762146 
	C100.605278,370.264679 105.620674,365.200500 111.135780,359.636108 
M77.384773,263.447327 
	C78.108612,264.225861 78.832443,265.004395 79.633171,265.865662 
	C85.225655,256.920471 85.194687,255.272171 79.279465,250.633713 
	C78.491348,254.810333 77.738518,258.799927 77.384773,263.447327 
z"/>
<path fill="#0296DA" opacity="1.000000" stroke="none" 
	d="
M86.796036,242.889175 
	C84.940475,198.258987 98.808678,159.700760 130.732025,129.164200 
	C173.520309,88.234680 224.684341,75.957085 280.722687,94.686333 
	C336.594666,113.359978 370.229675,153.867310 379.588287,212.076569 
	C392.918335,294.987793 333.524414,371.426910 250.161957,380.834106 
	C170.459869,389.828247 97.693291,332.480988 87.741524,252.812668 
	C87.349915,249.677612 87.138939,246.519974 86.796036,242.889175 
M235.863678,370.516602 
	C236.812347,369.975250 237.910538,369.594116 238.687515,368.868835 
	C252.897766,355.603821 267.074188,342.302521 281.241089,328.991180 
	C282.487244,327.820282 283.617493,326.526062 285.703461,324.347015 
	C267.929138,324.347015 251.551544,324.347015 234.202484,324.262787 
	C218.624985,324.262787 203.047485,324.262787 186.758621,324.262787 
	C187.557190,325.447113 187.812897,326.016968 188.230560,326.418243 
	C203.117874,340.720551 218.012756,355.015015 232.948837,369.266327 
	C233.537216,369.827789 234.539032,369.955933 235.863678,370.516602 
M234.666855,191.261841 
	C223.905762,186.378464 213.092285,181.605530 202.416229,176.542847 
	C199.306046,175.067947 196.775146,174.839676 193.553513,176.379120 
	C165.165314,189.944244 136.692444,203.332047 108.252296,216.788559 
	C106.949341,217.405029 105.719681,218.176407 104.239235,218.995529 
	C104.987297,220.940125 105.605362,222.546799 106.307549,224.372131 
	C128.881973,215.328690 151.277710,207.179184 172.912918,197.354843 
	C184.327835,192.171417 193.465210,191.952286 204.009064,199.152924 
	C213.972336,205.957062 225.257996,210.824844 236.025879,216.572983 
	C236.025879,216.572983 235.953323,216.574432 236.034164,217.562302 
	C236.034164,251.321152 236.034164,285.080017 236.034164,318.966675 
	C272.268677,318.966675 307.962616,318.966675 344.256622,318.966675 
	C339.103699,308.346008 334.172241,298.211212 329.266052,288.064209 
	C313.771973,256.019196 298.287323,223.969620 283.583313,191.963104 
	C310.857239,202.769241 338.131134,213.575378 365.765900,224.524475 
	C366.584137,222.041931 367.126465,220.396484 367.721619,218.590805 
	C356.906311,213.463669 346.564453,208.527069 336.193787,203.651825 
	C315.423035,193.887512 294.636505,184.156784 273.690796,173.803940 
	C261.459412,148.487671 249.228027,123.171402 236.996628,97.855125 
	C235.988892,102.265160 235.998947,106.365517 235.987274,110.465797 
	C235.910568,137.409775 235.829163,164.353760 235.686203,191.499725 
	C235.686203,191.499725 235.475861,191.476501 234.666855,191.261841 
z"/>
<path fill="#0A4B7D" opacity="1.000000" stroke="none" 
	d="
M36.520432,244.530029 
	C37.476654,242.517899 38.040886,240.452118 39.393536,239.398621 
	C45.157978,234.908951 51.156414,230.719788 57.062511,226.411438 
	C57.181999,226.324265 57.217258,226.121658 57.694427,225.169678 
	C50.857380,225.169678 44.376488,225.169678 37.560799,225.169678 
	C37.560799,221.498077 37.560799,218.630203 37.560799,215.965515 
	C49.460121,215.965515 60.979420,215.965515 72.357231,215.965515 
	C73.972870,222.466858 72.745979,226.754868 67.193733,229.985580 
	C61.788918,233.130539 56.939480,237.229950 52.004303,242.006042 
	C58.509808,242.006042 65.015312,242.006042 71.770859,242.006042 
	C71.770859,245.582764 71.770859,248.343887 71.770859,251.073349 
	C60.057274,251.073349 48.392879,251.073349 36.491158,251.073349 
	C36.491158,248.502747 36.491158,246.722412 36.520432,244.530029 
z"/>
<path fill="#084A7C" opacity="1.000000" stroke="none" 
	d="
M400.900330,260.616150 
	C416.518494,255.674164 429.887268,267.179047 426.801758,282.427002 
	C425.036560,291.150238 418.385559,297.536682 410.380005,298.195587 
	C400.970978,298.969971 393.892242,294.981232 390.638275,287.071503 
	C387.208557,278.734558 389.727417,268.797516 396.765717,263.174408 
	C397.922760,262.249969 399.285004,261.582367 400.900330,260.616150 
M409.130341,288.558990 
	C410.089691,288.304810 411.103760,288.173706 411.999176,287.775604 
	C416.387970,285.824646 418.779236,281.257111 417.797943,276.849945 
	C416.781525,272.285034 412.250977,268.716553 407.681854,268.881958 
	C403.087952,269.048279 398.978790,272.926331 398.352081,277.686981 
	C397.594421,283.442169 401.345886,287.553741 409.130341,288.558990 
z"/>
<path fill="#084A7C" opacity="1.000000" stroke="none" 
	d="
M272.807831,81.548828 
	C277.029877,71.087029 281.119293,60.972347 285.316925,50.590015 
	C289.400604,52.212662 293.087036,53.652996 296.753998,55.141312 
	C300.536560,56.676540 304.348877,58.478405 304.770081,63.102581 
	C305.193695,67.753448 303.071136,71.393524 298.562256,73.636284 
	C302.904785,77.563118 302.677948,81.924461 299.939545,86.331223 
	C297.199188,90.741142 292.770386,91.101997 288.450958,89.830574 
	C283.378815,88.337601 278.509247,86.135406 273.614624,84.090523 
	C273.087799,83.870430 272.978271,82.651527 272.807831,81.548828 
M289.489075,74.840401 
	C283.382721,72.053055 285.677826,78.149391 283.882660,80.642387 
	C286.686707,81.256561 289.957214,81.932976 291.802582,80.614586 
	C294.340424,78.801468 292.339600,76.556404 289.489075,74.840401 
M290.091736,63.681759 
	C290.260986,65.009827 290.430237,66.337891 290.599487,67.665962 
	C292.155548,67.207657 294.012543,67.094604 295.123749,66.125977 
	C295.586853,65.722298 294.763611,63.246990 293.913818,62.219311 
	C293.561951,61.793823 291.606873,62.694092 290.091736,63.681759 
z"/>
<path fill="#094B7C" opacity="1.000000" stroke="none" 
	d="
M77.271851,326.349609 
	C65.393471,331.405670 57.679024,327.912659 54.247280,316.261475 
	C52.012379,308.673767 54.160137,303.249603 61.288929,299.621704 
	C67.936188,296.238861 74.763237,293.209259 81.973618,289.805878 
	C83.319214,292.673218 84.555992,295.308685 85.972664,298.327484 
	C79.580742,301.344421 73.272987,303.930359 67.408638,307.290283 
	C65.193947,308.559143 62.767502,311.535797 62.613754,313.876892 
	C62.324902,318.275024 66.655128,320.421204 71.360794,318.488800 
	C77.815460,315.838226 84.094841,312.760803 91.146873,309.548523 
	C92.406425,312.174103 93.657051,314.781097 95.195869,317.988831 
	C89.272385,320.744324 83.443306,323.455902 77.271851,326.349609 
z"/>
<path fill="#094B7C" opacity="1.000000" stroke="none" 
	d="
M430.104645,231.213043 
	C430.176849,235.710022 430.661041,239.894501 429.990173,243.884781 
	C429.245209,248.316086 425.988861,251.437805 421.510681,251.969101 
	C412.989441,252.980103 404.398804,253.406067 395.394989,254.109512 
	C395.220764,250.661484 395.081116,247.898254 394.910126,244.514343 
	C399.097107,244.297577 403.018799,244.119690 406.936981,243.883743 
	C410.090057,243.693863 413.241455,243.463715 416.389008,243.197159 
	C420.152252,242.878464 422.911835,241.255524 422.752197,237.067322 
	C422.582886,232.624573 419.470612,231.130035 415.572388,231.203339 
	C410.420349,231.300201 405.275085,231.723755 400.124634,231.956467 
	C398.326141,232.037720 396.520905,231.969421 394.319733,231.969421 
	C394.319733,229.050888 394.319733,226.302322 394.319733,222.683853 
	C402.772308,222.457993 411.503632,221.890167 420.214111,222.117905 
	C425.403656,222.253586 428.428619,226.004578 430.104645,231.213043 
z"/>
<path fill="#094A7C" opacity="1.000000" stroke="none" 
	d="
M235.154999,43.822037 
	C237.564178,43.973122 239.511215,44.113407 241.844101,44.281494 
	C241.516159,51.185074 241.002808,57.779526 240.998169,64.374336 
	C240.996552,66.682762 241.670959,69.503311 243.116394,71.131371 
	C244.180054,72.329384 247.520813,72.874664 248.907944,72.077339 
	C250.728348,71.030975 252.501495,68.486832 252.759476,66.397278 
	C253.611069,59.499767 253.771500,52.516926 254.215195,45.274029 
	C257.211365,45.274029 260.062775,45.274029 263.599945,45.274029 
	C263.014252,54.058743 262.831482,62.512890 261.772278,70.855766 
	C260.943756,77.381561 255.527664,80.824532 247.753632,80.915192 
	C239.320724,81.013535 232.644608,77.647606 232.158920,71.492615 
	C231.471527,62.781162 232.235001,53.951290 232.528610,45.177059 
	C232.544632,44.698185 233.939697,44.265453 235.154999,43.822037 
z"/>
<path fill="#084A7C" opacity="1.000000" stroke="none" 
	d="
M48.535835,261.553131 
	C56.571022,262.419739 64.190681,263.013702 71.727615,264.154327 
	C73.197372,264.376770 75.115929,266.554199 75.461357,268.129425 
	C75.976433,270.478363 78.824211,273.119537 75.222336,275.638702 
	C65.717987,282.286102 56.341831,289.116791 46.879597,295.899628 
	C42.900490,287.580780 42.900543,287.580383 48.930042,282.489319 
	C48.128288,279.459045 47.378017,276.255951 46.394096,273.126343 
	C46.095062,272.175201 45.327919,271.024139 44.474560,270.649689 
	C38.089802,267.848114 38.066189,267.901917 37.281437,260.456940 
	C40.923843,260.798798 44.507622,261.135162 48.535835,261.553131 
M61.788956,274.216583 
	C62.445473,273.625610 63.101990,273.034607 64.239304,272.010834 
	C60.341003,271.796509 57.194313,271.623505 53.482395,271.419403 
	C54.230732,274.023071 54.787140,275.958984 55.452229,278.273041 
	C57.634655,276.896881 59.413673,275.775116 61.788956,274.216583 
z"/>
<path fill="#084A7C" opacity="1.000000" stroke="none" 
	d="
M387.128571,334.924927 
	C392.719116,336.559265 397.915253,338.113312 403.176605,339.686890 
	C399.116119,347.818176 398.796997,347.995636 391.441345,346.153992 
	C389.075134,349.286835 386.604675,352.557709 383.888550,356.153870 
	C389.877594,361.568970 384.981201,365.037689 381.278015,369.387756 
	C377.718903,363.685211 374.270355,358.152344 370.813843,352.624481 
	C368.614868,349.107758 366.601196,345.453094 364.147278,342.123505 
	C361.258789,338.204285 362.959625,335.252014 365.150299,331.811798 
	C367.373627,328.320312 369.815796,329.830048 372.427643,330.608368 
	C377.194061,332.028656 381.965088,333.433411 387.128571,334.924927 
M374.902191,342.484131 
	C376.397064,344.656555 377.891937,346.829010 379.727753,349.496948 
	C381.285889,347.426636 382.606323,345.672150 384.777924,342.786743 
	C380.516418,342.440002 377.455902,342.190979 374.902191,342.484131 
z"/>
<path fill="#094B7C" opacity="1.000000" stroke="none" 
	d="
M356.222656,372.961700 
	C354.283051,373.655090 352.729858,374.252136 351.196594,374.896515 
	C346.493652,376.873138 342.456116,376.273743 339.215210,372.022583 
	C335.993378,367.796448 335.288147,361.893738 338.859192,358.202759 
	C342.169861,354.780853 346.620789,352.462128 351.592255,348.931396 
	C352.477905,352.966370 352.990875,355.303497 353.498718,357.617249 
	C351.219543,358.797028 348.991455,359.572540 347.297028,360.987213 
	C346.452606,361.692169 346.585144,363.567413 346.275757,364.913269 
	C347.487671,365.169281 348.756744,365.779999 349.897766,365.596100 
	C351.505585,365.337006 353.005859,364.453278 354.574310,363.899475 
	C360.362915,361.855408 363.888367,362.674561 367.091003,366.770203 
	C370.719513,371.410461 371.041168,376.384399 367.752167,381.087616 
	C364.096039,386.315826 358.879944,388.952728 352.002380,389.714691 
	C351.415405,387.260864 350.820129,384.772369 350.200134,382.180542 
	C353.094940,381.128143 355.979950,380.429749 358.460632,379.019958 
	C359.590790,378.377716 360.574707,376.234009 360.386536,374.953247 
	C360.260956,374.098389 357.950714,373.564484 356.222656,372.961700 
z"/>
<path fill="#0A4B7D" opacity="1.000000" stroke="none" 
	d="
M159.030853,72.465134 
	C158.364288,60.948540 163.409622,53.456238 172.895737,50.715523 
	C176.952805,49.543365 179.585846,50.028526 180.683517,54.529026 
	C181.097565,56.226585 181.945648,57.818279 182.643799,59.579140 
	C174.948807,58.554974 170.523071,60.529247 168.851746,65.575172 
	C167.448303,69.812340 169.449997,75.011307 173.333649,77.215950 
	C178.005020,79.867767 182.614960,78.162399 187.715561,71.785355 
	C188.255981,72.893539 188.794464,73.909081 189.255981,74.958466 
	C192.356857,82.009117 191.809937,83.260399 184.649536,86.196808 
	C175.618210,89.900475 162.292740,86.564049 159.030853,72.465134 
z"/>
<path fill="#084A7C" opacity="1.000000" stroke="none" 
	d="
M127.201492,390.062866 
	C128.581985,390.205505 129.576614,390.282410 131.565353,390.436127 
	C129.251358,393.521851 127.250435,396.190063 125.312668,398.774109 
	C116.408005,396.539673 110.756577,390.453552 109.857826,382.369812 
	C108.984627,374.515930 113.132988,366.960205 120.225090,363.487122 
	C127.146873,360.097504 135.788330,361.626526 141.592712,366.887909 
	C145.006912,369.982727 146.143173,372.791199 142.297714,376.303589 
	C141.213715,377.293701 140.474380,378.661163 139.275574,380.256683 
	C136.881546,374.557770 133.825165,369.710114 126.868393,371.285706 
	C122.384178,372.301300 119.614159,375.701111 119.268562,380.195160 
	C118.870232,385.374908 122.015350,388.481750 127.201492,390.062866 
z"/>
<path fill="#0A4B7C" opacity="1.000000" stroke="none" 
	d="
M99.667740,325.294434 
	C103.468765,330.937500 107.060295,336.284882 110.882294,341.975433 
	C108.651199,343.509827 106.651512,344.885101 104.460991,346.391602 
	C102.912247,344.351929 101.535065,342.538208 99.877563,340.355316 
	C92.340988,345.416504 84.954948,350.376617 77.151321,355.617157 
	C75.366386,352.959991 73.740692,350.539886 71.909111,347.813293 
	C79.545174,342.635773 86.934036,337.625854 94.575233,332.444855 
	C93.257912,330.314667 92.064484,328.384827 90.635468,326.074005 
	C92.728973,324.623047 94.715187,323.246460 96.951729,321.696381 
	C97.907372,322.955444 98.682816,323.977112 99.667740,325.294434 
z"/>
<path fill="#0A4B7C" opacity="1.000000" stroke="none" 
	d="
M415.598816,312.629211 
	C412.994263,318.383270 410.565948,323.801758 407.976654,329.579407 
	C396.995361,324.687439 386.446198,319.988007 375.501526,315.112335 
	C376.815430,312.182739 377.946747,309.660248 379.331085,306.573639 
	C387.638000,310.226471 395.769836,313.802307 404.437897,317.613922 
	C405.944580,314.396912 407.382416,311.326874 409.338409,307.150482 
	C411.685089,309.025574 413.730072,310.659576 415.598816,312.629211 
z"/>
<path fill="#0A4B7D" opacity="1.000000" stroke="none" 
	d="
M209.791290,52.287766 
	C210.360992,59.175732 210.900009,65.615242 211.466705,72.385704 
	C215.272705,72.174683 218.688965,71.985268 222.503571,71.773766 
	C222.727203,74.485184 222.914490,76.755974 223.146362,79.567184 
	C216.316498,80.158264 209.779724,80.723984 202.840515,81.324532 
	C201.783127,69.418381 200.770996,58.021687 199.715286,46.134293 
	C202.732056,45.766830 205.460846,45.434444 208.834656,45.023495 
	C209.154938,47.381077 209.457764,49.610199 209.791290,52.287766 
z"/>
<path fill="#05477A" opacity="1.000000" stroke="none" 
	d="
M110.885925,359.886200 
	C105.620674,365.200500 100.605278,370.264679 95.160782,375.762146 
	C93.158401,373.259338 91.339378,370.985687 89.791061,369.050385 
	C97.490082,361.349274 105.664200,353.172943 113.968819,344.866089 
	C115.339401,346.480804 117.219070,348.695282 119.623779,351.528320 
	C117.277771,353.769226 114.206779,356.702667 110.885925,359.886200 
z"/>
<path fill="#135080" opacity="1.000000" stroke="none" 
	d="
M77.185226,263.118408 
	C77.738518,258.799927 78.491348,254.810333 79.279465,250.633713 
	C85.194687,255.272171 85.225655,256.920471 79.633171,265.865662 
	C78.832443,265.004395 78.108612,264.225861 77.185226,263.118408 
z"/>
<path fill="#FEFEFF" opacity="1.000000" stroke="none" 
	d="
M282.799042,191.921799 
	C298.287323,223.969620 313.771973,256.019196 329.266052,288.064209 
	C334.172241,298.211212 339.103699,308.346008 344.256622,318.966675 
	C307.962616,318.966675 272.268677,318.966675 236.034164,318.966675 
	C236.034164,285.080017 236.034164,251.321152 236.331543,217.177338 
	C244.592880,212.419022 252.530746,207.997299 260.528442,203.686523 
	C267.918640,199.703140 275.372955,195.838654 282.799042,191.921799 
z"/>
<path fill="#02487A" opacity="1.000000" stroke="none" 
	d="
M283.191162,191.942444 
	C275.372955,195.838654 267.918640,199.703140 260.528442,203.686523 
	C252.530746,207.997299 244.592880,212.419022 236.291122,216.683411 
	C235.953323,216.574432 236.025879,216.572983 235.964676,216.042328 
	C235.760941,207.499954 235.618408,199.488220 235.475861,191.476501 
	C235.475861,191.476501 235.686203,191.499725 236.114120,191.396942 
	C248.980194,185.666840 261.418335,180.039520 273.856506,174.412201 
	C294.636505,184.156784 315.423035,193.887512 336.193787,203.651825 
	C346.564453,208.527069 356.906311,213.463669 367.721619,218.590805 
	C367.126465,220.396484 366.584137,222.041931 365.765900,224.524475 
	C338.131134,213.575378 310.857239,202.769241 283.191162,191.942444 
z"/>
<path fill="#F9FCFD" opacity="1.000000" stroke="none" 
	d="
M235.071350,191.369171 
	C235.618408,199.488220 235.760941,207.499954 235.932739,216.027985 
	C225.257996,210.824844 213.972336,205.957062 204.009064,199.152924 
	C193.465210,191.952286 184.327835,192.171417 172.912918,197.354843 
	C151.277710,207.179184 128.881973,215.328690 106.307549,224.372131 
	C105.605362,222.546799 104.987297,220.940125 104.239235,218.995529 
	C105.719681,218.176407 106.949341,217.405029 108.252296,216.788559 
	C136.692444,203.332047 165.165314,189.944244 193.553513,176.379120 
	C196.775146,174.839676 199.306046,175.067947 202.416229,176.542847 
	C213.092285,181.605530 223.905762,186.378464 235.071350,191.369171 
z"/>
<path fill="#FBFDFE" opacity="1.000000" stroke="none" 
	d="
M273.773651,174.108063 
	C261.418335,180.039520 248.980194,185.666840 236.145660,191.295944 
	C235.829163,164.353760 235.910568,137.409775 235.987274,110.465797 
	C235.998947,106.365517 235.988892,102.265160 236.996628,97.855125 
	C249.228027,123.171402 261.459412,148.487671 273.773651,174.108063 
z"/>
<path fill="#00477A" opacity="1.000000" stroke="none" 
	d="
M235.173950,324.347015 
	C251.551544,324.347015 267.929138,324.347015 285.703461,324.347015 
	C283.617493,326.526062 282.487244,327.820282 281.241089,328.991180 
	C267.074188,342.302521 252.897766,355.603821 238.687515,368.868835 
	C237.910538,369.594116 236.812347,369.975250 235.568695,369.906433 
	C235.240448,354.313202 235.207199,339.330109 235.173950,324.347015 
z"/>
<path fill="#FAFDFE" opacity="1.000000" stroke="none" 
	d="
M234.688217,324.304901 
	C235.207199,339.330109 235.240448,354.313202 235.310959,369.791138 
	C234.539032,369.955933 233.537216,369.827789 232.948837,369.266327 
	C218.012756,355.015015 203.117874,340.720551 188.230560,326.418243 
	C187.812897,326.016968 187.557190,325.447113 186.758621,324.262787 
	C203.047485,324.262787 218.624985,324.262787 234.688217,324.304901 
z"/>
<path fill="#F8FAFB" opacity="1.000000" stroke="none" 
	d="
M408.751526,288.614319 
	C401.345886,287.553741 397.594421,283.442169 398.352081,277.686981 
	C398.978790,272.926331 403.087952,269.048279 407.681854,268.881958 
	C412.250977,268.716553 416.781525,272.285034 417.797943,276.849945 
	C418.779236,281.257111 416.387970,285.824646 411.999176,287.775604 
	C411.103760,288.173706 410.089691,288.304810 408.751526,288.614319 
z"/>
<path fill="#EEF2F5" opacity="1.000000" stroke="none" 
	d="
M289.838379,74.994698 
	C292.339600,76.556404 294.340424,78.801468 291.802582,80.614586 
	C289.957214,81.932976 286.686707,81.256561 283.882660,80.642387 
	C285.677826,78.149391 283.382721,72.053055 289.838379,74.994698 
z"/>
<path fill="#E9EEF3" opacity="1.000000" stroke="none" 
	d="
M290.236328,63.336590 
	C291.606873,62.694092 293.561951,61.793823 293.913818,62.219311 
	C294.763611,63.246990 295.586853,65.722298 295.123749,66.125977 
	C294.012543,67.094604 292.155548,67.207657 290.599487,67.665962 
	C290.430237,66.337891 290.260986,65.009827 290.236328,63.336590 
z"/>
<path fill="#EAF0F4" opacity="1.000000" stroke="none" 
	d="
M61.490822,274.434937 
	C59.413673,275.775116 57.634655,276.896881 55.452229,278.273041 
	C54.787140,275.958984 54.230732,274.023071 53.482395,271.419403 
	C57.194313,271.623505 60.341003,271.796509 64.239304,272.010834 
	C63.101990,273.034607 62.445473,273.625610 61.490822,274.434937 
z"/>
<path fill="#E5ECF1" opacity="1.000000" stroke="none" 
	d="
M374.648804,342.213043 
	C377.455902,342.190979 380.516418,342.440002 384.777924,342.786743 
	C382.606323,345.672150 381.285889,347.426636 379.727753,349.496948 
	C377.891937,346.829010 376.397064,344.656555 374.648804,342.213043 
z"/>
</svg>