<svg version="1.1" id="Layer_1" xmlns="http://www.w3.org/2000/svg" xmlns:xlink="http://www.w3.org/1999/xlink" x="0px" y="0px"
	 width="100%" viewBox="0 0 3000 2277" enable-background="new 0 0 3000 2277" xml:space="preserve">
<path fill="#000000" opacity="1.000000" stroke="none" 
	d="
M3002.000000,1924.000000 
	C3002.000000,2042.629761 3002.000000,2161.259521 3002.000000,2280.000000 
	C2213.948242,2280.000000 1425.896729,2280.000000 636.784485,2279.252930 
	C636.676636,2277.684814 637.503906,2276.419678 638.601257,2276.109375 
	C651.787842,2272.379150 662.784424,2265.269287 671.965515,2255.154053 
	C673.116333,2253.885986 675.001648,2253.284912 677.066650,2252.068359 
	C678.509338,2259.745605 679.777710,2266.495605 681.076355,2273.406738 
	C691.389587,2273.406738 701.212830,2273.406738 710.917419,2273.406738 
	C713.056885,2261.912598 712.616028,2161.773926 710.484131,2154.621826 
	C680.673096,2154.621826 650.840942,2154.621826 620.514648,2154.621826 
	C620.514648,2167.004639 620.514648,2178.750977 620.514648,2191.596191 
	C628.793091,2191.596191 636.391724,2191.356689 643.968323,2191.662842 
	C651.723755,2191.976318 659.681763,2190.199219 667.256897,2192.965088 
	C664.726501,2215.770264 653.051819,2230.677002 633.382141,2235.258057 
	C625.118652,2237.182617 616.764221,2238.213867 607.825134,2236.720947 
	C589.248840,2233.619385 575.851440,2224.447754 567.642456,2207.674072 
	C556.296570,2184.490723 555.414124,2160.357422 561.986389,2135.799316 
	C568.449341,2111.649170 582.457031,2095.649658 608.481079,2091.028076 
	C625.896118,2087.934814 649.800842,2095.846191 658.093079,2114.271729 
	C659.978699,2118.461670 661.954773,2122.610840 664.152222,2127.345459 
	C679.244263,2127.181396 694.291138,2128.960205 709.721313,2126.206299 
	C706.259460,2098.277344 693.703918,2077.247070 670.443054,2063.571777 
	C649.898682,2051.493652 627.777405,2046.667358 603.534851,2049.696533 
	C571.125916,2053.746094 544.626343,2067.409912 528.007019,2095.574951 
	C504.497498,2135.417480 502.980316,2177.510742 521.114014,2219.975098 
	C528.860413,2238.115234 540.866943,2253.352051 558.521240,2262.832520 
	C568.399963,2268.137451 579.227966,2271.692383 589.694214,2275.870605 
	C591.828003,2276.722656 594.520996,2276.554688 594.000000,2280.000000 
	C396.834259,2280.000000 199.668533,2280.000000 2.000000,2280.000000 
	C2.000000,2145.948730 2.000000,2011.896851 2.739511,1876.856689 
	C4.736734,1878.084473 6.330149,1880.177246 7.197546,1882.536865 
	C12.737388,1897.607422 22.941607,1908.640015 36.728882,1916.374756 
	C63.579185,1931.438232 92.694969,1933.782837 121.919090,1927.642944 
	C155.067490,1920.678467 173.341248,1902.734375 177.074600,1873.899658 
	C179.961365,1851.603638 171.637512,1829.789185 150.543304,1818.282959 
	C134.202423,1809.369507 116.224312,1805.904663 98.359680,1802.085327 
	C82.448273,1798.683594 66.276520,1796.198853 51.342327,1789.380371 
	C36.755642,1782.720703 24.702908,1766.891846 29.600460,1748.181030 
	C34.601650,1729.074341 48.029980,1720.527588 65.343163,1716.131714 
	C79.728157,1712.479126 94.352547,1712.906006 108.833199,1716.052368 
	C132.220871,1721.133911 151.611465,1737.291626 152.282898,1765.841675 
	C152.311401,1767.054810 153.008224,1768.252197 153.354141,1769.333252 
	C159.649384,1769.333252 165.486038,1769.333252 172.191620,1769.333252 
	C171.820984,1746.580078 165.192734,1727.450317 147.132217,1713.796143 
	C128.524994,1699.728638 106.744385,1695.785889 83.980629,1696.082886 
	C65.988007,1696.317505 49.495480,1701.261475 33.886909,1710.571289 
	C2.727646,1729.156128 -2.110808,1787.443970 39.774391,1804.501099 
	C53.838203,1810.228394 68.789894,1813.869385 83.482498,1817.933472 
	C99.462494,1822.353638 116.124832,1824.783569 131.573853,1830.539429 
	C157.132462,1840.061646 163.999084,1862.286011 154.441254,1884.722778 
	C148.474548,1898.729492 136.355255,1906.023682 122.388924,1909.522461 
	C100.259567,1915.066162 77.968903,1914.173950 56.700397,1905.755615 
	C38.281742,1898.465332 25.952547,1885.058594 22.642899,1864.791748 
	C21.798288,1859.619751 21.703268,1854.325317 21.172640,1848.000000 
	C14.479163,1848.000000 8.239581,1848.000000 2.000000,1848.000000 
	C2.000000,1232.666626 2.000000,617.333313 2.001183,2.000000 
	C3.334911,2.000000 4.667456,2.000000 7.150258,2.926814 
	C8.300515,502.590027 8.300515,1001.326416 8.300515,1500.471680 
	C11.221431,1500.125854 12.899381,1500.095459 14.493059,1499.713501 
	C38.060066,1494.063965 61.641827,1488.472900 85.168938,1482.660889 
	C133.561981,1470.706055 181.921677,1458.616333 230.300003,1446.601807 
	C332.167084,1421.303833 434.032898,1396.001099 535.908081,1370.735718 
	C585.860046,1358.347534 635.843811,1346.087524 685.791992,1333.684204 
	C786.041443,1308.789429 886.272705,1283.821289 986.518433,1258.911621 
	C1085.800781,1234.241333 1185.089844,1209.598389 1284.379272,1184.956787 
	C1385.609375,1159.833496 1486.845581,1134.734375 1588.075439,1109.610107 
	C1687.368164,1084.966553 1786.662720,1060.330322 1885.944580,1035.643066 
	C1986.508301,1010.636902 2087.049561,985.540771 2187.614990,960.541138 
	C2293.023193,934.337524 2398.454834,908.228882 2503.864014,882.029297 
	C2642.177246,847.651489 2780.480225,813.231201 2918.783936,778.814575 
	C2946.531006,771.909729 2974.261719,764.939819 3002.000000,757.999939 
	C3002.000000,1072.718384 3002.000000,1387.436646 3001.080566,1703.284668 
	C2973.182617,1704.407593 2946.204102,1704.372925 2919.225342,1704.401733 
	C2892.374268,1704.430298 2865.518311,1704.257080 2838.905029,1704.507324 
	C2836.919678,1718.174438 2837.488281,1916.042236 2839.546875,1924.000000 
	C2893.545166,1924.000000 2947.772461,1924.000000 3002.000000,1924.000000 
M2519.193848,1925.685181 
	C2526.348633,1931.959961 2533.503418,1938.234741 2540.899902,1944.721436 
	C2549.037598,1936.113770 2556.469238,1928.252930 2564.201416,1920.074219 
	C2554.955322,1911.475708 2546.503662,1903.615845 2537.837402,1895.556396 
	C2539.704834,1892.732056 2541.208740,1890.592529 2542.572998,1888.367310 
	C2546.216064,1882.424805 2550.598633,1876.782104 2553.273438,1870.425171 
	C2567.816895,1835.860840 2568.782959,1800.686646 2556.007568,1765.439941 
	C2547.151123,1741.005249 2531.355469,1722.218018 2507.711914,1710.723755 
	C2487.558105,1700.926147 2466.455566,1697.109497 2443.930176,1699.849854 
	C2408.860840,1704.116333 2381.446533,1720.024048 2364.464600,1751.350586 
	C2347.698975,1782.277710 2346.017578,1815.374146 2353.491455,1849.210938 
	C2357.596436,1867.796509 2366.123779,1884.195068 2379.438721,1897.865601 
	C2396.542725,1915.426025 2417.376709,1925.010132 2441.779541,1928.266357 
	C2461.816406,1930.939819 2480.833008,1928.197632 2499.401123,1921.310913 
	C2510.276855,1917.277222 2510.087402,1916.766357 2519.193848,1925.685181 
M1443.833984,1799.220947 
	C1469.551025,1840.777222 1495.268066,1882.333618 1520.627319,1923.311646 
	C1537.569580,1923.311646 1553.412476,1923.311646 1569.620728,1923.311646 
	C1569.620728,1850.141724 1569.620728,1777.667603 1569.620728,1705.305664 
	C1558.953247,1703.247070 1532.083984,1703.531494 1524.174683,1705.880005 
	C1524.174683,1714.943115 1524.174683,1724.231812 1524.174683,1733.520630 
	C1524.174683,1743.185425 1524.174683,1752.850220 1524.174683,1762.515015 
	C1524.174683,1771.846558 1524.174683,1781.178101 1524.174683,1790.509644 
	C1524.174683,1800.174438 1524.340576,1809.843018 1524.126221,1819.503052 
	C1523.927856,1828.451050 1525.051880,1837.501221 1523.073608,1848.022583 
	C1492.596313,1799.092773 1463.064087,1751.680054 1433.359619,1703.990967 
	C1425.034668,1703.990967 1417.048828,1703.769775 1409.080811,1704.052490 
	C1400.938232,1704.341309 1392.637085,1702.779541 1384.752319,1705.078613 
	C1382.694336,1729.812134 1383.682129,1914.765015 1386.038208,1922.886841 
	C1400.285645,1922.886841 1414.723755,1922.886841 1430.189941,1922.886841 
	C1430.189941,1912.941406 1430.189941,1903.676147 1430.189941,1894.411011 
	C1430.189941,1884.746216 1430.189941,1875.081299 1430.189941,1865.416504 
	C1430.189941,1856.084961 1430.189941,1846.753418 1430.189941,1837.421875 
	C1430.189941,1827.757080 1430.018433,1818.088379 1430.240112,1808.428589 
	C1430.445679,1799.466187 1429.282715,1790.399658 1431.366943,1779.598022 
	C1435.968262,1786.822876 1439.521240,1792.401367 1443.833984,1799.220947 
M963.809814,2129.000000 
	C963.971008,2176.627441 964.131287,2224.254883 964.315430,2271.882324 
	C964.316467,2272.147461 964.630798,2272.430664 964.838745,2272.671143 
	C965.055420,2272.921631 965.320251,2273.130371 966.262512,2274.008057 
	C972.854187,2274.008057 980.151428,2274.036621 987.448364,2274.000244 
	C994.625916,2273.964355 1001.803162,2273.862793 1009.862549,2273.781250 
	C1009.862549,2260.772705 1009.862610,2249.169922 1009.862610,2237.567139 
	C1009.862610,2225.906250 1009.862610,2214.245361 1009.862610,2202.584473 
	C1009.862610,2190.923584 1009.839294,2179.262695 1009.869202,2167.601807 
	C1009.898193,2156.282471 1009.981873,2144.963135 1010.052856,2131.503662 
	C1012.984314,2135.432373 1014.512695,2137.194092 1015.726501,2139.150879 
	C1029.576294,2161.479004 1043.369019,2183.842529 1057.195801,2206.185303 
	C1069.445435,2225.979248 1081.966187,2245.611816 1093.834595,2265.631104 
	C1097.509888,2271.830322 1101.580200,2274.590576 1108.890503,2274.158936 
	C1119.182983,2273.551270 1129.538330,2274.058350 1139.865723,2273.966309 
	C1142.407227,2273.943848 1144.944580,2273.446533 1147.310303,2273.186523 
	C1149.408447,2256.493164 1148.574585,2062.130859 1146.243164,2054.532471 
	C1132.016357,2054.561523 1117.561401,2053.827881 1101.950684,2055.056396 
	C1101.950684,2102.930908 1101.950684,2149.536865 1101.950684,2198.324951 
	C1099.484009,2195.023193 1098.414795,2193.793457 1097.566406,2192.426514 
	C1081.611450,2166.723633 1065.690430,2140.999756 1049.746460,2115.290039 
	C1038.703491,2097.483398 1027.508301,2079.768799 1016.658447,2061.845215 
	C1013.396057,2056.456055 1009.673950,2053.791992 1003.000122,2054.235840 
	C993.380920,2054.876709 983.686890,2054.353271 974.025574,2054.426758 
	C970.840332,2054.450928 967.657471,2054.785645 963.809448,2055.018799 
	C963.809448,2079.754883 963.809448,2103.377441 963.809814,2129.000000 
M1653.753540,2141.877197 
	C1652.640625,2140.853027 1650.574951,2139.843750 1650.558838,2138.802490 
	C1650.343384,2124.916260 1650.414917,2111.025391 1650.414917,2095.948975 
	C1689.176758,2095.948975 1726.960693,2095.948975 1765.279175,2095.948975 
	C1765.279175,2081.916992 1765.279175,2069.091553 1765.279175,2055.372559 
	C1761.964600,2055.014648 1759.095703,2054.437988 1756.226318,2054.434814 
	C1707.237061,2054.379883 1658.247803,2054.376953 1609.258667,2054.445801 
	C1606.444458,2054.449951 1603.631470,2055.167236 1600.880127,2055.543945 
	C1600.880127,2128.811768 1600.880127,2200.952393 1600.880127,2273.274414 
	C1656.704956,2273.274414 1711.809082,2273.274414 1767.170776,2273.274414 
	C1767.170776,2259.711182 1767.170776,2246.893555 1767.170776,2232.410400 
	C1747.358643,2232.380859 1728.154785,2232.398193 1708.951660,2232.395264 
	C1689.742554,2232.392578 1670.533325,2232.394531 1651.617432,2232.394531 
	C1649.481323,2220.943115 1649.755493,2188.047363 1651.985107,2180.010742 
	C1669.053589,2180.010742 1686.341675,2180.052490 1703.629639,2179.998779 
	C1720.797241,2179.945312 1737.979126,2180.245361 1755.108643,2179.793945 
	C1755.108643,2166.516602 1755.108643,2154.699463 1755.108643,2141.971680 
	C1721.467285,2141.971680 1688.540527,2141.971680 1653.753540,2141.877197 
M1356.519531,2274.006592 
	C1358.717651,2273.684326 1360.915771,2273.362305 1363.124023,2273.038574 
	C1363.124023,2259.256348 1363.124023,2246.107910 1363.124023,2231.883789 
	C1323.947754,2231.883789 1285.456177,2231.883789 1246.158936,2231.883789 
	C1245.705322,2214.063965 1245.582642,2197.352783 1246.169678,2180.053467 
	C1282.037720,2179.925293 1316.526001,2180.102539 1351.163452,2179.947998 
	C1351.163452,2166.641602 1351.163452,2154.824951 1351.163452,2141.940430 
	C1316.023804,2141.940430 1281.529419,2141.940430 1246.005615,2141.940430 
	C1245.759155,2126.134277 1245.710571,2111.424561 1246.021851,2095.767578 
	C1284.673218,2095.767578 1321.861816,2095.767578 1359.490112,2095.767578 
	C1359.490112,2081.704590 1359.490112,2068.611816 1359.490112,2055.653320 
	C1347.496948,2053.498535 1204.640137,2053.991943 1197.492676,2056.084229 
	C1195.430176,2065.421875 1195.682983,2265.813721 1197.976074,2274.008789 
	C1250.049194,2274.008789 1302.335327,2274.008789 1356.519531,2274.006592 
M825.099121,2142.000000 
	C819.573303,2141.856201 814.047546,2141.712402 808.511902,2141.568359 
	C808.511902,2125.936035 808.511902,2111.456787 808.511902,2096.000000 
	C821.768372,2096.000000 834.350769,2096.000000 846.933105,2096.000000 
	C859.258545,2096.000000 871.583923,2096.013428 883.909363,2095.996094 
	C896.431213,2095.978271 908.953003,2095.930176 921.573853,2095.894775 
	C921.573853,2081.914307 921.573853,2069.405273 921.573853,2056.331543 
	C866.930847,2056.331543 812.897766,2056.331543 758.990784,2056.331543 
	C756.854553,2068.892578 757.408020,2266.166748 759.471008,2273.169434 
	C775.067200,2275.228760 916.916626,2274.397949 924.144958,2272.037354 
	C923.996277,2259.050293 924.595642,2245.886719 923.797302,2232.000000 
	C909.994812,2232.000000 897.385803,2232.000000 884.776794,2232.000000 
	C871.785156,2232.000000 858.793152,2232.060059 845.802002,2231.982910 
	C833.309448,2231.908691 820.786438,2232.352051 808.614746,2231.667236 
	C808.614746,2213.731445 808.614746,2197.252197 808.614746,2179.731445 
	C843.862366,2179.731445 878.335876,2179.731445 913.248169,2179.731445 
	C913.248169,2166.848145 913.248169,2155.039551 913.248169,2142.000000 
	C884.157104,2142.000000 855.617310,2142.000000 825.099121,2142.000000 
M2789.829346,1715.372070 
	C2789.605713,1712.497314 2789.382324,1709.622681 2789.161377,1706.784424 
	C2772.514648,1706.784424 2756.733887,1706.784424 2740.165283,1706.784424 
	C2740.165283,1711.186035 2740.165039,1714.798584 2740.165283,1718.411255 
	C2740.165771,1760.405884 2740.171631,1802.400635 2740.157471,1844.395264 
	C2740.156250,1847.725342 2740.211914,1851.073120 2739.909912,1854.382446 
	C2738.113037,1874.074707 2725.287354,1886.671631 2705.520508,1887.946777 
	C2699.555908,1888.331665 2693.520264,1888.375732 2687.561523,1887.950439 
	C2664.954590,1886.337036 2655.811523,1873.453003 2652.447510,1857.169922 
	C2651.649658,1853.307373 2651.857422,1849.206421 2651.854004,1845.214966 
	C2651.817627,1802.553711 2651.843262,1759.892456 2651.811035,1717.231201 
	C2651.808350,1713.705444 2651.508301,1710.179932 2651.316162,1705.990234 
	C2642.259766,1705.990234 2634.292969,1705.791016 2626.340332,1706.046631 
	C2618.510010,1706.298340 2610.534668,1704.796753 2602.170898,1707.372192 
	C2602.170898,1711.306641 2602.170654,1714.931641 2602.170654,1718.556519 
	C2602.170654,1758.551392 2602.084473,1798.546753 2602.244141,1838.541016 
	C2602.275879,1846.474121 2602.860596,1854.453613 2603.864258,1862.325928 
	C2607.879150,1893.812500 2624.892822,1915.099121 2655.241699,1924.569214 
	C2683.307617,1933.326538 2711.845459,1933.113647 2739.593750,1923.484985 
	C2761.734619,1915.802246 2778.075195,1900.956787 2784.321533,1877.517334 
	C2787.116943,1867.027588 2789.435303,1856.061279 2789.585205,1845.277954 
	C2790.179199,1802.625000 2789.829102,1759.958862 2789.829346,1715.372070 
M1921.715088,1887.925171 
	C1918.783081,1887.331909 1915.862671,1886.671265 1912.916992,1886.156616 
	C1899.236694,1883.766846 1889.559937,1876.412109 1885.944458,1862.800537 
	C1883.921265,1855.183838 1882.417236,1847.179077 1882.350464,1839.334961 
	C1882.000977,1798.368530 1882.187256,1757.397461 1882.187256,1716.428101 
	C1882.187256,1712.858643 1882.187378,1709.289185 1882.187378,1705.144043 
	C1865.610229,1705.144043 1850.193237,1705.144043 1833.812622,1705.144043 
	C1833.812622,1709.473022 1833.812744,1713.071411 1833.812744,1716.669800 
	C1833.812744,1758.971558 1833.690552,1801.273804 1833.917969,1843.574341 
	C1833.962280,1851.823608 1834.581787,1860.230347 1836.281982,1868.280273 
	C1841.843994,1894.613770 1856.920166,1913.398438 1882.659058,1922.383789 
	C1912.564453,1932.823730 1942.738525,1932.688232 1972.532837,1921.949097 
	C1990.047607,1915.635864 2003.242554,1904.236938 2011.708984,1887.067749 
	C2019.314819,1871.643433 2021.372437,1855.232056 2021.622070,1838.707764 
	C2022.240601,1797.747681 2021.834961,1756.771973 2021.804077,1715.802612 
	C2021.801636,1712.560913 2021.512695,1709.319336 2021.370850,1706.366943 
	C2012.472534,1703.709595 1980.322021,1703.722412 1971.787231,1706.373535 
	C1971.787231,1709.766846 1971.786621,1713.395874 1971.787231,1717.024780 
	C1971.793091,1758.993408 1971.885498,1800.962280 1971.711304,1842.930176 
	C1971.685303,1849.186401 1971.145264,1855.632812 1969.553223,1861.650024 
	C1966.232178,1874.202759 1957.799683,1882.559326 1945.215698,1885.629150 
	C1938.197510,1887.341187 1930.741211,1887.257812 1921.715088,1887.925171 
M1748.321167,1758.635986 
	C1741.590088,1740.621216 1734.859009,1722.606567 1728.065552,1704.425171 
	C1711.206421,1704.425171 1694.970825,1704.425171 1677.933960,1704.425171 
	C1650.183228,1777.242676 1622.416870,1850.101196 1594.251953,1924.005493 
	C1608.939453,1924.005493 1622.230591,1924.042114 1635.521362,1923.992432 
	C1644.303955,1923.959595 1644.274414,1923.893677 1647.298584,1915.346436 
	C1651.928589,1902.261108 1656.603394,1889.191650 1661.430542,1875.634155 
	C1687.215332,1875.634155 1712.489258,1875.643677 1737.763306,1875.623535 
	C1741.357910,1875.620605 1743.145508,1877.607178 1744.115479,1880.818481 
	C1745.077148,1884.002563 1746.184326,1887.144287 1747.282715,1890.285278 
	C1751.200684,1901.489868 1755.142090,1912.686279 1758.907104,1923.408936 
	C1776.206421,1923.408936 1792.329346,1923.408936 1809.610840,1923.408936 
	C1789.143188,1868.367798 1769.011841,1814.231201 1748.321167,1758.635986 
M1414.651855,2054.400146 
	C1408.652344,2054.399902 1402.643311,2054.187256 1396.656128,2054.459473 
	C1390.584351,2054.735596 1384.257812,2053.091797 1378.049194,2055.963867 
	C1378.509521,2057.821533 1378.743652,2059.095703 1379.139771,2060.317139 
	C1396.375244,2113.456055 1413.632812,2166.588135 1430.868164,2219.727051 
	C1436.102173,2235.864258 1441.292358,2252.015625 1446.475464,2268.169189 
	C1447.889160,2272.575195 1449.820312,2275.804688 1455.421143,2275.694336 
	C1469.413818,2275.417969 1483.415649,2275.574463 1497.413696,2275.610596 
	C1501.604492,2275.621582 1504.388550,2273.864014 1505.619629,2269.768799 
	C1506.290405,2267.537354 1507.074097,2265.339844 1507.806885,2263.127197 
	C1529.664917,2197.125732 1551.529419,2131.126709 1573.359619,2065.116211 
	C1574.362549,2062.083740 1575.060913,2058.950439 1575.834229,2056.110107 
	C1574.482178,2055.294678 1573.931030,2054.673828 1573.374390,2054.668945 
	C1559.380371,2054.545410 1545.384399,2054.582275 1531.392212,2054.363281 
	C1526.655151,2054.289307 1525.185547,2057.165283 1523.988159,2060.912109 
	C1513.968262,2092.266846 1503.909058,2123.609619 1493.814819,2154.940430 
	C1488.466431,2171.541016 1483.024536,2188.111328 1477.624756,2204.695312 
	C1472.453613,2194.005615 1469.133179,2183.280029 1465.718140,2172.584473 
	C1453.888428,2135.536133 1441.873901,2098.545410 1430.351929,2061.401611 
	C1428.766602,2056.291260 1426.769165,2053.910156 1421.528931,2054.380371 
	C1419.875854,2054.528809 1418.198120,2054.402100 1414.651855,2054.400146 
M2231.852295,1725.034180 
	C2231.852295,1718.779175 2231.852295,1712.524292 2231.852295,1706.661377 
	C2223.385010,1703.777344 2059.914307,1703.469238 2051.004395,1705.922363 
	C2051.004395,1719.401978 2051.004395,1732.841553 2051.004395,1747.660400 
	C2072.912598,1747.660400 2094.014893,1747.660400 2116.156738,1747.660400 
	C2116.156738,1778.275635 2116.143555,1807.491577 2116.160400,1836.707520 
	C2116.177002,1865.865112 2116.224365,1895.022705 2116.257812,1923.786743 
	C2127.270996,1926.498901 2157.599121,1926.187988 2165.847656,1923.313354 
	C2165.847656,1894.442871 2165.824219,1865.204834 2165.854004,1835.966797 
	C2165.883545,1806.811768 2165.721191,1777.652222 2165.963135,1747.634766 
	C2176.035156,1747.634766 2184.636475,1747.635864 2193.237549,1747.634644 
	C2203.558838,1747.633057 2213.883301,1747.781860 2224.200195,1747.571411 
	C2230.756592,1747.437866 2231.568848,1746.466797 2231.815430,1739.945190 
	C2231.978760,1735.622925 2231.850098,1731.289673 2231.852295,1725.034180 
M374.188843,1907.218140 
	C378.206512,1903.286865 382.541534,1899.628052 386.188965,1895.379028 
	C405.758667,1872.580688 412.526550,1845.071533 413.654083,1816.034180 
	C414.432495,1795.988159 410.545685,1776.368408 402.681946,1757.803833 
	C396.532684,1743.286865 388.063293,1730.292480 375.792511,1720.004150 
	C355.232452,1702.765869 331.540222,1695.729004 304.835663,1695.806885 
	C262.893311,1695.929199 223.064774,1720.408081 207.906189,1765.131958 
	C197.431152,1796.037354 197.251434,1827.194336 206.674393,1858.112915 
	C213.409851,1880.213135 225.902466,1898.864380 245.359909,1912.302124 
	C265.025055,1925.883423 286.837891,1930.546631 310.472504,1930.196167 
	C334.038849,1929.846802 354.748077,1922.711426 374.188843,1907.218140 
M15.592940,2276.004395 
	C38.585217,2276.010254 61.580021,2276.214111 84.568443,2275.919922 
	C93.169739,2275.809814 101.926155,2275.370117 110.319801,2273.652832 
	C145.278824,2266.501709 170.016876,2246.823975 181.363846,2212.397461 
	C191.423172,2181.877441 191.032410,2150.832520 182.890717,2119.988770 
	C177.102371,2098.060547 165.432465,2079.720215 145.933060,2067.287598 
	C130.131073,2057.212646 112.528580,2052.374023 93.914192,2052.081543 
	C68.595612,2051.683350 43.266064,2051.965088 17.941299,2052.007080 
	C15.703690,2052.010742 13.466708,2052.395996 10.656197,2052.657471 
	C10.471569,2056.437012 10.175792,2059.684570 10.174497,2062.932129 
	C10.147652,2130.242920 10.151671,2197.553467 10.163825,2264.864258 
	C10.164306,2267.524902 9.970785,2270.258301 10.527580,2272.813965 
	C10.790680,2274.021729 12.616583,2274.888672 15.592940,2276.004395 
M757.854797,1760.999512 
	C757.920593,1747.473511 757.986328,1733.947632 758.056030,1719.612793 
	C781.076355,1719.612793 802.687439,1719.612793 824.298523,1719.612793 
	C845.866699,1719.612793 867.434814,1719.612793 889.551758,1719.612793 
	C889.551758,1713.255005 889.551758,1708.153687 889.551758,1703.162720 
	C876.321106,1700.945801 745.583984,1701.571411 738.795288,1703.773193 
	C736.835999,1723.342041 737.295654,1917.338013 739.383423,1925.384277 
	C789.794495,1925.384277 840.266968,1925.384277 890.957520,1925.384277 
	C890.957520,1919.346191 890.957520,1913.962769 890.957520,1907.986206 
	C868.116821,1907.986206 846.147583,1908.009399 824.178406,1907.979614 
	C802.325378,1907.949829 780.466675,1908.114746 758.530396,1907.870728 
	C758.530396,1877.304565 758.530396,1848.161499 758.530396,1818.080566 
	C799.957336,1817.897827 840.737488,1818.136108 881.686646,1817.943481 
	C881.686646,1811.561768 881.686646,1806.673706 881.686646,1800.630005 
	C840.440613,1800.414795 799.673157,1800.202148 757.854553,1799.984009 
	C757.854553,1786.819092 757.854553,1774.909058 757.854797,1760.999512 
M313.000000,2051.985840 
	C284.695709,2052.125977 256.391418,2052.264648 228.087204,2052.427490 
	C227.812531,2052.428955 227.524277,2052.725098 227.270432,2052.920166 
	C227.007492,2053.122314 226.778702,2053.368896 226.464569,2053.661621 
	C226.464569,2127.384766 226.464569,2201.171631 226.464569,2274.844238 
	C239.316360,2276.992920 372.386414,2276.416748 379.032959,2274.360596 
	C379.032959,2269.454834 379.032959,2264.625977 379.032959,2258.726562 
	C333.884064,2257.656250 289.440460,2259.296631 244.135391,2257.701904 
	C244.707474,2227.399658 242.630386,2198.254150 246.725449,2167.977051 
	C287.670685,2167.977051 328.437164,2167.977051 369.449036,2167.977051 
	C369.449036,2161.603760 369.449036,2156.507812 369.449036,2150.387207 
	C358.468048,2150.387207 348.210754,2150.387207 337.953461,2150.387207 
	C327.959534,2150.387207 317.965637,2150.387207 307.971710,2150.387207 
	C297.644684,2150.387207 287.316925,2150.463135 276.990814,2150.365723 
	C266.833252,2150.270020 256.628601,2150.811523 245.805054,2149.914062 
	C246.213562,2122.458252 245.145264,2096.342773 246.484802,2069.251221 
	C290.817963,2069.251221 333.995087,2069.251221 377.471558,2069.251221 
	C377.471558,2063.112793 377.471558,2058.006836 377.471558,2051.986084 
	C356.174713,2051.986084 335.587341,2051.986084 313.000000,2051.985840 
M1201.000000,1818.007080 
	C1208.999146,1818.007080 1216.998413,1818.032471 1224.997437,1818.000122 
	C1233.189819,1817.966919 1241.381958,1817.877197 1249.646484,1817.811646 
	C1249.646484,1811.502808 1249.646484,1806.620239 1249.646484,1800.398071 
	C1228.569214,1800.398071 1208.005615,1800.520508 1187.444092,1800.363770 
	C1166.628418,1800.205078 1145.778198,1801.055664 1124.191162,1799.789551 
	C1124.191162,1795.338257 1124.058350,1792.051514 1124.216064,1788.778809 
	C1124.695068,1778.843018 1125.508789,1768.918457 1125.772827,1758.978516 
	C1126.047241,1748.653564 1125.774780,1738.314941 1125.872803,1727.983521 
	C1125.896851,1725.442139 1126.431274,1722.905396 1126.845581,1719.396973 
	C1170.638672,1719.396973 1213.824097,1719.396973 1257.534424,1719.396973 
	C1257.534424,1713.237793 1257.534424,1708.137207 1257.534424,1703.143555 
	C1245.481079,1701.173584 1113.796875,1701.609741 1106.475220,1703.569092 
	C1106.475220,1777.348145 1106.475220,1851.160156 1106.475220,1924.859253 
	C1118.367065,1926.807007 1252.254028,1926.385376 1259.707397,1924.418823 
	C1259.707397,1919.597778 1259.707397,1914.709717 1259.707397,1908.401611 
	C1248.035034,1908.401611 1236.807495,1908.401489 1225.579956,1908.401489 
	C1214.581055,1908.401489 1203.582031,1908.401489 1192.583130,1908.401489 
	C1181.250854,1908.401489 1169.918335,1908.462402 1158.586548,1908.384399 
	C1147.410034,1908.307495 1136.201904,1908.737671 1124.767090,1908.084839 
	C1124.767090,1877.550659 1124.767090,1848.385864 1124.767090,1818.007080 
	C1149.882446,1818.007080 1174.441162,1818.007080 1201.000000,1818.007080 
M565.110657,1717.450684 
	C592.087402,1725.692017 607.930237,1744.172607 613.739929,1771.474976 
	C620.049622,1771.474976 625.577393,1771.474976 631.566101,1771.474976 
	C631.566101,1768.693359 632.053284,1766.322998 631.488586,1764.237305 
	C627.175598,1748.306396 620.583862,1733.518188 608.683960,1721.658081 
	C590.691101,1703.725708 568.285767,1696.363525 543.547058,1696.210693 
	C500.556793,1695.945190 467.588928,1713.846191 448.003418,1752.860840 
	C436.141571,1776.489868 432.518127,1801.797363 435.421234,1828.322876 
	C437.631012,1848.513672 442.868896,1867.315552 453.455353,1884.699707 
	C476.260376,1922.147949 523.431396,1938.304077 562.611389,1928.419556 
	C598.650330,1919.327515 620.983521,1895.450317 631.535278,1860.312500 
	C633.862305,1852.563599 634.665161,1844.356934 636.380676,1835.241333 
	C628.987854,1835.241333 623.269836,1835.241333 617.350830,1835.241333 
	C616.902527,1837.147217 616.394958,1838.388550 616.346130,1839.647827 
	C615.336853,1865.651001 601.991150,1885.065430 582.279968,1900.175415 
	C566.621765,1912.178711 548.488281,1915.784546 528.595337,1912.523071 
	C506.403687,1908.884766 488.558777,1898.814087 475.211578,1880.864746 
	C463.640839,1865.304688 457.630402,1847.792847 455.451904,1828.416504 
	C452.611908,1803.156982 456.521210,1779.413330 468.558472,1757.238892 
	C478.552826,1738.827637 493.054443,1725.077759 513.483704,1718.462524 
	C530.029785,1713.104614 546.719360,1712.630005 565.110657,1717.450684 
M2310.185547,1781.000000 
	C2310.185547,1755.817261 2310.185547,1730.634644 2310.185547,1705.728149 
	C2297.354980,1703.550049 2269.373047,1703.987061 2262.534668,1706.199585 
	C2260.423828,1724.489502 2261.388428,1916.595459 2263.603760,1923.340454 
	C2278.813232,1923.340454 2293.992432,1923.340454 2310.185791,1923.340454 
	C2310.185791,1876.125732 2310.185791,1829.562866 2310.185547,1781.000000 
M989.798279,1916.686035 
	C990.032410,1919.551147 990.266541,1922.416260 990.506287,1925.350342 
	C997.187256,1925.350342 1002.999451,1925.350342 1009.878723,1925.350342 
	C1009.878723,1902.130249 1009.878723,1879.561890 1009.878723,1856.993652 
	C1009.878723,1834.009155 1009.861572,1811.024780 1009.883545,1788.040283 
	C1009.905090,1765.526245 1009.781616,1743.007935 1009.977417,1719.481445 
	C1035.934937,1719.481445 1060.447510,1719.481445 1085.565918,1719.481445 
	C1085.565918,1713.331909 1085.565918,1708.230469 1085.565918,1703.229736 
	C1074.265747,1701.168701 920.048645,1701.565186 912.669250,1703.628296 
	C912.512024,1704.846680 912.235657,1706.142944 912.193665,1707.446655 
	C911.809082,1719.375488 912.020630,1719.604004 924.214966,1719.619629 
	C942.535889,1719.643188 960.856934,1719.597656 979.177734,1719.652832 
	C982.383484,1719.662476 985.588196,1720.022705 989.797607,1720.283081 
	C989.797607,1785.662476 989.797607,1850.204346 989.798279,1916.686035 
M675.816467,1916.675659 
	C676.047302,1919.542847 676.278137,1922.410034 676.495300,1925.107666 
	C682.788879,1925.107666 688.211304,1925.107666 693.554443,1925.107666 
	C695.505066,1903.186401 694.617737,1710.082764 692.651367,1702.905151 
	C687.171204,1702.905151 681.749695,1702.905151 675.815735,1702.905151 
	C675.815735,1774.118774 675.815735,1844.429932 675.816467,1916.675659 
M1289.540771,2011.501343 
	C1285.343262,2005.544678 1280.304443,1999.999268 1277.144409,1993.535400 
	C1272.346924,1983.722290 1265.317993,1980.874146 1254.831299,1981.773438 
	C1243.829224,1982.717041 1232.683350,1981.984497 1219.661499,1981.984497 
	C1222.719727,1985.259033 1224.139038,1986.964478 1225.746338,1988.469482 
	C1236.625488,1998.657349 1247.620117,2008.723267 1258.427734,2018.986206 
	C1267.883301,2027.965088 1284.712769,2030.893433 1298.437256,2025.139648 
	C1295.632202,2020.932373 1292.918213,2016.861572 1289.540771,2011.501343 
M853.819031,1640.765991 
	C858.431274,1636.283447 862.605652,1631.492065 866.163696,1624.327148 
	C861.519531,1624.327148 858.239929,1624.672607 855.059204,1624.258423 
	C847.383545,1623.259155 841.922241,1626.101685 837.058411,1632.107910 
	C828.111145,1643.156616 818.448853,1653.623779 809.235413,1664.461670 
	C807.262756,1666.782227 805.932922,1669.649414 804.084900,1672.621704 
	C815.015869,1675.282715 823.076843,1673.578613 829.982178,1665.355957 
	C837.002075,1656.996704 845.157166,1649.590576 853.819031,1640.765991 
M1195.130371,1644.130005 
	C1187.829468,1653.627075 1178.550171,1661.595337 1172.253906,1672.401978 
	C1187.673584,1675.210327 1188.307373,1674.929810 1197.443604,1665.272217 
	C1202.911499,1659.492432 1208.794067,1654.103149 1214.222168,1648.288208 
	C1220.889893,1641.145386 1227.277832,1633.741577 1235.087036,1624.994019 
	C1230.061279,1624.698486 1226.855957,1624.799072 1223.757202,1624.272339 
	C1215.182495,1622.814941 1209.128540,1626.394165 1204.262573,1633.116943 
	C1201.751587,1636.586182 1198.780029,1639.721802 1195.130371,1644.130005 
z"/>
<path fill="#FEFEFE" opacity="1.000000" stroke="none" 
	d="
M3002.000000,757.124939 
	C2974.261719,764.939819 2946.531006,771.909729 2918.783936,778.814575 
	C2780.480225,813.231201 2642.177246,847.651489 2503.864014,882.029297 
	C2398.454834,908.228882 2293.023193,934.337524 2187.614990,960.541138 
	C2087.049561,985.540771 1986.508301,1010.636902 1885.944580,1035.643066 
	C1786.662720,1060.330322 1687.368164,1084.966553 1588.075439,1109.610107 
	C1486.845581,1134.734375 1385.609375,1159.833496 1284.379272,1184.956787 
	C1185.089844,1209.598389 1085.800781,1234.241333 986.518433,1258.911621 
	C886.272705,1283.821289 786.041443,1308.789429 685.791992,1333.684204 
	C635.843811,1346.087524 585.860046,1358.347534 535.908081,1370.735718 
	C434.032898,1396.001099 332.167084,1421.303833 230.300003,1446.601807 
	C181.921677,1458.616333 133.561981,1470.706055 85.168938,1482.660889 
	C61.641827,1488.472900 38.060066,1494.063965 14.493059,1499.713501 
	C12.899381,1500.095459 11.221431,1500.125854 8.300515,1500.471680 
	C8.300515,1001.326416 8.300515,502.590027 8.150257,2.926814 
	C12.083333,2.000000 16.166666,2.000000 20.607578,2.712703 
	C29.746542,6.021798 38.447849,8.937791 47.322632,11.161431 
	C95.944321,23.343948 144.609894,35.351246 193.257904,47.428825 
	C292.543488,72.077919 391.823700,96.748711 491.113190,121.382095 
	C592.334839,146.494843 693.568481,171.559570 794.790527,196.670929 
	C894.077942,221.302338 993.362732,245.943970 1092.638672,270.621643 
	C1192.885498,295.540741 1293.114868,320.530212 1393.361450,345.450653 
	C1492.639404,370.130280 1591.930664,394.756348 1691.213257,419.417542 
	C1742.164795,432.073547 1793.105225,444.774048 1844.059082,457.421021 
	C1943.022339,481.984192 2041.989380,506.531799 2140.958496,531.070923 
	C2242.515625,556.251648 2344.081055,581.398071 2445.635254,606.590088 
	C2544.925293,631.220398 2644.217529,655.843689 2743.487305,680.555542 
	C2825.020508,700.852112 2906.518311,721.291138 2988.049561,741.595215 
	C2992.616211,742.732300 2997.346191,743.213501 3002.000000,744.000000 
	C3002.000000,748.083313 3002.000000,752.166687 3002.000000,757.124939 
M519.393860,173.746750 
	C518.142517,173.305420 516.917603,172.758026 515.635986,172.438004 
	C456.798859,157.747025 397.969788,143.023575 339.108032,128.431900 
	C319.515717,123.574989 299.838165,119.061844 278.744843,113.748001 
	C278.120728,113.514908 277.512512,113.218277 276.870270,113.057724 
	C203.983215,94.836502 131.095810,76.616554 58.190723,58.467728 
	C56.468040,58.038887 54.545288,58.413761 52.117233,58.413761 
	C52.117233,61.424873 52.117237,63.731030 52.117237,66.037186 
	C52.117195,199.611679 52.112854,333.186188 52.144775,466.760681 
	C52.145489,469.737579 52.558903,472.714355 52.259533,477.540497 
	C52.259533,539.401550 52.259533,601.262634 52.259533,663.496399 
	C860.080750,663.496399 1666.748657,663.496399 2473.416504,663.496399 
	C2470.519775,661.635498 2467.442383,660.672852 2464.320801,659.887268 
	C2450.122803,656.314209 2435.910645,652.800110 2421.707275,649.248474 
	C2193.816895,592.261780 1965.933105,535.248108 1738.008179,478.399567 
	C1730.999512,476.651489 1723.564697,475.883789 1716.328247,475.881622 
	C1322.022461,475.763855 927.716614,475.778198 533.410767,475.764771 
	C529.081970,475.764618 524.753174,475.576904 520.492615,473.674744 
	C520.491394,465.692505 520.475464,457.710205 520.491455,449.727997 
	C520.576599,407.160278 520.669739,364.592529 522.526855,322.060364 
	C716.947937,322.060364 911.369080,322.060364 1105.790161,322.060364 
	C1102.647461,319.689240 1099.253540,318.732147 1095.834106,317.876221 
	C942.271851,279.438721 788.714844,240.980301 635.137939,202.601532 
	C597.080078,193.090912 558.956909,183.841949 519.393860,173.746750 
M1639.000000,1029.780884 
	C1661.996582,1029.780884 1684.995605,1029.971558 1707.988037,1029.664917 
	C1714.896851,1029.572876 1721.960938,1028.798706 1728.659058,1027.143921 
	C1791.646362,1011.581421 1854.564575,995.739136 1917.512817,980.017639 
	C2096.688477,935.268188 2275.869629,890.540283 2455.040527,845.771790 
	C2457.518799,845.152527 2459.892334,844.115540 2463.828125,842.747681 
	C1658.793701,842.747681 855.725708,842.747681 52.758682,842.747681 
	C52.758682,905.318237 52.758682,967.143372 52.758682,1029.780884 
	C581.260193,1029.780884 1109.130127,1029.780884 1639.000000,1029.780884 
M156.862885,1419.981323 
	C192.377640,1411.119629 227.897400,1402.277954 263.406372,1393.393066 
	C500.042603,1334.182983 736.677368,1274.966797 973.307739,1215.733521 
	C981.441650,1213.697632 989.525269,1211.461060 997.632324,1209.318115 
	C997.537781,1209.063232 997.443298,1208.808472 997.348755,1208.553711 
	C682.525879,1208.553711 367.703064,1208.553711 52.835938,1208.553711 
	C52.835938,1287.885986 52.835938,1366.581665 52.835938,1446.019043 
	C87.530739,1437.300293 121.384140,1428.792969 156.862885,1419.981323 
z"/>
<path fill="#000000" opacity="1.000000" stroke="none" 
	d="
M3002.000000,743.069946 
	C2997.346191,743.213501 2992.616211,742.732300 2988.049561,741.595215 
	C2906.518311,721.291138 2825.020508,700.852112 2743.487305,680.555542 
	C2644.217529,655.843689 2544.925293,631.220398 2445.635254,606.590088 
	C2344.081055,581.398071 2242.515625,556.251648 2140.958496,531.070923 
	C2041.989380,506.531799 1943.022339,481.984192 1844.059082,457.421021 
	C1793.105225,444.774048 1742.164795,432.073547 1691.213257,419.417542 
	C1591.930664,394.756348 1492.639404,370.130280 1393.361450,345.450653 
	C1293.114868,320.530212 1192.885498,295.540741 1092.638672,270.621643 
	C993.362732,245.943970 894.077942,221.302338 794.790527,196.670929 
	C693.568481,171.559570 592.334839,146.494843 491.113190,121.382095 
	C391.823700,96.748711 292.543488,72.077919 193.257904,47.428825 
	C144.609894,35.351246 95.944321,23.343948 47.322632,11.161431 
	C38.447849,8.937791 29.746542,6.021798 21.482578,2.712703 
	C1015.103577,2.000000 2008.207153,2.000000 3002.000000,2.000000 
	C3002.000000,248.712891 3002.000000,495.426422 3002.000000,743.069946 
z"/>
<path fill="#003F7E" opacity="1.000000" stroke="none" 
	d="
M594.937073,2280.000000 
	C594.520996,2276.554688 591.828003,2276.722656 589.694214,2275.870605 
	C579.227966,2271.692383 568.399963,2268.137451 558.521240,2262.832520 
	C540.866943,2253.352051 528.860413,2238.115234 521.114014,2219.975098 
	C502.980316,2177.510742 504.497498,2135.417480 528.007019,2095.574951 
	C544.626343,2067.409912 571.125916,2053.746094 603.534851,2049.696533 
	C627.777405,2046.667358 649.898682,2051.493652 670.443054,2063.571777 
	C693.703918,2077.247070 706.259460,2098.277344 709.721313,2126.206299 
	C694.291138,2128.960205 679.244263,2127.181396 664.152222,2127.345459 
	C661.954773,2122.610840 659.978699,2118.461670 658.093079,2114.271729 
	C649.800842,2095.846191 625.896118,2087.934814 608.481079,2091.028076 
	C582.457031,2095.649658 568.449341,2111.649170 561.986389,2135.799316 
	C555.414124,2160.357422 556.296570,2184.490723 567.642456,2207.674072 
	C575.851440,2224.447754 589.248840,2233.619385 607.825134,2236.720947 
	C616.764221,2238.213867 625.118652,2237.182617 633.382141,2235.258057 
	C653.051819,2230.677002 664.726501,2215.770264 667.256897,2192.965088 
	C659.681763,2190.199219 651.723755,2191.976318 643.968323,2191.662842 
	C636.391724,2191.356689 628.793091,2191.596191 620.514648,2191.596191 
	C620.514648,2178.750977 620.514648,2167.004639 620.514648,2154.621826 
	C650.840942,2154.621826 680.673096,2154.621826 710.484131,2154.621826 
	C712.616028,2161.773926 713.056885,2261.912598 710.917419,2273.406738 
	C701.212830,2273.406738 691.389587,2273.406738 681.076355,2273.406738 
	C679.777710,2266.495605 678.509338,2259.745605 677.066650,2252.068359 
	C675.001648,2253.284912 673.116333,2253.885986 671.965515,2255.154053 
	C662.784424,2265.269287 651.787842,2272.379150 638.601257,2276.109375 
	C637.503906,2276.419678 636.676636,2277.684814 635.861938,2279.252930 
	C622.624695,2280.000000 609.249451,2280.000000 594.937073,2280.000000 
z"/>
<path fill="#003F7E" opacity="1.000000" stroke="none" 
	d="
M3002.000000,1923.063232 
	C2947.772461,1924.000000 2893.545166,1924.000000 2839.546875,1924.000000 
	C2837.488281,1916.042236 2836.919678,1718.174438 2838.905029,1704.507324 
	C2865.518311,1704.257080 2892.374268,1704.430298 2919.225342,1704.401733 
	C2946.204102,1704.372925 2973.182617,1704.407593 3001.080566,1704.207153 
	C3002.000000,1718.041870 3002.000000,1732.083862 3001.079590,1746.861572 
	C2990.834717,1747.606934 2981.510010,1747.619995 2972.185303,1747.624634 
	C2962.527588,1747.629272 2952.869629,1747.625732 2943.211914,1747.625732 
	C2933.887207,1747.625732 2924.560303,1747.497314 2915.238525,1747.661499 
	C2905.770020,1747.828125 2896.212891,1746.896240 2886.856934,1748.290771 
	C2886.856934,1763.372559 2886.856934,1777.192749 2886.856934,1791.694336 
	C2922.210938,1792.671143 2956.970703,1791.196045 2991.550537,1792.500000 
	C2991.550537,1805.999023 2991.550537,1818.190308 2991.550537,1831.597900 
	C2982.378174,1831.597900 2973.810547,1831.597778 2965.242676,1831.597778 
	C2956.583984,1831.597778 2947.925293,1831.597778 2939.266602,1831.597778 
	C2930.274902,1831.597778 2921.273682,1831.339844 2912.294189,1831.672729 
	C2903.833740,1831.986206 2895.190186,1830.157715 2886.861328,1832.902100 
	C2886.861328,1849.653320 2886.861328,1865.811157 2886.861328,1882.889160 
	C2891.360840,1883.151001 2895.239990,1883.554321 2899.121094,1883.574707 
	C2933.413818,1883.755005 2967.707031,1883.867554 3002.000000,1884.000000 
	C3002.000000,1896.708862 3002.000000,1909.417603 3002.000000,1923.063232 
z"/>
<path fill="#003E7C" opacity="1.000000" stroke="none" 
	d="
M2.000000,1848.929321 
	C8.239581,1848.000000 14.479163,1848.000000 21.172640,1848.000000 
	C21.703268,1854.325317 21.798288,1859.619751 22.642899,1864.791748 
	C25.952547,1885.058594 38.281742,1898.465332 56.700397,1905.755615 
	C77.968903,1914.173950 100.259567,1915.066162 122.388924,1909.522461 
	C136.355255,1906.023682 148.474548,1898.729492 154.441254,1884.722778 
	C163.999084,1862.286011 157.132462,1840.061646 131.573853,1830.539429 
	C116.124832,1824.783569 99.462494,1822.353638 83.482498,1817.933472 
	C68.789894,1813.869385 53.838203,1810.228394 39.774391,1804.501099 
	C-2.110808,1787.443970 2.727646,1729.156128 33.886909,1710.571289 
	C49.495480,1701.261475 65.988007,1696.317505 83.980629,1696.082886 
	C106.744385,1695.785889 128.524994,1699.728638 147.132217,1713.796143 
	C165.192734,1727.450317 171.820984,1746.580078 172.191620,1769.333252 
	C165.486038,1769.333252 159.649384,1769.333252 153.354141,1769.333252 
	C153.008224,1768.252197 152.311401,1767.054810 152.282898,1765.841675 
	C151.611465,1737.291626 132.220871,1721.133911 108.833199,1716.052368 
	C94.352547,1712.906006 79.728157,1712.479126 65.343163,1716.131714 
	C48.029980,1720.527588 34.601650,1729.074341 29.600460,1748.181030 
	C24.702908,1766.891846 36.755642,1782.720703 51.342327,1789.380371 
	C66.276520,1796.198853 82.448273,1798.683594 98.359680,1802.085327 
	C116.224312,1805.904663 134.202423,1809.369507 150.543304,1818.282959 
	C171.637512,1829.789185 179.961365,1851.603638 177.074600,1873.899658 
	C173.341248,1902.734375 155.067490,1920.678467 121.919090,1927.642944 
	C92.694969,1933.782837 63.579185,1931.438232 36.728882,1916.374756 
	C22.941607,1908.640015 12.737388,1897.607422 7.197546,1882.536865 
	C6.330149,1880.177246 4.736734,1878.084473 2.739511,1875.934082 
	C2.000000,1867.286255 2.000000,1858.572388 2.000000,1848.929321 
z"/>
<path fill="#000102" opacity="1.000000" stroke="none" 
	d="
M3002.000000,1883.062744 
	C2967.707031,1883.867554 2933.413818,1883.755005 2899.121094,1883.574707 
	C2895.239990,1883.554321 2891.360840,1883.151001 2886.861328,1882.889160 
	C2886.861328,1865.811157 2886.861328,1849.653320 2886.861328,1832.902100 
	C2895.190186,1830.157715 2903.833740,1831.986206 2912.294189,1831.672729 
	C2921.273682,1831.339844 2930.274902,1831.597778 2939.266602,1831.597778 
	C2947.925293,1831.597778 2956.583984,1831.597778 2965.242676,1831.597778 
	C2973.810547,1831.597778 2982.378174,1831.597900 2991.550537,1831.597900 
	C2991.550537,1818.190308 2991.550537,1805.999023 2991.550537,1792.500000 
	C2956.970703,1791.196045 2922.210938,1792.671143 2886.856934,1791.694336 
	C2886.856934,1777.192749 2886.856934,1763.372559 2886.856934,1748.290771 
	C2896.212891,1746.896240 2905.770020,1747.828125 2915.238525,1747.661499 
	C2924.560303,1747.497314 2933.887207,1747.625732 2943.211914,1747.625732 
	C2952.869629,1747.625732 2962.527588,1747.629272 2972.185303,1747.624634 
	C2981.510010,1747.619995 2990.834717,1747.606934 3001.079590,1747.798828 
	C3002.000000,1792.708496 3002.000000,1837.416870 3002.000000,1883.062744 
z"/>
<path fill="#003F7E" opacity="1.000000" stroke="none" 
	d="
M2518.680176,1925.170776 
	C2510.087402,1916.766357 2510.276855,1917.277222 2499.401123,1921.310913 
	C2480.833008,1928.197632 2461.816406,1930.939819 2441.779541,1928.266357 
	C2417.376709,1925.010132 2396.542725,1915.426025 2379.438721,1897.865601 
	C2366.123779,1884.195068 2357.596436,1867.796509 2353.491455,1849.210938 
	C2346.017578,1815.374146 2347.698975,1782.277710 2364.464600,1751.350586 
	C2381.446533,1720.024048 2408.860840,1704.116333 2443.930176,1699.849854 
	C2466.455566,1697.109497 2487.558105,1700.926147 2507.711914,1710.723755 
	C2531.355469,1722.218018 2547.151123,1741.005249 2556.007568,1765.439941 
	C2568.782959,1800.686646 2567.816895,1835.860840 2553.273438,1870.425171 
	C2550.598633,1876.782104 2546.216064,1882.424805 2542.572998,1888.367310 
	C2541.208740,1890.592529 2539.704834,1892.732056 2537.837402,1895.556396 
	C2546.503662,1903.615845 2554.955322,1911.475708 2564.201416,1920.074219 
	C2556.469238,1928.252930 2549.037598,1936.113770 2540.899902,1944.721436 
	C2533.503418,1938.234741 2526.348633,1931.959961 2518.680176,1925.170776 
M2415.800781,1758.904663 
	C2412.854248,1763.316772 2409.101318,1767.392090 2407.094971,1772.196655 
	C2395.572754,1799.787598 2394.154541,1827.995239 2406.953613,1855.243408 
	C2419.917480,1882.842163 2441.443115,1891.173828 2473.751953,1884.335083 
	C2467.470459,1878.019897 2461.527832,1872.045410 2455.483643,1865.968872 
	C2463.397705,1857.350830 2470.500488,1849.616089 2477.824463,1841.640747 
	C2486.523682,1849.141479 2494.413086,1855.944092 2503.515137,1863.791992 
	C2506.789551,1856.321411 2509.995605,1850.504639 2511.937744,1844.292480 
	C2517.512939,1826.457275 2517.380127,1808.188232 2513.492188,1790.144287 
	C2510.377930,1775.690430 2504.447998,1762.251953 2492.686523,1752.432495 
	C2472.062256,1735.213623 2434.199463,1736.365601 2415.800781,1758.904663 
z"/>
<path fill="#003F7E" opacity="1.000000" stroke="none" 
	d="
M1443.454102,1798.600342 
	C1439.521240,1792.401367 1435.968262,1786.822876 1431.366943,1779.598022 
	C1429.282715,1790.399658 1430.445679,1799.466187 1430.240112,1808.428589 
	C1430.018433,1818.088379 1430.189941,1827.757080 1430.189941,1837.421875 
	C1430.189941,1846.753418 1430.189941,1856.084961 1430.189941,1865.416504 
	C1430.189941,1875.081299 1430.189941,1884.746216 1430.189941,1894.411011 
	C1430.189941,1903.676147 1430.189941,1912.941406 1430.189941,1922.886841 
	C1414.723755,1922.886841 1400.285645,1922.886841 1386.038208,1922.886841 
	C1383.682129,1914.765015 1382.694336,1729.812134 1384.752319,1705.078613 
	C1392.637085,1702.779541 1400.938232,1704.341309 1409.080811,1704.052490 
	C1417.048828,1703.769775 1425.034668,1703.990967 1433.359619,1703.990967 
	C1463.064087,1751.680054 1492.596313,1799.092773 1523.073608,1848.022583 
	C1525.051880,1837.501221 1523.927856,1828.451050 1524.126221,1819.503052 
	C1524.340576,1809.843018 1524.174683,1800.174438 1524.174683,1790.509644 
	C1524.174683,1781.178101 1524.174683,1771.846558 1524.174683,1762.515015 
	C1524.174683,1752.850220 1524.174683,1743.185425 1524.174683,1733.520630 
	C1524.174683,1724.231812 1524.174683,1714.943115 1524.174683,1705.880005 
	C1532.083984,1703.531494 1558.953247,1703.247070 1569.620728,1705.305664 
	C1569.620728,1777.667603 1569.620728,1850.141724 1569.620728,1923.311646 
	C1553.412476,1923.311646 1537.569580,1923.311646 1520.627319,1923.311646 
	C1495.268066,1882.333618 1469.551025,1840.777222 1443.454102,1798.600342 
z"/>
<path fill="#003F7E" opacity="1.000000" stroke="none" 
	d="
M963.809631,2128.000000 
	C963.809448,2103.377441 963.809448,2079.754883 963.809448,2055.018799 
	C967.657471,2054.785645 970.840332,2054.450928 974.025574,2054.426758 
	C983.686890,2054.353271 993.380920,2054.876709 1003.000122,2054.235840 
	C1009.673950,2053.791992 1013.396057,2056.456055 1016.658447,2061.845215 
	C1027.508301,2079.768799 1038.703491,2097.483398 1049.746460,2115.290039 
	C1065.690430,2140.999756 1081.611450,2166.723633 1097.566406,2192.426514 
	C1098.414795,2193.793457 1099.484009,2195.023193 1101.950684,2198.324951 
	C1101.950684,2149.536865 1101.950684,2102.930908 1101.950684,2055.056396 
	C1117.561401,2053.827881 1132.016357,2054.561523 1146.243164,2054.532471 
	C1148.574585,2062.130859 1149.408447,2256.493164 1147.310303,2273.186523 
	C1144.944580,2273.446533 1142.407227,2273.943848 1139.865723,2273.966309 
	C1129.538330,2274.058350 1119.182983,2273.551270 1108.890503,2274.158936 
	C1101.580200,2274.590576 1097.509888,2271.830322 1093.834595,2265.631104 
	C1081.966187,2245.611816 1069.445435,2225.979248 1057.195801,2206.185303 
	C1043.369019,2183.842529 1029.576294,2161.479004 1015.726501,2139.150879 
	C1014.512695,2137.194092 1012.984314,2135.432373 1010.052856,2131.503662 
	C1009.981873,2144.963135 1009.898193,2156.282471 1009.869202,2167.601807 
	C1009.839294,2179.262695 1009.862610,2190.923584 1009.862610,2202.584473 
	C1009.862610,2214.245361 1009.862610,2225.906250 1009.862610,2237.567139 
	C1009.862610,2249.169922 1009.862549,2260.772705 1009.862549,2273.781250 
	C1001.803162,2273.862793 994.625916,2273.964355 987.448364,2274.000244 
	C980.151428,2274.036621 972.854187,2274.008057 966.262512,2274.008057 
	C965.320251,2273.130371 965.055420,2272.921631 964.838745,2272.671143 
	C964.630798,2272.430664 964.316467,2272.147461 964.315430,2271.882324 
	C964.131287,2224.254883 963.971008,2176.627441 963.809631,2128.000000 
z"/>
<path fill="#003F7E" opacity="1.000000" stroke="none" 
	d="
M1654.683594,2141.924316 
	C1688.540527,2141.971680 1721.467285,2141.971680 1755.108643,2141.971680 
	C1755.108643,2154.699463 1755.108643,2166.516602 1755.108643,2179.793945 
	C1737.979126,2180.245361 1720.797241,2179.945312 1703.629639,2179.998779 
	C1686.341675,2180.052490 1669.053589,2180.010742 1651.985107,2180.010742 
	C1649.755493,2188.047363 1649.481323,2220.943115 1651.617432,2232.394531 
	C1670.533325,2232.394531 1689.742554,2232.392578 1708.951660,2232.395264 
	C1728.154785,2232.398193 1747.358643,2232.380859 1767.170776,2232.410400 
	C1767.170776,2246.893555 1767.170776,2259.711182 1767.170776,2273.274414 
	C1711.809082,2273.274414 1656.704956,2273.274414 1600.880127,2273.274414 
	C1600.880127,2200.952393 1600.880127,2128.811768 1600.880127,2055.543945 
	C1603.631470,2055.167236 1606.444458,2054.449951 1609.258667,2054.445801 
	C1658.247803,2054.376953 1707.237061,2054.379883 1756.226318,2054.434814 
	C1759.095703,2054.437988 1761.964600,2055.014648 1765.279175,2055.372559 
	C1765.279175,2069.091553 1765.279175,2081.916992 1765.279175,2095.948975 
	C1726.960693,2095.948975 1689.176758,2095.948975 1650.414917,2095.948975 
	C1650.414917,2111.025391 1650.343384,2124.916260 1650.558838,2138.802490 
	C1650.574951,2139.843750 1652.640625,2140.853027 1654.683594,2141.924316 
z"/>
<path fill="#003F7E" opacity="1.000000" stroke="none" 
	d="
M1355.570435,2274.007812 
	C1302.335327,2274.008789 1250.049194,2274.008789 1197.976074,2274.008789 
	C1195.682983,2265.813721 1195.430176,2065.421875 1197.492676,2056.084229 
	C1204.640137,2053.991943 1347.496948,2053.498535 1359.490112,2055.653320 
	C1359.490112,2068.611816 1359.490112,2081.704590 1359.490112,2095.767578 
	C1321.861816,2095.767578 1284.673218,2095.767578 1246.021851,2095.767578 
	C1245.710571,2111.424561 1245.759155,2126.134277 1246.005615,2141.940430 
	C1281.529419,2141.940430 1316.023804,2141.940430 1351.163452,2141.940430 
	C1351.163452,2154.824951 1351.163452,2166.641602 1351.163452,2179.947998 
	C1316.526001,2180.102539 1282.037720,2179.925293 1246.169678,2180.053467 
	C1245.582642,2197.352783 1245.705322,2214.063965 1246.158936,2231.883789 
	C1285.456177,2231.883789 1323.947754,2231.883789 1363.124023,2231.883789 
	C1363.124023,2246.107910 1363.124023,2259.256348 1363.124023,2273.038574 
	C1360.915771,2273.362305 1358.717651,2273.684326 1355.570435,2274.007812 
z"/>
<path fill="#004080" opacity="1.000000" stroke="none" 
	d="
M826.088318,2142.000000 
	C855.617310,2142.000000 884.157104,2142.000000 913.248169,2142.000000 
	C913.248169,2155.039551 913.248169,2166.848145 913.248169,2179.731445 
	C878.335876,2179.731445 843.862366,2179.731445 808.614746,2179.731445 
	C808.614746,2197.252197 808.614746,2213.731445 808.614746,2231.667236 
	C820.786438,2232.352051 833.309448,2231.908691 845.802002,2231.982910 
	C858.793152,2232.060059 871.785156,2232.000000 884.776794,2232.000000 
	C897.385803,2232.000000 909.994812,2232.000000 923.797302,2232.000000 
	C924.595642,2245.886719 923.996277,2259.050293 924.144958,2272.037354 
	C916.916626,2274.397949 775.067200,2275.228760 759.471008,2273.169434 
	C757.408020,2266.166748 756.854553,2068.892578 758.990784,2056.331543 
	C812.897766,2056.331543 866.930847,2056.331543 921.573853,2056.331543 
	C921.573853,2069.405273 921.573853,2081.914307 921.573853,2095.894775 
	C908.953003,2095.930176 896.431213,2095.978271 883.909363,2095.996094 
	C871.583923,2096.013428 859.258545,2096.000000 846.933105,2096.000000 
	C834.350769,2096.000000 821.768372,2096.000000 808.511902,2096.000000 
	C808.511902,2111.456787 808.511902,2125.936035 808.511902,2141.568359 
	C814.047546,2141.712402 819.573303,2141.856201 826.088318,2142.000000 
z"/>
<path fill="#003F7E" opacity="1.000000" stroke="none" 
	d="
M2789.829102,1716.334839 
	C2789.829102,1759.958862 2790.179199,1802.625000 2789.585205,1845.277954 
	C2789.435303,1856.061279 2787.116943,1867.027588 2784.321533,1877.517334 
	C2778.075195,1900.956787 2761.734619,1915.802246 2739.593750,1923.484985 
	C2711.845459,1933.113647 2683.307617,1933.326538 2655.241699,1924.569214 
	C2624.892822,1915.099121 2607.879150,1893.812500 2603.864258,1862.325928 
	C2602.860596,1854.453613 2602.275879,1846.474121 2602.244141,1838.541016 
	C2602.084473,1798.546753 2602.170654,1758.551392 2602.170654,1718.556519 
	C2602.170654,1714.931641 2602.170898,1711.306641 2602.170898,1707.372192 
	C2610.534668,1704.796753 2618.510010,1706.298340 2626.340332,1706.046631 
	C2634.292969,1705.791016 2642.259766,1705.990234 2651.316162,1705.990234 
	C2651.508301,1710.179932 2651.808350,1713.705444 2651.811035,1717.231201 
	C2651.843262,1759.892456 2651.817627,1802.553711 2651.854004,1845.214966 
	C2651.857422,1849.206421 2651.649658,1853.307373 2652.447510,1857.169922 
	C2655.811523,1873.453003 2664.954590,1886.337036 2687.561523,1887.950439 
	C2693.520264,1888.375732 2699.555908,1888.331665 2705.520508,1887.946777 
	C2725.287354,1886.671631 2738.113037,1874.074707 2739.909912,1854.382446 
	C2740.211914,1851.073120 2740.156250,1847.725342 2740.157471,1844.395264 
	C2740.171631,1802.400635 2740.165771,1760.405884 2740.165283,1718.411255 
	C2740.165039,1714.798584 2740.165283,1711.186035 2740.165283,1706.784424 
	C2756.733887,1706.784424 2772.514648,1706.784424 2789.161377,1706.784424 
	C2789.382324,1709.622681 2789.605713,1712.497314 2789.829102,1716.334839 
z"/>
<path fill="#003F7F" opacity="1.000000" stroke="none" 
	d="
M1922.598755,1887.954346 
	C1930.741211,1887.257812 1938.197510,1887.341187 1945.215698,1885.629150 
	C1957.799683,1882.559326 1966.232178,1874.202759 1969.553223,1861.650024 
	C1971.145264,1855.632812 1971.685303,1849.186401 1971.711304,1842.930176 
	C1971.885498,1800.962280 1971.793091,1758.993408 1971.787231,1717.024780 
	C1971.786621,1713.395874 1971.787231,1709.766846 1971.787231,1706.373535 
	C1980.322021,1703.722412 2012.472534,1703.709595 2021.370850,1706.366943 
	C2021.512695,1709.319336 2021.801636,1712.560913 2021.804077,1715.802612 
	C2021.834961,1756.771973 2022.240601,1797.747681 2021.622070,1838.707764 
	C2021.372437,1855.232056 2019.314819,1871.643433 2011.708984,1887.067749 
	C2003.242554,1904.236938 1990.047607,1915.635864 1972.532837,1921.949097 
	C1942.738525,1932.688232 1912.564453,1932.823730 1882.659058,1922.383789 
	C1856.920166,1913.398438 1841.843994,1894.613770 1836.281982,1868.280273 
	C1834.581787,1860.230347 1833.962280,1851.823608 1833.917969,1843.574341 
	C1833.690552,1801.273804 1833.812744,1758.971558 1833.812744,1716.669800 
	C1833.812744,1713.071411 1833.812622,1709.473022 1833.812622,1705.144043 
	C1850.193237,1705.144043 1865.610229,1705.144043 1882.187378,1705.144043 
	C1882.187378,1709.289185 1882.187256,1712.858643 1882.187256,1716.428101 
	C1882.187256,1757.397461 1882.000977,1798.368530 1882.350464,1839.334961 
	C1882.417236,1847.179077 1883.921265,1855.183838 1885.944458,1862.800537 
	C1889.559937,1876.412109 1899.236694,1883.766846 1912.916992,1886.156616 
	C1915.862671,1886.671265 1918.783081,1887.331909 1922.598755,1887.954346 
z"/>
<path fill="#003F7F" opacity="1.000000" stroke="none" 
	d="
M1748.600830,1759.365234 
	C1769.011841,1814.231201 1789.143188,1868.367798 1809.610840,1923.408936 
	C1792.329346,1923.408936 1776.206421,1923.408936 1758.907104,1923.408936 
	C1755.142090,1912.686279 1751.200684,1901.489868 1747.282715,1890.285278 
	C1746.184326,1887.144287 1745.077148,1884.002563 1744.115479,1880.818481 
	C1743.145508,1877.607178 1741.357910,1875.620605 1737.763306,1875.623535 
	C1712.489258,1875.643677 1687.215332,1875.634155 1661.430542,1875.634155 
	C1656.603394,1889.191650 1651.928589,1902.261108 1647.298584,1915.346436 
	C1644.274414,1923.893677 1644.303955,1923.959595 1635.521362,1923.992432 
	C1622.230591,1924.042114 1608.939453,1924.005493 1594.251953,1924.005493 
	C1622.416870,1850.101196 1650.183228,1777.242676 1677.933960,1704.425171 
	C1694.970825,1704.425171 1711.206421,1704.425171 1728.065552,1704.425171 
	C1734.859009,1722.606567 1741.590088,1740.621216 1748.600830,1759.365234 
M1728.058228,1836.978882 
	C1727.895264,1835.332031 1728.039795,1833.581299 1727.522949,1832.054199 
	C1720.071777,1810.037964 1712.542236,1788.048462 1704.983032,1766.069092 
	C1704.595703,1764.942993 1703.771851,1763.967163 1703.010498,1762.684448 
	C1695.735596,1775.035278 1676.534912,1830.803467 1676.841064,1839.635742 
	C1681.338013,1839.635742 1685.931641,1839.738770 1690.519165,1839.615845 
	C1702.757568,1839.288208 1714.993652,1838.863403 1728.058228,1836.978882 
z"/>
<path fill="#003F7E" opacity="1.000000" stroke="none" 
	d="
M1415.591797,2054.400635 
	C1418.198120,2054.402100 1419.875854,2054.528809 1421.528931,2054.380371 
	C1426.769165,2053.910156 1428.766602,2056.291260 1430.351929,2061.401611 
	C1441.873901,2098.545410 1453.888428,2135.536133 1465.718140,2172.584473 
	C1469.133179,2183.280029 1472.453613,2194.005615 1477.624756,2204.695312 
	C1483.024536,2188.111328 1488.466431,2171.541016 1493.814819,2154.940430 
	C1503.909058,2123.609619 1513.968262,2092.266846 1523.988159,2060.912109 
	C1525.185547,2057.165283 1526.655151,2054.289307 1531.392212,2054.363281 
	C1545.384399,2054.582275 1559.380371,2054.545410 1573.374390,2054.668945 
	C1573.931030,2054.673828 1574.482178,2055.294678 1575.834229,2056.110107 
	C1575.060913,2058.950439 1574.362549,2062.083740 1573.359619,2065.116211 
	C1551.529419,2131.126709 1529.664917,2197.125732 1507.806885,2263.127197 
	C1507.074097,2265.339844 1506.290405,2267.537354 1505.619629,2269.768799 
	C1504.388550,2273.864014 1501.604492,2275.621582 1497.413696,2275.610596 
	C1483.415649,2275.574463 1469.413818,2275.417969 1455.421143,2275.694336 
	C1449.820312,2275.804688 1447.889160,2272.575195 1446.475464,2268.169189 
	C1441.292358,2252.015625 1436.102173,2235.864258 1430.868164,2219.727051 
	C1413.632812,2166.588135 1396.375244,2113.456055 1379.139771,2060.317139 
	C1378.743652,2059.095703 1378.509521,2057.821533 1378.049194,2055.963867 
	C1384.257812,2053.091797 1390.584351,2054.735596 1396.656128,2054.459473 
	C1402.643311,2054.187256 1408.652344,2054.399902 1415.591797,2054.400635 
z"/>
<path fill="#003E7C" opacity="1.000000" stroke="none" 
	d="
M2231.852051,1725.997803 
	C2231.850098,1731.289673 2231.978760,1735.622925 2231.815430,1739.945190 
	C2231.568848,1746.466797 2230.756592,1747.437866 2224.200195,1747.571411 
	C2213.883301,1747.781860 2203.558838,1747.633057 2193.237549,1747.634644 
	C2184.636475,1747.635864 2176.035156,1747.634766 2165.963135,1747.634766 
	C2165.721191,1777.652222 2165.883545,1806.811768 2165.854004,1835.966797 
	C2165.824219,1865.204834 2165.847656,1894.442871 2165.847656,1923.313354 
	C2157.599121,1926.187988 2127.270996,1926.498901 2116.257812,1923.786743 
	C2116.224365,1895.022705 2116.177002,1865.865112 2116.160400,1836.707520 
	C2116.143555,1807.491577 2116.156738,1778.275635 2116.156738,1747.660400 
	C2094.014893,1747.660400 2072.912598,1747.660400 2051.004395,1747.660400 
	C2051.004395,1732.841553 2051.004395,1719.401978 2051.004395,1705.922363 
	C2059.914307,1703.469238 2223.385010,1703.777344 2231.852295,1706.661377 
	C2231.852295,1712.524292 2231.852295,1718.779175 2231.852051,1725.997803 
z"/>
<path fill="#003E7C" opacity="1.000000" stroke="none" 
	d="
M373.614807,1907.651611 
	C354.748077,1922.711426 334.038849,1929.846802 310.472504,1930.196167 
	C286.837891,1930.546631 265.025055,1925.883423 245.359909,1912.302124 
	C225.902466,1898.864380 213.409851,1880.213135 206.674393,1858.112915 
	C197.251434,1827.194336 197.431152,1796.037354 207.906189,1765.131958 
	C223.064774,1720.408081 262.893311,1695.929199 304.835663,1695.806885 
	C331.540222,1695.729004 355.232452,1702.765869 375.792511,1720.004150 
	C388.063293,1730.292480 396.532684,1743.286865 402.681946,1757.803833 
	C410.545685,1776.368408 414.432495,1795.988159 413.654083,1816.034180 
	C412.526550,1845.071533 405.758667,1872.580688 386.188965,1895.379028 
	C382.541534,1899.628052 378.206512,1903.286865 373.614807,1907.651611 
M267.434357,1903.853638 
	C280.443329,1910.666626 294.343536,1912.208618 308.904053,1912.588257 
	C342.319336,1913.459961 371.165497,1892.393799 384.078308,1862.804810 
	C397.582214,1831.861450 398.131531,1800.223633 385.968170,1768.718750 
	C373.858307,1737.352539 345.456116,1714.328613 309.006561,1713.603027 
	C270.837219,1712.843262 239.522049,1735.811157 226.777023,1769.998779 
	C220.723831,1786.235840 219.219070,1802.904419 219.825470,1819.991211 
	C221.090149,1855.626099 235.076874,1884.132202 267.434357,1903.853638 
z"/>
<path fill="#003E7B" opacity="1.000000" stroke="none" 
	d="
M14.663651,2275.957275 
	C12.616583,2274.888672 10.790680,2274.021729 10.527580,2272.813965 
	C9.970785,2270.258301 10.164306,2267.524902 10.163825,2264.864258 
	C10.151671,2197.553467 10.147652,2130.242920 10.174497,2062.932129 
	C10.175792,2059.684570 10.471569,2056.437012 10.656197,2052.657471 
	C13.466708,2052.395996 15.703690,2052.010742 17.941299,2052.007080 
	C43.266064,2051.965088 68.595612,2051.683350 93.914192,2052.081543 
	C112.528580,2052.374023 130.131073,2057.212646 145.933060,2067.287598 
	C165.432465,2079.720215 177.102371,2098.060547 182.890717,2119.988770 
	C191.032410,2150.832520 191.423172,2181.877441 181.363846,2212.397461 
	C170.016876,2246.823975 145.278824,2266.501709 110.319801,2273.652832 
	C101.926155,2275.370117 93.169739,2275.809814 84.568443,2275.919922 
	C61.580021,2276.214111 38.585217,2276.010254 14.663651,2275.957275 
M116.046707,2253.676758 
	C144.305588,2243.392090 159.559799,2222.341553 166.132996,2193.806396 
	C171.232681,2171.668213 170.542679,2149.618408 165.418213,2127.727051 
	C162.363358,2114.677246 156.907471,2102.599609 147.540741,2092.512939 
	C132.714615,2076.547363 113.666916,2070.606201 92.829216,2069.810303 
	C74.196945,2069.098389 55.516403,2069.604492 36.857716,2069.691895 
	C34.691154,2069.702148 32.528149,2070.470459 30.540611,2070.853271 
	C30.540611,2133.373779 30.540611,2195.184570 30.540611,2257.975098 
	C34.480087,2257.975098 37.735825,2257.975342 40.991558,2257.975342 
	C54.986004,2257.975342 68.987991,2257.692871 82.972458,2258.066650 
	C93.744095,2258.354248 104.165543,2256.851074 116.046707,2253.676758 
z"/>
<path fill="#003E7D" opacity="1.000000" stroke="none" 
	d="
M757.854675,1761.999268 
	C757.854553,1774.909058 757.854553,1786.819092 757.854553,1799.984009 
	C799.673157,1800.202148 840.440613,1800.414795 881.686646,1800.630005 
	C881.686646,1806.673706 881.686646,1811.561768 881.686646,1817.943481 
	C840.737488,1818.136108 799.957336,1817.897827 758.530396,1818.080566 
	C758.530396,1848.161499 758.530396,1877.304565 758.530396,1907.870728 
	C780.466675,1908.114746 802.325378,1907.949829 824.178406,1907.979614 
	C846.147583,1908.009399 868.116821,1907.986206 890.957520,1907.986206 
	C890.957520,1913.962769 890.957520,1919.346191 890.957520,1925.384277 
	C840.266968,1925.384277 789.794495,1925.384277 739.383423,1925.384277 
	C737.295654,1917.338013 736.835999,1723.342041 738.795288,1703.773193 
	C745.583984,1701.571411 876.321106,1700.945801 889.551758,1703.162720 
	C889.551758,1708.153687 889.551758,1713.255005 889.551758,1719.612793 
	C867.434814,1719.612793 845.866699,1719.612793 824.298523,1719.612793 
	C802.687439,1719.612793 781.076355,1719.612793 758.056030,1719.612793 
	C757.986328,1733.947632 757.920593,1747.473511 757.854675,1761.999268 
z"/>
<path fill="#003E7D" opacity="1.000000" stroke="none" 
	d="
M314.000000,2051.985840 
	C335.587341,2051.986084 356.174713,2051.986084 377.471558,2051.986084 
	C377.471558,2058.006836 377.471558,2063.112793 377.471558,2069.251221 
	C333.995087,2069.251221 290.817963,2069.251221 246.484802,2069.251221 
	C245.145264,2096.342773 246.213562,2122.458252 245.805054,2149.914062 
	C256.628601,2150.811523 266.833252,2150.270020 276.990814,2150.365723 
	C287.316925,2150.463135 297.644684,2150.387207 307.971710,2150.387207 
	C317.965637,2150.387207 327.959534,2150.387207 337.953461,2150.387207 
	C348.210754,2150.387207 358.468048,2150.387207 369.449036,2150.387207 
	C369.449036,2156.507812 369.449036,2161.603760 369.449036,2167.977051 
	C328.437164,2167.977051 287.670685,2167.977051 246.725449,2167.977051 
	C242.630386,2198.254150 244.707474,2227.399658 244.135391,2257.701904 
	C289.440460,2259.296631 333.884064,2257.656250 379.032959,2258.726562 
	C379.032959,2264.625977 379.032959,2269.454834 379.032959,2274.360596 
	C372.386414,2276.416748 239.316360,2276.992920 226.464569,2274.844238 
	C226.464569,2201.171631 226.464569,2127.384766 226.464569,2053.661621 
	C226.778702,2053.368896 227.007492,2053.122314 227.270432,2052.920166 
	C227.524277,2052.725098 227.812531,2052.428955 228.087204,2052.427490 
	C256.391418,2052.264648 284.695709,2052.125977 314.000000,2051.985840 
z"/>
<path fill="#003F7E" opacity="1.000000" stroke="none" 
	d="
M1200.000000,1818.007080 
	C1174.441162,1818.007080 1149.882446,1818.007080 1124.767090,1818.007080 
	C1124.767090,1848.385864 1124.767090,1877.550659 1124.767090,1908.084839 
	C1136.201904,1908.737671 1147.410034,1908.307495 1158.586548,1908.384399 
	C1169.918335,1908.462402 1181.250854,1908.401489 1192.583130,1908.401489 
	C1203.582031,1908.401489 1214.581055,1908.401489 1225.579956,1908.401489 
	C1236.807495,1908.401489 1248.035034,1908.401611 1259.707397,1908.401611 
	C1259.707397,1914.709717 1259.707397,1919.597778 1259.707397,1924.418823 
	C1252.254028,1926.385376 1118.367065,1926.807007 1106.475220,1924.859253 
	C1106.475220,1851.160156 1106.475220,1777.348145 1106.475220,1703.569092 
	C1113.796875,1701.609741 1245.481079,1701.173584 1257.534424,1703.143555 
	C1257.534424,1708.137207 1257.534424,1713.237793 1257.534424,1719.396973 
	C1213.824097,1719.396973 1170.638672,1719.396973 1126.845581,1719.396973 
	C1126.431274,1722.905396 1125.896851,1725.442139 1125.872803,1727.983521 
	C1125.774780,1738.314941 1126.047241,1748.653564 1125.772827,1758.978516 
	C1125.508789,1768.918457 1124.695068,1778.843018 1124.216064,1788.778809 
	C1124.058350,1792.051514 1124.191162,1795.338257 1124.191162,1799.789551 
	C1145.778198,1801.055664 1166.628418,1800.205078 1187.444092,1800.363770 
	C1208.005615,1800.520508 1228.569214,1800.398071 1249.646484,1800.398071 
	C1249.646484,1806.620239 1249.646484,1811.502808 1249.646484,1817.811646 
	C1241.381958,1817.877197 1233.189819,1817.966919 1224.997437,1818.000122 
	C1216.998413,1818.032471 1208.999146,1818.007080 1200.000000,1818.007080 
z"/>
<path fill="#003E7C" opacity="1.000000" stroke="none" 
	d="
M564.338257,1717.155273 
	C546.719360,1712.630005 530.029785,1713.104614 513.483704,1718.462524 
	C493.054443,1725.077759 478.552826,1738.827637 468.558472,1757.238892 
	C456.521210,1779.413330 452.611908,1803.156982 455.451904,1828.416504 
	C457.630402,1847.792847 463.640839,1865.304688 475.211578,1880.864746 
	C488.558777,1898.814087 506.403687,1908.884766 528.595337,1912.523071 
	C548.488281,1915.784546 566.621765,1912.178711 582.279968,1900.175415 
	C601.991150,1885.065430 615.336853,1865.651001 616.346130,1839.647827 
	C616.394958,1838.388550 616.902527,1837.147217 617.350830,1835.241333 
	C623.269836,1835.241333 628.987854,1835.241333 636.380676,1835.241333 
	C634.665161,1844.356934 633.862305,1852.563599 631.535278,1860.312500 
	C620.983521,1895.450317 598.650330,1919.327515 562.611389,1928.419556 
	C523.431396,1938.304077 476.260376,1922.147949 453.455353,1884.699707 
	C442.868896,1867.315552 437.631012,1848.513672 435.421234,1828.322876 
	C432.518127,1801.797363 436.141571,1776.489868 448.003418,1752.860840 
	C467.588928,1713.846191 500.556793,1695.945190 543.547058,1696.210693 
	C568.285767,1696.363525 590.691101,1703.725708 608.683960,1721.658081 
	C620.583862,1733.518188 627.175598,1748.306396 631.488586,1764.237305 
	C632.053284,1766.322998 631.566101,1768.693359 631.566101,1771.474976 
	C625.577393,1771.474976 620.049622,1771.474976 613.739929,1771.474976 
	C607.930237,1744.172607 592.087402,1725.692017 564.338257,1717.155273 
z"/>
<path fill="#00407F" opacity="1.000000" stroke="none" 
	d="
M2310.185547,1782.000000 
	C2310.185791,1829.562866 2310.185791,1876.125732 2310.185791,1923.340454 
	C2293.992432,1923.340454 2278.813232,1923.340454 2263.603760,1923.340454 
	C2261.388428,1916.595459 2260.423828,1724.489502 2262.534668,1706.199585 
	C2269.373047,1703.987061 2297.354980,1703.550049 2310.185547,1705.728149 
	C2310.185547,1730.634644 2310.185547,1755.817261 2310.185547,1782.000000 
z"/>
<path fill="#003E7C" opacity="1.000000" stroke="none" 
	d="
M989.797974,1915.716187 
	C989.797607,1850.204346 989.797607,1785.662476 989.797607,1720.283081 
	C985.588196,1720.022705 982.383484,1719.662476 979.177734,1719.652832 
	C960.856934,1719.597656 942.535889,1719.643188 924.214966,1719.619629 
	C912.020630,1719.604004 911.809082,1719.375488 912.193665,1707.446655 
	C912.235657,1706.142944 912.512024,1704.846680 912.669250,1703.628296 
	C920.048645,1701.565186 1074.265747,1701.168701 1085.565918,1703.229736 
	C1085.565918,1708.230469 1085.565918,1713.331909 1085.565918,1719.481445 
	C1060.447510,1719.481445 1035.934937,1719.481445 1009.977417,1719.481445 
	C1009.781616,1743.007935 1009.905090,1765.526245 1009.883545,1788.040283 
	C1009.861572,1811.024780 1009.878723,1834.009155 1009.878723,1856.993652 
	C1009.878723,1879.561890 1009.878723,1902.130249 1009.878723,1925.350342 
	C1002.999451,1925.350342 997.187256,1925.350342 990.506287,1925.350342 
	C990.266541,1922.416260 990.032410,1919.551147 989.797974,1915.716187 
z"/>
<path fill="#004080" opacity="1.000000" stroke="none" 
	d="
M675.816101,1915.708374 
	C675.815735,1844.429932 675.815735,1774.118774 675.815735,1702.905151 
	C681.749695,1702.905151 687.171204,1702.905151 692.651367,1702.905151 
	C694.617737,1710.082764 695.505066,1903.186401 693.554443,1925.107666 
	C688.211304,1925.107666 682.788879,1925.107666 676.495300,1925.107666 
	C676.278137,1922.410034 676.047302,1919.542847 675.816101,1915.708374 
z"/>
<path fill="#003E7D" opacity="1.000000" stroke="none" 
	d="
M1289.872559,2012.146118 
	C1292.918213,2016.861572 1295.632202,2020.932373 1298.437256,2025.139648 
	C1284.712769,2030.893433 1267.883301,2027.965088 1258.427734,2018.986206 
	C1247.620117,2008.723267 1236.625488,1998.657349 1225.746338,1988.469482 
	C1224.139038,1986.964478 1222.719727,1985.259033 1219.661499,1981.984497 
	C1232.683350,1981.984497 1243.829224,1982.717041 1254.831299,1981.773438 
	C1265.317993,1980.874146 1272.346924,1983.722290 1277.144409,1993.535400 
	C1280.304443,1999.999268 1285.343262,2005.544678 1289.872559,2012.146118 
z"/>
<path fill="#003B76" opacity="1.000000" stroke="none" 
	d="
M853.317139,1641.266602 
	C845.157166,1649.590576 837.002075,1656.996704 829.982178,1665.355957 
	C823.076843,1673.578613 815.015869,1675.282715 804.084900,1672.621704 
	C805.932922,1669.649414 807.262756,1666.782227 809.235413,1664.461670 
	C818.448853,1653.623779 828.111145,1643.156616 837.058411,1632.107910 
	C841.922241,1626.101685 847.383545,1623.259155 855.059204,1624.258423 
	C858.239929,1624.672607 861.519531,1624.327148 866.163696,1624.327148 
	C862.605652,1631.492065 858.431274,1636.283447 853.317139,1641.266602 
z"/>
<path fill="#003B76" opacity="1.000000" stroke="none" 
	d="
M1195.573486,1643.569092 
	C1198.780029,1639.721802 1201.751587,1636.586182 1204.262573,1633.116943 
	C1209.128540,1626.394165 1215.182495,1622.814941 1223.757202,1624.272339 
	C1226.855957,1624.799072 1230.061279,1624.698486 1235.087036,1624.994019 
	C1227.277832,1633.741577 1220.889893,1641.145386 1214.222168,1648.288208 
	C1208.794067,1654.103149 1202.911499,1659.492432 1197.443604,1665.272217 
	C1188.307373,1674.929810 1187.673584,1675.210327 1172.253906,1672.401978 
	C1178.550171,1661.595337 1187.829468,1653.627075 1195.573486,1643.569092 
z"/>
<path fill="#014180" opacity="1.000000" stroke="none" 
	d="
M520.424377,475.476746 
	C524.753174,475.576904 529.081970,475.764618 533.410767,475.764771 
	C927.716614,475.778198 1322.022461,475.763855 1716.328247,475.881622 
	C1723.564697,475.883789 1730.999512,476.651489 1738.008179,478.399567 
	C1965.933105,535.248108 2193.816895,592.261780 2421.707275,649.248474 
	C2435.910645,652.800110 2450.122803,656.314209 2464.320801,659.887268 
	C2467.442383,660.672852 2470.519775,661.635498 2473.416504,663.496399 
	C1666.748657,663.496399 860.080750,663.496399 52.259533,663.496399 
	C52.259533,601.262634 52.259533,539.401550 53.399582,476.654175 
	C125.756180,475.762329 196.972717,475.763733 268.189270,475.733337 
	C272.171875,475.731628 276.154327,475.467804 281.034363,475.533569 
	C359.773407,475.771698 437.614990,475.804413 515.456543,475.817749 
	C517.112488,475.818054 518.768433,475.595398 520.424377,475.476746 
z"/>
<path fill="#014180" opacity="1.000000" stroke="none" 
	d="
M1638.000000,1029.780884 
	C1109.130127,1029.780884 581.260193,1029.780884 52.758682,1029.780884 
	C52.758682,967.143372 52.758682,905.318237 52.758682,842.747681 
	C855.725708,842.747681 1658.793701,842.747681 2463.828125,842.747681 
	C2459.892334,844.115540 2457.518799,845.152527 2455.040527,845.771790 
	C2275.869629,890.540283 2096.688477,935.268188 1917.512817,980.017639 
	C1854.564575,995.739136 1791.646362,1011.581421 1728.659058,1027.143921 
	C1721.960938,1028.798706 1714.896851,1029.572876 1707.988037,1029.664917 
	C1684.995605,1029.971558 1661.996582,1029.780884 1638.000000,1029.780884 
z"/>
<path fill="#014180" opacity="1.000000" stroke="none" 
	d="
M156.050217,1420.133545 
	C121.384140,1428.792969 87.530739,1437.300293 52.835938,1446.019043 
	C52.835938,1366.581665 52.835938,1287.885986 52.835938,1208.553711 
	C367.703064,1208.553711 682.525879,1208.553711 997.348755,1208.553711 
	C997.443298,1208.808472 997.537781,1209.063232 997.632324,1209.318115 
	C989.525269,1211.461060 981.441650,1213.697632 973.307739,1215.733521 
	C736.677368,1274.966797 500.042603,1334.182983 263.406372,1393.393066 
	C227.897400,1402.277954 192.377640,1411.119629 156.050217,1420.133545 
z"/>
<path fill="#FFD501" opacity="1.000000" stroke="none" 
	d="
M280.136871,475.325989 
	C276.154327,475.467804 272.171875,475.731628 268.189270,475.733337 
	C196.972717,475.763733 125.756180,475.762329 53.659721,475.729492 
	C52.558903,472.714355 52.145489,469.737579 52.144775,466.760681 
	C52.112854,333.186188 52.117195,199.611679 52.117237,66.037186 
	C52.117237,63.731030 52.117233,61.424873 52.117233,58.413761 
	C54.545288,58.413761 56.468040,58.038887 58.190723,58.467728 
	C131.095810,76.616554 203.983215,94.836502 276.870270,113.057724 
	C277.512512,113.218277 278.120728,113.514908 279.452087,114.980423 
	C280.151886,235.917221 280.144379,355.621613 280.136871,475.325989 
z"/>
<path fill="#E62E25" opacity="1.000000" stroke="none" 
	d="
M281.034363,475.533569 
	C280.144379,355.621613 280.151886,235.917221 280.179474,115.302193 
	C299.838165,119.061844 319.515717,123.574989 339.108032,128.431900 
	C397.969788,143.023575 456.798859,157.747025 515.635986,172.438004 
	C516.917603,172.758026 518.142517,173.305420 519.988281,175.005249 
	C520.524231,201.890976 520.399719,227.518265 520.426880,253.145401 
	C520.451233,276.105316 520.642517,299.065002 520.760132,322.024811 
	C520.669739,364.592529 520.576599,407.160278 520.491455,449.727997 
	C520.475464,457.710205 520.491394,465.692505 520.458496,474.575745 
	C518.768433,475.595398 517.112488,475.818054 515.456543,475.817749 
	C437.614990,475.804413 359.773407,475.771698 281.034363,475.533569 
z"/>
<path fill="#024180" opacity="1.000000" stroke="none" 
	d="
M521.643494,322.042603 
	C520.642517,299.065002 520.451233,276.105316 520.426880,253.145401 
	C520.399719,227.518265 520.524231,201.890976 520.723267,175.368225 
	C558.956909,183.841949 597.080078,193.090912 635.137939,202.601532 
	C788.714844,240.980301 942.271851,279.438721 1095.834106,317.876221 
	C1099.253540,318.732147 1102.647461,319.689240 1105.790161,322.060364 
	C911.369080,322.060364 716.947937,322.060364 521.643494,322.042603 
z"/>
<path fill="#000101" opacity="1.000000" stroke="none" 
	d="
M2416.267090,1758.357910 
	C2434.199463,1736.365601 2472.062256,1735.213623 2492.686523,1752.432495 
	C2504.447998,1762.251953 2510.377930,1775.690430 2513.492188,1790.144287 
	C2517.380127,1808.188232 2517.512939,1826.457275 2511.937744,1844.292480 
	C2509.995605,1850.504639 2506.789551,1856.321411 2503.515137,1863.791992 
	C2494.413086,1855.944092 2486.523682,1849.141479 2477.824463,1841.640747 
	C2470.500488,1849.616089 2463.397705,1857.350830 2455.483643,1865.968872 
	C2461.527832,1872.045410 2467.470459,1878.019897 2473.751953,1884.335083 
	C2441.443115,1891.173828 2419.917480,1882.842163 2406.953613,1855.243408 
	C2394.154541,1827.995239 2395.572754,1799.787598 2407.094971,1772.196655 
	C2409.101318,1767.392090 2412.854248,1763.316772 2416.267090,1758.357910 
z"/>
<path fill="#000306" opacity="1.000000" stroke="none" 
	d="
M1727.644409,1837.728027 
	C1714.993652,1838.863403 1702.757568,1839.288208 1690.519165,1839.615845 
	C1685.931641,1839.738770 1681.338013,1839.635742 1676.841064,1839.635742 
	C1676.534912,1830.803467 1695.735596,1775.035278 1703.010498,1762.684448 
	C1703.771851,1763.967163 1704.595703,1764.942993 1704.983032,1766.069092 
	C1712.542236,1788.048462 1720.071777,1810.037964 1727.522949,1832.054199 
	C1728.039795,1833.581299 1727.895264,1835.332031 1727.644409,1837.728027 
z"/>
<path fill="#000000" opacity="1.000000" stroke="none" 
	d="
M266.767365,1903.521484 
	C235.076874,1884.132202 221.090149,1855.626099 219.825470,1819.991211 
	C219.219070,1802.904419 220.723831,1786.235840 226.777023,1769.998779 
	C239.522049,1735.811157 270.837219,1712.843262 309.006561,1713.603027 
	C345.456116,1714.328613 373.858307,1737.352539 385.968170,1768.718750 
	C398.131531,1800.223633 397.582214,1831.861450 384.078308,1862.804810 
	C371.165497,1892.393799 342.319336,1913.459961 308.904053,1912.588257 
	C294.343536,1912.208618 280.443329,1910.666626 266.767365,1903.521484 
z"/>
<path fill="#000000" opacity="1.000000" stroke="none" 
	d="
M115.261566,2253.849609 
	C104.165543,2256.851074 93.744095,2258.354248 82.972458,2258.066650 
	C68.987991,2257.692871 54.986004,2257.975342 40.991558,2257.975342 
	C37.735825,2257.975342 34.480087,2257.975098 30.540611,2257.975098 
	C30.540611,2195.184570 30.540611,2133.373779 30.540611,2070.853271 
	C32.528149,2070.470459 34.691154,2069.702148 36.857716,2069.691895 
	C55.516403,2069.604492 74.196945,2069.098389 92.829216,2069.810303 
	C113.666916,2070.606201 132.714615,2076.547363 147.540741,2092.512939 
	C156.907471,2102.599609 162.363358,2114.677246 165.418213,2127.727051 
	C170.542679,2149.618408 171.232681,2171.668213 166.132996,2193.806396 
	C159.559799,2222.341553 144.305588,2243.392090 115.261566,2253.849609 
z"/>
</svg>