<svg version="1.1" id="Layer_1" xmlns="http://www.w3.org/2000/svg" xmlns:xlink="http://www.w3.org/1999/xlink" x="0px" y="0px"
	 width="100%" viewBox="0 0 500 310" enable-background="new 0 0 500 310" xml:space="preserve">
<path fill="#000000" opacity="1.000000" stroke="none" 
	d="
M1.000000,234.000000 
	C1.000000,156.394257 1.000000,78.788498 1.000000,1.000000 
	C109.020828,1.000000 217.041748,1.000000 325.867432,1.225560 
	C316.631165,11.950914 306.632904,22.492054 296.534607,32.936443 
	C289.400665,40.314884 282.131104,47.562206 274.672546,54.950195 
	C274.244171,55.320915 274.065338,55.609501 273.589569,56.049763 
	C261.279694,67.882622 249.283249,79.580811 237.248383,91.239388 
	C228.319336,99.889267 219.366196,108.514687 210.373123,117.097931 
	C205.713715,121.545013 201.013397,125.954140 196.211685,130.246307 
	C181.250183,143.620148 166.237534,156.936859 151.232559,170.262009 
	C142.506729,178.010986 133.769775,185.747559 125.008545,193.456436 
	C123.289619,194.968903 121.436241,196.328568 119.644882,197.758713 
	C119.858810,198.133102 120.072731,198.507507 120.286659,198.881897 
	C162.823578,198.881897 205.360504,198.881897 248.138153,198.944946 
	C248.378860,199.007980 248.865997,198.906113 249.341599,198.945847 
	C293.733704,198.985580 337.650238,198.985580 382.418884,198.985580 
	C381.557526,193.141861 380.880859,187.847107 379.982910,182.590149 
	C377.175598,166.154678 372.440338,150.336945 365.100739,135.299286 
	C359.191528,123.192223 352.289490,111.842079 343.377350,101.630180 
	C334.884308,91.898514 325.894012,82.856812 315.129913,75.520004 
	C317.755493,64.666260 320.792480,54.257000 322.550476,43.636032 
	C324.888611,29.510361 326.230255,15.219750 328.000000,1.000001 
	C385.608337,1.000000 443.216705,1.000000 501.000000,1.000000 
	C501.000000,87.354149 501.000000,173.708420 500.650391,260.698730 
	C500.033264,261.143677 499.617950,261.009460 499.519409,260.753387 
	C495.137848,249.369705 486.282837,247.158203 477.186218,247.245941 
	C464.931061,247.364166 457.068390,254.317886 454.358276,265.208008 
	C451.436127,276.950073 457.594330,288.154449 468.916992,291.938446 
	C476.233795,294.383698 482.963989,292.583710 489.824738,288.930176 
	C489.824738,290.446320 490.025543,291.461884 489.793152,292.366119 
	C487.814545,300.064575 478.807373,304.026794 469.059814,301.546600 
	C461.309906,299.574707 461.304901,299.572571 458.231506,306.670258 
	C458.136627,306.889374 458.385406,307.257355 458.150940,306.466736 
	C460.590698,308.357666 462.295349,309.678833 464.000000,311.000000 
	C309.666656,311.000000 155.333313,311.000000 1.000000,311.000000 
	C1.000000,289.568573 1.000000,268.252960 1.368808,246.319763 
	C2.190195,246.522888 2.762796,247.300156 3.077495,248.170670 
	C8.472399,263.094238 13.835453,278.029327 19.123894,292.734985 
	C34.644653,293.076111 31.078091,295.069366 34.974136,282.778137 
	C37.916134,273.496704 40.505955,264.103607 43.323742,254.517960 
	C47.037354,267.640472 50.630207,280.336304 54.212597,292.995148 
	C57.959507,292.995148 60.980164,293.232117 63.932991,292.887695 
	C65.260857,292.732819 67.193054,291.687744 67.596855,290.586639 
	C74.359978,272.144989 80.924500,253.630493 87.485542,235.265594 
	C79.693176,230.795685 74.838440,233.137726 73.305313,238.404785 
	C72.160286,242.338562 71.212173,246.333221 69.962593,250.232269 
	C67.207176,258.829956 64.316689,267.384338 61.481312,275.956390 
	C57.132076,263.630829 54.133610,251.427582 50.868015,239.296249 
	C50.114563,236.497253 50.577717,232.709518 45.283226,232.807007 
	C40.241028,232.899887 37.511189,234.720367 36.315643,239.346909 
	C35.167782,243.788925 34.163883,248.270172 32.927578,252.686844 
	C30.698421,260.650543 28.343019,268.578857 26.040346,276.521942 
	C25.622692,276.530060 25.205038,276.538147 24.787384,276.546234 
	C20.850580,263.892029 16.813295,251.267792 13.024899,238.569290 
	C11.440965,233.260056 10.164974,232.159760 4.642323,233.057251 
	C3.409699,233.257568 2.213156,233.679886 1.000000,234.000000 
M256.829529,290.908325 
	C265.195953,294.130859 273.941986,294.526764 282.708740,293.922577 
	C289.238739,293.472565 295.260742,291.368439 299.112396,285.509308 
	C305.741913,275.424561 301.836609,262.231018 287.591827,259.058929 
	C280.882690,257.564941 274.068542,256.452942 267.487122,254.533142 
	C265.649292,253.997055 263.809875,251.415222 263.148560,249.387817 
	C262.207764,246.503494 263.279785,243.448608 266.703064,242.833420 
	C271.311707,242.005219 276.160309,240.917389 280.673126,241.564468 
	C286.014587,242.330353 291.108185,244.825211 296.393768,246.599030 
	C301.072388,240.147507 299.334778,235.338959 291.002747,233.108612 
	C282.647156,230.871948 274.081360,229.739532 265.616791,232.113205 
	C257.474823,234.396378 250.497772,239.999771 251.004471,250.092041 
	C251.389618,257.763306 257.103516,263.958221 266.034393,265.960938 
	C271.619995,267.213501 277.379547,267.741455 282.907288,269.183716 
	C286.769287,270.191376 290.594604,272.172455 289.927460,277.277893 
	C289.294159,282.124451 285.435181,283.588013 281.357574,283.927032 
	C271.989807,284.705872 263.009247,283.215240 254.661316,277.949677 
	C253.686508,279.843506 253.109100,281.856293 251.844299,283.241455 
	C249.003601,286.352417 249.873932,288.019592 253.491501,289.196655 
	C254.417328,289.497894 255.241409,290.111816 256.829529,290.908325 
M193.580673,289.052582 
	C195.615204,290.117859 197.574249,291.372711 199.696503,292.217712 
	C213.729141,297.804993 231.127106,290.560547 231.880844,274.633026 
	C232.591660,259.612671 232.033401,244.532227 232.033401,229.284363 
	C224.235443,226.486618 222.008698,228.008636 222.001404,236.693024 
	C221.997192,241.711411 222.000626,246.729813 222.000626,252.280685 
	C208.780441,244.155365 199.966003,246.700470 192.607758,253.041138 
	C182.831467,261.465454 181.852600,278.369537 193.580673,289.052582 
M338.880341,250.407639 
	C331.123596,246.903122 323.071136,246.147400 314.841797,248.177780 
	C308.471008,249.749634 307.347626,254.121872 311.913239,258.817810 
	C326.804626,253.841125 335.186401,255.914291 335.509949,265.003937 
	C330.354797,265.003937 325.204651,264.868164 320.064301,265.034729 
	C311.695587,265.305939 305.790070,270.102539 305.016937,277.006958 
	C304.129181,284.935150 308.284271,291.213837 315.841980,292.824982 
	C326.133667,295.019012 336.419342,294.144135 346.990387,292.461975 
	C346.990387,282.255341 347.244293,272.278412 346.882996,262.323822 
	C346.703125,257.367798 344.276825,253.186356 338.880341,250.407639 
M91.438629,251.879288 
	C90.865494,252.194901 90.199631,252.410172 89.733101,252.841171 
	C82.522423,259.503082 80.472321,267.612671 82.917458,277.027466 
	C85.624138,287.449249 93.057404,292.844452 103.033012,293.819244 
	C120.354134,295.511810 133.816971,282.593628 129.569962,264.856964 
	C125.442940,247.621399 106.090378,242.498596 91.438629,251.879288 
M428.414673,257.006775 
	C436.115570,257.479431 438.861053,263.384277 438.970520,269.983978 
	C439.096222,277.561768 438.999695,285.143219 438.999695,292.668823 
	C443.047272,292.668823 446.293427,292.668823 449.947968,292.668823 
	C449.947968,283.394989 450.089020,274.443665 449.858124,265.501923 
	C449.792694,262.969482 448.931061,260.343384 447.934204,257.970459 
	C444.876129,250.690826 438.250305,248.530670 431.322235,247.253860 
	C424.913177,246.072693 412.681244,248.751266 408.976288,256.557404 
	C408.351776,257.873199 407.316589,259.219513 407.299255,260.562408 
	C407.160889,271.288605 407.222015,282.017426 407.222015,292.665314 
	C410.738281,292.665314 413.657684,292.665314 417.002380,292.665314 
	C417.002380,284.714264 416.678314,277.076080 417.089539,269.477753 
	C417.539734,261.158997 420.850037,257.564270 428.414673,257.006775 
M372.000000,250.500320 
	C372.000000,264.556274 372.000000,278.612213 372.000000,292.706360 
	C375.665527,292.706360 378.579163,292.706360 381.765869,292.706360 
	C381.854980,291.306427 381.988312,290.180359 381.989105,289.054230 
	C382.002319,270.440796 381.917938,251.826675 382.069336,233.214447 
	C382.098663,229.612549 380.867188,227.852859 377.328705,228.050171 
	C373.978882,228.236969 371.781403,229.558487 371.947296,233.548538 
	C372.167999,238.857468 372.000641,244.182526 372.000000,250.500320 
M180.000000,273.499542 
	C179.999161,259.870911 179.896500,246.241058 180.059784,232.614395 
	C180.108490,228.550568 177.851761,227.779404 174.742218,228.081406 
	C171.577103,228.388855 169.895996,229.972992 169.927765,233.639862 
	C170.089081,252.253189 169.994934,270.868652 170.025421,289.483337 
	C170.027206,290.579803 170.336136,291.675751 170.486938,292.671509 
	C173.729721,292.671509 176.646820,292.671509 180.000000,292.671509 
	C180.000000,286.398102 180.000000,280.448669 180.000000,273.499542 
M137.690216,292.987610 
	C139.961029,292.987610 142.231842,292.987610 145.001648,292.987610 
	C145.001648,284.806580 144.932297,277.203918 145.022003,269.603149 
	C145.104431,262.617645 147.054871,258.810669 152.120453,257.605988 
	C154.958008,256.931152 158.344391,257.399994 161.201416,258.274750 
	C164.549042,259.299744 165.455215,257.688904 165.945847,255.197632 
	C166.759247,251.067520 164.346573,248.605865 160.758209,248.200577 
	C155.961777,247.658875 150.981262,247.522552 146.219864,248.198624 
	C139.966125,249.086609 135.042236,255.674362 135.011337,262.067566 
	C134.968765,270.872467 134.918289,279.679230 135.079605,288.481384 
	C135.107040,289.979065 136.178802,291.457550 137.690216,292.987610 
M358.598328,249.001877 
	C355.171051,248.597031 353.880554,250.040237 353.943909,253.543518 
	C354.114929,263.007874 354.000916,272.477417 354.000153,281.944885 
	C353.999878,285.525970 354.000122,289.107056 354.000122,292.699158 
	C358.020752,292.699158 361.266907,292.699158 365.000214,292.699158 
	C365.000214,279.656494 364.828094,266.904327 365.094238,254.161316 
	C365.186523,249.742477 363.387085,248.525116 358.598328,249.001877 
M395.432831,292.999329 
	C396.855560,292.884613 398.278290,292.769897 399.814850,292.645996 
	C399.814850,277.983948 399.814850,263.749695 399.814850,249.556656 
	C390.811981,247.562958 389.006378,248.980301 388.999023,257.863953 
	C388.996521,260.851471 388.998535,263.838959 388.998535,266.826477 
	C388.998505,275.400848 388.998535,283.975220 388.998535,292.999756 
	C391.255341,292.999756 392.877533,292.999756 395.432831,292.999329 
M389.926208,231.339386 
	C387.513062,234.746246 387.205750,238.288055 390.793732,240.788269 
	C393.870789,242.932510 397.920013,243.183517 399.775848,239.367844 
	C400.835876,237.188354 400.668121,233.290771 399.339539,231.324921 
	C397.177765,228.126205 393.471039,228.168976 389.926208,231.339386 
M354.433624,239.938721 
	C358.356873,242.987381 361.415771,242.787720 364.166504,239.303436 
	C366.646820,236.161667 366.246521,232.233795 362.389221,230.223099 
	C360.528442,229.253113 357.197418,229.549240 355.264130,230.608322 
	C351.652435,232.586807 352.622803,236.124710 354.433624,239.938721 
z"/>
<path fill="#2F51AB" opacity="1.000000" stroke="none" 
	d="
M1.000000,234.460632 
	C2.213156,233.679886 3.409699,233.257568 4.642323,233.057251 
	C10.164974,232.159760 11.440965,233.260056 13.024899,238.569290 
	C16.813295,251.267792 20.850580,263.892029 24.787384,276.546234 
	C25.205038,276.538147 25.622692,276.530060 26.040346,276.521942 
	C28.343019,268.578857 30.698421,260.650543 32.927578,252.686844 
	C34.163883,248.270172 35.167782,243.788925 36.315643,239.346909 
	C37.511189,234.720367 40.241028,232.899887 45.283226,232.807007 
	C50.577717,232.709518 50.114563,236.497253 50.868015,239.296249 
	C54.133610,251.427582 57.132076,263.630829 61.481312,275.956390 
	C64.316689,267.384338 67.207176,258.829956 69.962593,250.232269 
	C71.212173,246.333221 72.160286,242.338562 73.305313,238.404785 
	C74.838440,233.137726 79.693176,230.795685 87.485542,235.265594 
	C80.924500,253.630493 74.359978,272.144989 67.596855,290.586639 
	C67.193054,291.687744 65.260857,292.732819 63.932991,292.887695 
	C60.980164,293.232117 57.959507,292.995148 54.212597,292.995148 
	C50.630207,280.336304 47.037354,267.640472 43.323742,254.517960 
	C40.505955,264.103607 37.916134,273.496704 34.974136,282.778137 
	C31.078091,295.069366 34.644653,293.076111 19.123894,292.734985 
	C13.835453,278.029327 8.472399,263.094238 3.077495,248.170670 
	C2.762796,247.300156 2.190195,246.522888 1.368808,245.851105 
	C1.000000,242.307098 1.000000,238.614182 1.000000,234.460632 
z"/>
<path fill="#26B9E8" opacity="1.000000" stroke="none" 
	d="
M327.666687,1.000001 
	C326.230255,15.219750 324.888611,29.510361 322.550476,43.636032 
	C320.792480,54.257000 317.755493,64.666260 314.971466,75.596443 
	C314.655060,76.023125 314.312866,76.104828 314.125488,75.795586 
	C301.958496,66.672554 288.821136,60.049637 274.922089,54.868061 
	C282.131104,47.562206 289.400665,40.314884 296.534607,32.936443 
	C306.632904,22.492054 316.631165,11.950914 326.336090,1.225560 
	C326.444458,1.000000 326.888885,1.000000 327.666687,1.000001 
z"/>
<path fill="#2F51AB" opacity="1.000000" stroke="none" 
	d="
M464.468567,311.000000 
	C462.295349,309.678833 460.590698,308.357666 458.150940,306.466736 
	C458.385406,307.257355 458.136627,306.889374 458.231506,306.670258 
	C461.304901,299.572571 461.309906,299.574707 469.059814,301.546600 
	C478.807373,304.026794 487.814545,300.064575 489.793152,292.366119 
	C490.025543,291.461884 489.824738,290.446320 489.824738,288.930176 
	C482.963989,292.583710 476.233795,294.383698 468.916992,291.938446 
	C457.594330,288.154449 451.436127,276.950073 454.358276,265.208008 
	C457.068390,254.317886 464.931061,247.364166 477.186218,247.245941 
	C486.282837,247.158203 495.137848,249.369705 499.519409,260.753387 
	C499.617950,261.009460 500.033264,261.143677 500.650391,261.167358 
	C501.000000,272.687561 501.000000,284.375122 500.663147,296.346252 
	C497.089142,301.468170 494.080231,306.504364 488.313629,308.909027 
	C487.409088,309.286224 486.764709,310.287384 486.000000,311.000000 
	C478.979034,311.000000 471.958099,311.000000 464.468567,311.000000 
M471.035614,259.388000 
	C469.584778,260.884857 467.825867,262.188629 466.743225,263.916199 
	C463.944489,268.382172 464.333221,275.574493 467.852112,279.176025 
	C471.106598,282.506958 475.169922,284.784729 480.130463,283.384918 
	C488.765625,280.948151 492.609070,273.486786 489.649597,265.239441 
	C487.260590,258.581787 479.270508,255.766449 471.035614,259.388000 
z"/>
<path fill="#000000" opacity="1.000000" stroke="none" 
	d="
M486.472656,311.000000 
	C486.764709,310.287384 487.409088,309.286224 488.313629,308.909027 
	C494.080231,306.504364 497.089142,301.468170 500.663147,296.814880 
	C501.000000,301.593750 501.000000,306.187500 501.000000,311.000000 
	C496.316559,311.000000 491.630951,311.000000 486.472656,311.000000 
z"/>
<path fill="#DD048C" opacity="1.000000" stroke="none" 
	d="
M314.312866,76.104828 
	C314.312866,76.104828 314.655060,76.023125 314.813507,75.946686 
	C325.894012,82.856812 334.884308,91.898514 343.377350,101.630180 
	C352.289490,111.842079 359.191528,123.192223 365.100739,135.299286 
	C372.440338,150.336945 377.175598,166.154678 379.982910,182.590149 
	C380.880859,187.847107 381.557526,193.141861 382.418884,198.985580 
	C337.650238,198.985580 293.733704,198.985580 249.371857,198.598709 
	C263.846649,181.097534 276.855560,162.656464 287.481110,142.569031 
	C298.711090,121.339027 308.199524,99.402229 314.312866,76.104828 
z"/>
<path fill="#26B9E8" opacity="1.000000" stroke="none" 
	d="
M247.897430,198.881897 
	C205.360504,198.881897 162.823578,198.881897 120.286659,198.881897 
	C120.072731,198.507507 119.858810,198.133102 119.644882,197.758713 
	C121.436241,196.328568 123.289619,194.968903 125.008545,193.456436 
	C133.769775,185.747559 142.506729,178.010986 151.232559,170.262009 
	C166.237534,156.936859 181.250183,143.620148 196.211685,130.246307 
	C201.013397,125.954140 205.713715,121.545013 210.373123,117.097931 
	C219.366196,108.514687 228.319336,99.889267 237.248383,91.239388 
	C249.283249,79.580811 261.279694,67.882622 273.616333,56.418633 
	C273.597473,57.567268 273.328186,58.533752 272.901825,59.425098 
	C256.117706,94.513313 249.134903,131.807877 248.036224,170.397659 
	C247.766083,179.886032 247.931992,189.386810 247.897430,198.881897 
z"/>
<path fill="#3051AB" opacity="1.000000" stroke="none" 
	d="
M248.138153,198.944946 
	C247.931992,189.386810 247.766083,179.886032 248.036224,170.397659 
	C249.134903,131.807877 256.117706,94.513313 272.901825,59.425098 
	C273.328186,58.533752 273.597473,57.567268 273.913269,56.266960 
	C274.065338,55.609501 274.244171,55.320915 274.672546,54.950195 
	C288.821136,60.049637 301.958496,66.672554 314.125488,75.795586 
	C308.199524,99.402229 298.711090,121.339027 287.481110,142.569031 
	C276.855560,162.656464 263.846649,181.097534 248.896271,198.558975 
	C248.865997,198.906113 248.378860,199.007980 248.138153,198.944946 
z"/>
<path fill="#2F51AB" opacity="1.000000" stroke="none" 
	d="
M256.470886,290.745178 
	C255.241409,290.111816 254.417328,289.497894 253.491501,289.196655 
	C249.873932,288.019592 249.003601,286.352417 251.844299,283.241455 
	C253.109100,281.856293 253.686508,279.843506 254.661316,277.949677 
	C263.009247,283.215240 271.989807,284.705872 281.357574,283.927032 
	C285.435181,283.588013 289.294159,282.124451 289.927460,277.277893 
	C290.594604,272.172455 286.769287,270.191376 282.907288,269.183716 
	C277.379547,267.741455 271.619995,267.213501 266.034393,265.960938 
	C257.103516,263.958221 251.389618,257.763306 251.004471,250.092041 
	C250.497772,239.999771 257.474823,234.396378 265.616791,232.113205 
	C274.081360,229.739532 282.647156,230.871948 291.002747,233.108612 
	C299.334778,235.338959 301.072388,240.147507 296.393768,246.599030 
	C291.108185,244.825211 286.014587,242.330353 280.673126,241.564468 
	C276.160309,240.917389 271.311707,242.005219 266.703064,242.833420 
	C263.279785,243.448608 262.207764,246.503494 263.148560,249.387817 
	C263.809875,251.415222 265.649292,253.997055 267.487122,254.533142 
	C274.068542,256.452942 280.882690,257.564941 287.591827,259.058929 
	C301.836609,262.231018 305.741913,275.424561 299.112396,285.509308 
	C295.260742,291.368439 289.238739,293.472565 282.708740,293.922577 
	C273.941986,294.526764 265.195953,294.130859 256.470886,290.745178 
z"/>
<path fill="#2F51AB" opacity="1.000000" stroke="none" 
	d="
M193.312653,288.802612 
	C181.852600,278.369537 182.831467,261.465454 192.607758,253.041138 
	C199.966003,246.700470 208.780441,244.155365 222.000626,252.280685 
	C222.000626,246.729813 221.997192,241.711411 222.001404,236.693024 
	C222.008698,228.008636 224.235443,226.486618 232.033401,229.284363 
	C232.033401,244.532227 232.591660,259.612671 231.880844,274.633026 
	C231.127106,290.560547 213.729141,297.804993 199.696503,292.217712 
	C197.574249,291.372711 195.615204,290.117859 193.312653,288.802612 
M221.979095,272.164337 
	C221.975342,271.003632 222.111557,269.822388 221.944885,268.685577 
	C220.937210,261.812866 214.224899,256.268463 207.904205,257.018311 
	C201.591843,257.767181 195.413849,264.982178 196.276703,271.384277 
	C197.352081,279.363251 202.298813,284.477661 209.803955,283.984222 
	C216.710983,283.530151 220.274841,279.295227 221.979095,272.164337 
z"/>
<path fill="#2F51AB" opacity="1.000000" stroke="none" 
	d="
M339.182556,250.639709 
	C344.276825,253.186356 346.703125,257.367798 346.882996,262.323822 
	C347.244293,272.278412 346.990387,282.255341 346.990387,292.461975 
	C336.419342,294.144135 326.133667,295.019012 315.841980,292.824982 
	C308.284271,291.213837 304.129181,284.935150 305.016937,277.006958 
	C305.790070,270.102539 311.695587,265.305939 320.064301,265.034729 
	C325.204651,264.868164 330.354797,265.003937 335.509949,265.003937 
	C335.186401,255.914291 326.804626,253.841125 311.913239,258.817810 
	C307.347626,254.121872 308.471008,249.749634 314.841797,248.177780 
	C323.071136,246.147400 331.123596,246.903122 339.182556,250.639709 
M331.718140,272.998871 
	C328.637756,273.002014 325.536011,272.778778 322.482574,273.067230 
	C318.893921,273.406219 316.273895,275.326324 316.066528,279.201477 
	C315.874146,282.796783 318.119812,284.592041 321.479309,285.003571 
	C324.888885,285.421295 328.314789,285.827332 331.743011,285.934052 
	C334.677734,286.025391 336.310944,284.557892 336.018066,281.341980 
	C335.852966,279.528870 336.406128,277.542877 335.841461,275.909332 
	C335.426727,274.709473 333.722443,273.955383 331.718140,272.998871 
z"/>
<path fill="#2F51AB" opacity="1.000000" stroke="none" 
	d="
M91.732788,251.651382 
	C106.090378,242.498596 125.442940,247.621399 129.569962,264.856964 
	C133.816971,282.593628 120.354134,295.511810 103.033012,293.819244 
	C93.057404,292.844452 85.624138,287.449249 82.917458,277.027466 
	C80.472321,267.612671 82.522423,259.503082 89.733101,252.841171 
	C90.199631,252.410172 90.865494,252.194901 91.732788,251.651382 
M93.978432,275.267273 
	C96.782639,282.359619 103.757980,285.871765 110.125229,283.397369 
	C117.494698,280.533508 120.676270,273.661804 118.104698,266.162964 
	C115.751534,259.301025 109.039810,255.421066 102.670502,257.182373 
	C95.497894,259.165833 91.217537,268.436890 93.978432,275.267273 
z"/>
<path fill="#2F51AB" opacity="1.000000" stroke="none" 
	d="
M428.003601,257.006775 
	C420.850037,257.564270 417.539734,261.158997 417.089539,269.477753 
	C416.678314,277.076080 417.002380,284.714264 417.002380,292.665314 
	C413.657684,292.665314 410.738281,292.665314 407.222015,292.665314 
	C407.222015,282.017426 407.160889,271.288605 407.299255,260.562408 
	C407.316589,259.219513 408.351776,257.873199 408.976288,256.557404 
	C412.681244,248.751266 424.913177,246.072693 431.322235,247.253860 
	C438.250305,248.530670 444.876129,250.690826 447.934204,257.970459 
	C448.931061,260.343384 449.792694,262.969482 449.858124,265.501923 
	C450.089020,274.443665 449.947968,283.394989 449.947968,292.668823 
	C446.293427,292.668823 443.047272,292.668823 438.999695,292.668823 
	C438.999695,285.143219 439.096222,277.561768 438.970520,269.983978 
	C438.861053,263.384277 436.115570,257.479431 428.003601,257.006775 
z"/>
<path fill="#2F51AB" opacity="1.000000" stroke="none" 
	d="
M372.000000,250.000488 
	C372.000641,244.182526 372.167999,238.857468 371.947296,233.548538 
	C371.781403,229.558487 373.978882,228.236969 377.328705,228.050171 
	C380.867188,227.852859 382.098663,229.612549 382.069336,233.214447 
	C381.917938,251.826675 382.002319,270.440796 381.989105,289.054230 
	C381.988312,290.180359 381.854980,291.306427 381.765869,292.706360 
	C378.579163,292.706360 375.665527,292.706360 372.000000,292.706360 
	C372.000000,278.612213 372.000000,264.556274 372.000000,250.000488 
z"/>
<path fill="#2F51AB" opacity="1.000000" stroke="none" 
	d="
M180.000000,273.999390 
	C180.000000,280.448669 180.000000,286.398102 180.000000,292.671509 
	C176.646820,292.671509 173.729721,292.671509 170.486938,292.671509 
	C170.336136,291.675751 170.027206,290.579803 170.025421,289.483337 
	C169.994934,270.868652 170.089081,252.253189 169.927765,233.639862 
	C169.895996,229.972992 171.577103,228.388855 174.742218,228.081406 
	C177.851761,227.779404 180.108490,228.550568 180.059784,232.614395 
	C179.896500,246.241058 179.999161,259.870911 180.000000,273.999390 
z"/>
<path fill="#2F51AB" opacity="1.000000" stroke="none" 
	d="
M137.229156,292.966248 
	C136.178802,291.457550 135.107040,289.979065 135.079605,288.481384 
	C134.918289,279.679230 134.968765,270.872467 135.011337,262.067566 
	C135.042236,255.674362 139.966125,249.086609 146.219864,248.198624 
	C150.981262,247.522552 155.961777,247.658875 160.758209,248.200577 
	C164.346573,248.605865 166.759247,251.067520 165.945847,255.197632 
	C165.455215,257.688904 164.549042,259.299744 161.201416,258.274750 
	C158.344391,257.399994 154.958008,256.931152 152.120453,257.605988 
	C147.054871,258.810669 145.104431,262.617645 145.022003,269.603149 
	C144.932297,277.203918 145.001648,284.806580 145.001648,292.987610 
	C142.231842,292.987610 139.961029,292.987610 137.229156,292.966248 
z"/>
<path fill="#2F51AB" opacity="1.000000" stroke="none" 
	d="
M359.046661,249.001450 
	C363.387085,248.525116 365.186523,249.742477 365.094238,254.161316 
	C364.828094,266.904327 365.000214,279.656494 365.000214,292.699158 
	C361.266907,292.699158 358.020752,292.699158 354.000122,292.699158 
	C354.000122,289.107056 353.999878,285.525970 354.000153,281.944885 
	C354.000916,272.477417 354.114929,263.007874 353.943909,253.543518 
	C353.880554,250.040237 355.171051,248.597031 359.046661,249.001450 
z"/>
<path fill="#2F51AB" opacity="1.000000" stroke="none" 
	d="
M394.966278,292.999542 
	C392.877533,292.999756 391.255341,292.999756 388.998535,292.999756 
	C388.998535,283.975220 388.998505,275.400848 388.998535,266.826477 
	C388.998535,263.838959 388.996521,260.851471 388.999023,257.863953 
	C389.006378,248.980301 390.811981,247.562958 399.814850,249.556656 
	C399.814850,263.749695 399.814850,277.983948 399.814850,292.645996 
	C398.278290,292.769897 396.855560,292.884613 394.966278,292.999542 
z"/>
<path fill="#2F51AB" opacity="1.000000" stroke="none" 
	d="
M390.056152,230.971039 
	C393.471039,228.168976 397.177765,228.126205 399.339539,231.324921 
	C400.668121,233.290771 400.835876,237.188354 399.775848,239.367844 
	C397.920013,243.183517 393.870789,242.932510 390.793732,240.788269 
	C387.205750,238.288055 387.513062,234.746246 390.056152,230.971039 
z"/>
<path fill="#2F51AB" opacity="1.000000" stroke="none" 
	d="
M354.162537,239.635376 
	C352.622803,236.124710 351.652435,232.586807 355.264130,230.608322 
	C357.197418,229.549240 360.528442,229.253113 362.389221,230.223099 
	C366.246521,232.233795 366.646820,236.161667 364.166504,239.303436 
	C361.415771,242.787720 358.356873,242.987381 354.162537,239.635376 
z"/>
<path fill="#000000" opacity="1.000000" stroke="none" 
	d="
M471.338684,259.141174 
	C479.270508,255.766449 487.260590,258.581787 489.649597,265.239441 
	C492.609070,273.486786 488.765625,280.948151 480.130463,283.384918 
	C475.169922,284.784729 471.106598,282.506958 467.852112,279.176025 
	C464.333221,275.574493 463.944489,268.382172 466.743225,263.916199 
	C467.825867,262.188629 469.584778,260.884857 471.338684,259.141174 
z"/>
<path fill="#000000" opacity="1.000000" stroke="none" 
	d="
M221.947388,272.577057 
	C220.274841,279.295227 216.710983,283.530151 209.803955,283.984222 
	C202.298813,284.477661 197.352081,279.363251 196.276703,271.384277 
	C195.413849,264.982178 201.591843,257.767181 207.904205,257.018311 
	C214.224899,256.268463 220.937210,261.812866 221.944885,268.685577 
	C222.111557,269.822388 221.975342,271.003632 221.947388,272.577057 
z"/>
<path fill="#000000" opacity="1.000000" stroke="none" 
	d="
M332.155457,273.000732 
	C333.722443,273.955383 335.426727,274.709473 335.841461,275.909332 
	C336.406128,277.542877 335.852966,279.528870 336.018066,281.341980 
	C336.310944,284.557892 334.677734,286.025391 331.743011,285.934052 
	C328.314789,285.827332 324.888885,285.421295 321.479309,285.003571 
	C318.119812,284.592041 315.874146,282.796783 316.066528,279.201477 
	C316.273895,275.326324 318.893921,273.406219 322.482574,273.067230 
	C325.536011,272.778778 328.637756,273.002014 332.155457,273.000732 
z"/>
<path fill="#000000" opacity="1.000000" stroke="none" 
	d="
M93.904884,274.867859 
	C91.217537,268.436890 95.497894,259.165833 102.670502,257.182373 
	C109.039810,255.421066 115.751534,259.301025 118.104698,266.162964 
	C120.676270,273.661804 117.494698,280.533508 110.125229,283.397369 
	C103.757980,285.871765 96.782639,282.359619 93.904884,274.867859 
z"/>
</svg>