<?xml version="1.0" encoding="UTF-8" standalone="no"?>
<!-- Created with Inkscape (http://www.inkscape.org/) -->

<svg
   version="1.1"
   id="svg1"
   width="469"
   height="469"
   viewBox="0 0 469 469"
   xmlns="http://www.w3.org/2000/svg"
   xmlns:svg="http://www.w3.org/2000/svg">
  <defs
     id="defs1" />
  <g
     id="g1">
    <g
       id="g62">
      <path
         style="fill:#ffd751;fill-opacity:1"
         d="m 202.68446,443.36384 -9.81555,-1.41949 -13.24521,-3.3947 -13.24521,-3.3947 -9.43925,-3.714 -9.43924,-3.714 -10,-4.98185 -10,-4.98186 -8.45576,-5.49331 -8.45576,-5.49331 -7.54424,-5.77396 L 95.5,395.22871 87.224878,387.50437 78.949756,379.78004 70.872468,370.14002 62.79518,360.5 55.807482,350 48.819783,339.5 42.456557,326.5 36.093331,313.5 32.479588,303 28.865845,292.5 26.467313,282.40377 24.06878,272.30755 22.53439,260.60256 21,248.89757 v -15.72502 -15.72502 l 1.024319,-8.47376 1.024319,-8.47377 1.551046,-8 1.551046,-8 2.990744,-10.49963 2.990743,-10.49963 4.952183,-12.00037 4.952183,-12.00037 6.01996,-10.5 6.019961,-10.5 6.244525,-8.72785 6.244525,-8.72785 7.71276,-8.853012 7.71276,-8.853013 9.408922,-8.302321 9.408924,-8.302321 8.84554,-6.330251 8.84554,-6.330251 10.5,-5.927506 10.5,-5.927507 8.23669,-3.581911 8.23669,-3.581911 10.58916,-3.506152 10.58915,-3.506151 11.67416,-2.451318 L 200.5,23.139356 210.21059,22.069678 219.92117,21 H 232.5 245.07883 l 9.71058,1.054516 9.71059,1.054516 12,2.401338 12,2.401338 13.49704,4.623832 13.49704,4.623832 11.99604,6.004856 11.99604,6.004857 9.50692,6.244372 9.50692,6.244372 7.91137,6.382067 7.91137,6.382067 9.9055,9.954095 9.90549,9.954095 7.7551,10.328607 7.75509,10.3286 6.41413,10.75632 6.41412,10.75632 5.33271,12.40903 5.3327,12.40903 3.43705,11.94123 3.43705,11.94124 2.07965,11.14973 2.07965,11.14974 0.54824,19.05737 0.54824,19.05736 -1.14744,9.94264 -1.14745,9.94263 -2.08547,10.5 -2.08547,10.5 -4.30035,13.11409 -4.30035,13.1141 -5.42485,11.3859 -5.42485,11.38591 -5.67471,9.15062 -5.6747,9.15063 -6.84974,8.84937 -6.84975,8.84938 -7.31675,7.82154 -7.31676,7.82153 -9.58441,8.02086 -9.58441,8.02085 -10,6.69496 -10,6.69495 -10,5.12445 -10,5.12445 -10.5,4.18056 -10.5,4.18055 -13.01028,3.33518 -13.01028,3.33519 -11.2741,1.57246 L 250.93124,445 231.71562,444.89166 212.5,444.78333 Z m 142.2036,-39.07701 8.38805,-5.42195 7.11195,-5.59687 7.11194,-5.59687 10.54075,-10.58557 10.54075,-10.58557 8.04752,-10.7654 8.04752,-10.76541 6.25568,-10.92926 6.25567,-10.92926 5.37222,-13.30533 5.37221,-13.30534 2.97931,-11.60609 2.97931,-11.60609 1.67291,-11.89391 1.6729,-11.89391 -0.002,-16.5 -0.002,-16.5 -1.73719,-11.94961 -1.7372,-11.94961 -1.12872,-3.61713 -1.12872,-3.61713 -22.45858,6.27483 -22.45858,6.27482 -0.32491,-0.32491 -0.32492,-0.32492 -2.55369,-9.31931 -2.5537,-9.31931 -3.70231,-8.58759 -3.70232,-8.5876 -5.83773,-8.97626 -5.83772,-8.97627 -6.242,-8.01301 -6.24199,-8.01301 -6.68071,-6.24947 -6.68071,-6.24948 -8.00921,-5.6122 -8.0092,-5.6122 0.47596,-1.24034 0.47596,-1.24033 L 332.95317,81.884979 345.07271,62.5 342.4368,60.383055 339.8009,58.26611 327.15045,51.732384 314.5,45.198658 l -10,-3.720621 -10,-3.72062 L 283.14535,34.879223 271.79071,32.001028 260.34414,30.500514 248.89757,29 H 233 217.10243 l -11.44657,1.500514 -11.44657,1.500514 -11.35464,2.878195 -11.35465,2.878194 -10,3.747242 -10,3.747241 -9,4.494573 -9,4.494574 -4.28811,2.496834 -4.28812,2.496835 1.74429,2.632642 L 128.41234,64.5 138.70617,82.246156 149,99.992312 l -0.0516,0.753848 -0.0516,0.75384 -8.64008,6 -8.64009,6 -9.132,9 -9.13201,9 -5.55991,7.5 -5.55991,7.5 -4.574229,8 -4.574232,8 -3.152203,7.94134 -3.152203,7.94135 -2.389981,7.98488 L 82,194.35245 v 1.94878 1.94877 l -2.75,-0.54364 -2.75,-0.54364 -21.234782,-3.76325 -21.234782,-3.76324 -0.654727,0.65473 -0.654726,0.65472 -1.359851,7.77716 -1.359852,7.77716 -1.011494,13.23027 -1.011494,13.23027 1.05533,14.26973 1.05533,14.26973 2.478995,12.33735 2.478996,12.33735 4.054663,12.16265 4.054664,12.16265 5.927217,12.14526 5.927217,12.14527 7.540717,11.28643 7.540717,11.28644 7.107657,8.37193 7.107657,8.37194 8.596274,8.05611 8.596274,8.05612 8.17676,6.14025 8.17675,6.14025 9.59667,5.848 9.59666,5.848 1.22658,-0.48096 1.22658,-0.48096 11.41849,-19.47322 11.41849,-19.47321 8.08151,3.77618 8.08151,3.77618 9,2.55769 9,2.55768 9.5,1.68356 9.5,1.68356 16.5,0.0116 16.5,0.0116 8.4293,-1.2451 8.4293,-1.2451 11.32178,-2.85935 11.32177,-2.85935 8.24893,-3.65112 8.24892,-3.65112 1.54682,-0.4808 1.54681,-0.4808 4.65587,9.81349 4.65586,9.8135 5.03105,10.85456 5.03104,10.85456 4.76628,-2.75017 4.76627,-2.75017 z"
         id="path64" />
      <path
         style="fill:#0196da;fill-opacity:1"
         d="M 256,457.5 V 457 h 0.5 0.5 v 0.5 0.5 h -0.5 -0.5 z m 8,-1 V 456 h 0.5 0.5 v 0.5 0.5 h -0.5 -0.5 z m -69,-1 V 455 h 0.5 0.5 v 0.5 0.5 h -0.5 -0.5 z m 75,0 V 455 h 0.5 0.5 v 0.5 0.5 h -0.5 -0.5 z m 6,-1 V 454 h 0.5 0.5 v 0.5 0.5 h -0.5 -0.5 z m -96,-2 V 452 h 0.5 0.5 v 0.5 0.5 h -0.5 -0.5 z m 105,0 V 452 h 0.5 0.5 v 0.5 0.5 h -0.5 -0.5 z m -109,-1 V 451 h 0.5 0.5 v 0.5 0.5 h -0.5 -0.5 z m 113,0 V 451 h 0.5 0.5 v 0.5 0.5 h -0.5 -0.5 z m 4,-1 V 450 h 0.5 0.5 v 0.5 0.5 h -0.5 -0.5 z m -124,-1 V 449 h 0.5 0.5 v 0.5 0.5 h -0.5 -0.5 z m 127,0 V 449 h 0.5 0.5 v 0.5 0.5 h -0.5 -0.5 z m -130,-1 V 448 h 0.5 0.5 v 0.5 0.5 h -0.5 -0.5 z m 137,-1 V 447 h 0.5 0.5 v 0.5 0.5 h -0.5 -0.5 z m -146,-2 V 445 h 0.5 0.5 v 0.5 0.5 h -0.5 -0.5 z m -3,-1 V 444 h 0.5 0.5 v 0.5 0.5 h -0.5 -0.5 z m 157,0 V 444 h 0.5 0.5 v 0.5 0.5 h -0.5 -0.5 z m -162,-2 V 442 h 0.5 0.5 v 0.5 0.5 h -0.5 -0.5 z m -3,-1 V 441 h 0.5 0.5 v 0.5 0.5 h -0.5 -0.5 z m 173,0 V 441 h 0.5 0.5 v 0.5 0.5 h -0.5 -0.5 z m -175,-1 V 440 h 0.5 0.5 v 0.5 0.5 h -0.5 -0.5 z m 177,0 V 440 h 0.5 0.5 v 0.5 0.5 h -0.5 -0.5 z m -182,-2 V 438 h 0.5 0.5 v 0.5 0.5 h -0.5 -0.5 z m 187,0 V 438 h 0.5 0.5 v 0.5 0.5 h -0.5 -0.5 z m -189,-1 V 437 h 0.5 0.5 v 0.5 0.5 h -0.5 -0.5 z m 191,0 V 437 h 0.5 0.5 v 0.5 0.5 h -0.5 -0.5 z m -193,-1 V 436 h 0.5 0.5 v 0.5 0.5 h -0.5 -0.5 z m 195,0 V 436 h 0.5 0.5 v 0.5 0.5 h -0.5 -0.5 z m -197,-1 V 435 h 0.5 0.5 v 0.5 0.5 h -0.5 -0.5 z m 199,0 V 435 h 0.5 0.5 v 0.5 0.5 h -0.5 -0.5 z m -201,-1 V 434 h 0.5 0.5 v 0.5 0.5 h -0.5 -0.5 z m 203,0 V 434 h 0.5 0.5 v 0.5 0.5 h -0.5 -0.5 z m -205,-1 V 433 h 0.5 0.5 v 0.5 0.5 h -0.5 -0.5 z m 207,0 V 433 h 0.5 0.5 v 0.5 0.5 h -0.5 -0.5 z m -209,-1 V 432 h 0.5 0.5 v 0.5 0.5 h -0.5 -0.5 z m 211,0 V 432 h 0.5 0.5 v 0.5 0.5 h -0.5 -0.5 z m -213,-1 V 431 h 0.5 0.5 v 0.5 0.5 h -0.5 -0.5 z m 215,0 V 431 h 0.5 0.5 v 0.5 0.5 h -0.5 -0.5 z m 2,-1 V 430 h 0.5 0.5 v 0.5 0.5 h -0.5 -0.5 z m -222,-2 V 428 h 0.5 0.5 v 0.5 0.5 h -0.5 -0.5 z m -2,-1 V 427 h 0.5 0.5 v 0.5 0.5 h -0.5 -0.5 z m 229,0 V 427 h 0.5 0.5 v 0.5 0.5 h -0.5 -0.5 z m -232,-2 V 425 h 0.5 0.5 v 0.5 0.5 h -0.5 -0.5 z m -2,-1 V 424 h 0.5 0.5 v 0.5 0.5 h -0.5 -0.5 z m 239,0 V 424 h 0.5 0.5 v 0.5 0.5 h -0.5 -0.5 z m -242,-2 V 422 h 0.5 0.5 v 0.5 0.5 h -0.5 -0.5 z m 245,0 V 422 h 0.5 0.5 v 0.5 0.5 h -0.5 -0.5 z m -248,-2 V 420 h 0.5 0.5 v 0.5 0.5 h -0.5 -0.5 z m 251,0 V 420 h 0.5 0.5 v 0.5 0.5 h -0.5 -0.5 z m -254,-2 V 418 h 0.5 0.5 v 0.5 0.5 h -0.5 -0.5 z m 257,0 V 418 h 0.5 0.5 v 0.5 0.5 h -0.5 -0.5 z m 3,-2 V 416 h 0.5 0.5 v 0.5 0.5 h -0.5 -0.5 z m -267,-3 V 413 h 0.5 0.5 v 0.5 0.5 H 97.5 97 Z m 271,0 V 413 h 0.5 0.5 v 0.5 0.5 h -0.5 -0.5 z m 4,-3 V 410 h 0.5 0.5 v 0.5 0.5 h -0.5 -0.5 z m -280,-1 V 409 h 0.5 0.5 v 0.5 0.5 H 92.5 92 Z m 285.5,-3.5 0.61803,-1 h 0.5 0.5 l -0.61803,1 -0.61803,1 h -0.5 -0.5 z M 87,405.5 V 405 h 0.5 0.5 v 0.5 0.5 H 87.5 87 Z m 299.5,-7.5 0.61803,-1 h 0.5 0.5 l -0.61803,1 -0.61803,1 h -0.5 -0.5 z M 76.404988,395.75 74.5,393.5 l 2.25,1.90499 2.25,1.90499 V 397.65499 398 H 78.654988 78.309975 Z M 122,397.5 V 397 h 0.5 0.5 v 0.5 0.5 h -0.5 -0.5 z m 2,0 V 397 h 0.5 0.5 v 0.5 0.5 h -0.5 -0.5 z m -10.07569,-5.25 -2.42431,-2.75 2.75,2.42431 2.75,2.42432 V 394.67431 395 h -0.32569 -0.32568 z M 390,394.5 V 394 h 0.5 0.5 v 0.5 0.5 h -0.5 -0.5 z m -263,-1 V 393 h 0.5 0.5 v 0.5 0.5 H 127.5 127 Z M 68.924314,388.25 66.5,385.5 l 2.75,2.42431 2.75,2.42432 V 390.67431 391 h -0.325686 -0.325686 z m 58.409016,1.08333 0.66667,-0.66666 0.66667,0.66666 L 129.33333,390 H 128 126.66667 Z m 223.12555,-1.39986 -0.65915,-1.06653 0.35013,-0.33261 0.35014,-0.33261 1.28943,1.39914 1.28942,1.39914 h -0.98041 -0.98041 z M 122,387.5 V 387 h 0.5 0.5 v 0.5 0.5 h -0.5 -0.5 z m 234,0 V 387 h 0.5 0.5 v 0.5 0.5 h -0.5 -0.5 z m 42.5,-1.5 0.61803,-1 h 0.5 0.5 l -0.61803,1 -0.61803,1 h -0.5 -0.5 z M 109,384.5 V 384 h 0.5 0.5 v 0.5 0.5 h -0.5 -0.5 z m 10,0 V 384 h 0.5 0.5 v 0.5 0.5 h -0.5 -0.5 z m 245,-2 2.34863,-2.5 h 0.5 0.5 L 365,382.5 362.65137,385 h -0.5 -0.5 z m -246,0 V 382 h 0.5 0.5 v 0.5 0.5 h -0.5 -0.5 z m 231,-0.83333 V 380 l 1.75,0.0153 1.75,0.0153 -1,0.74632 -1,0.74632 -0.75,0.90503 -0.75,0.90503 z m -129.74848,-1.7521 -8.24849,-0.78226 -8.22466,-1.67751 -8.22467,-1.67752 -9.94244,-3.46074 -9.94245,-3.46074 -7.63769,-3.84015 -7.6377,-3.84016 -9.44671,-6.27535 L 140.5,348.6248 128.9376,337.0624 117.3752,325.5 l -6.27534,-9.44671 -6.27535,-9.44671 -3.78606,-7.55329 -3.786053,-7.55329 -2.60541,-7.25197 -2.60541,-7.25196 -1.940894,-7.74804 -1.940894,-7.74803 -1.117014,-7.4308 -1.117015,-7.4308 0.01402,-14.0692 0.01402,-14.0692 1.5483,-9 1.5483,-9 2.451298,-8.60647 2.451297,-8.60646 3.539991,-8.27067 3.539994,-8.27066 5.40697,-9.12287 5.40696,-9.12287 6.59026,-8.17915 6.59026,-8.17914 7.73629,-7.1309 7.73629,-7.1309 8.5,-5.81379 8.5,-5.81379 10,-5.00414 10,-5.00414 9.52394,-3.045782 9.52394,-3.045782 8.47606,-1.826243 L 213.5,86.5 h 19.5 19.5 l 8.5,1.812375 8.5,1.812374 10.14427,3.374491 10.14428,3.374491 9.35572,4.689849 9.35573,4.68985 8.9962,6.12328 8.9962,6.12329 10.53704,10.51102 10.53704,10.51101 7.20654,10.77717 7.20654,10.77716 4.04192,8.46864 4.04192,8.46865 2.85421,8.74318 2.85422,8.74317 1.85217,8.5 1.85217,8.5 0.0119,20.5 0.0119,20.5 -1.85635,8.5 -1.85635,8.5 -2.50983,8 -2.50982,8 -4.39769,9.42574 -4.39768,9.42573 -6.66772,10.07427 -6.66772,10.07426 -11.56842,11.5624 -11.56842,11.5624 -9.44671,6.27534 -9.44671,6.27535 -7.94101,3.99266 -7.94101,3.99266 -11.61228,3.84234 -11.61228,3.84234 -9.5,1.55764 -9.5,1.55764 -10.5,0.36803 -10.5,0.36803 z M 234,346.5 V 323 h -24.08333 -24.08334 l 0.33334,0.86043 0.33333,0.86043 23.5,22.60901 23.5,22.609 0.25,0.0306 L 234,370 Z m 29,-2.47643 20.5,-19.25942 0.33333,-0.88207 L 284.16667,323 H 259.58333 235 v 23.70295 23.70295 l 3.75,-3.56145 3.75,-3.56145 z m 80,-26.37108 v -0.34751 L 314.15082,257.90249 285.30164,198.5 l -2.16694,-4.24176 -2.16694,-4.24176 4.84053,1.90795 4.84053,1.90796 36.24541,14.58381 L 363.13964,223 h 0.76967 0.76966 l 1.13686,-2.49514 1.13686,-2.49514 -4.72634,-2.39397 -4.72635,-2.39396 -37.5,-17.76164 -37.5,-17.76163 -5,-2.14732 -5,-2.14731 -0.18288,-1.00057 -0.18287,-1.00057 -18.13877,-37.43969 -18.13878,-37.439689 -0.44174,-0.441743 -0.44174,-0.441743 0.0449,51.815205 0.0449,51.81521 -0.53151,0.53152 L 234,200.33333 v -4.93154 -4.93154 L 215.91333,182.23513 197.82667,174 l -1.16334,0.009 -1.16333,0.009 -46,21.79186 -46,21.79187 0.33357,1.94942 0.33358,1.94942 0.77451,0.80808 0.7745,0.80808 41.15627,-16.46855 41.15626,-16.46855 23.48565,12.97572 L 235,216.13051 V 267.06525 318 h 54 54 z M 239,213.5 V 213 h 0.5 0.5 v 0.5 0.5 h -0.5 -0.5 z m 2,-1 V 212 h 0.5 0.5 v 0.5 0.5 h -0.5 -0.5 z m 2,-1 V 211 h 0.5 0.5 v 0.5 0.5 h -0.5 -0.5 z m 5,-3 V 208 h 0.5 0.5 v 0.5 0.5 h -0.5 -0.5 z m 2,-1 V 207 h 0.5 0.5 v 0.5 0.5 h -0.5 -0.5 z m 2,-1 V 206 h 0.5 0.5 v 0.5 0.5 h -0.5 -0.5 z m 7,-4 V 202 h 0.5 0.5 v 0.5 0.5 h -0.5 -0.5 z m 2,-1 V 201 h 0.5 0.5 v 0.5 0.5 h -0.5 -0.5 z m 2,-1 V 200 h 0.5 0.5 v 0.5 0.5 h -0.5 -0.5 z m 5,-3 V 197 h 0.5 0.5 v 0.5 0.5 h -0.5 -0.5 z m 2,-1 V 196 h 0.5 0.5 v 0.5 0.5 h -0.5 -0.5 z m 2,-1 V 195 h 0.5 0.5 v 0.5 0.5 h -0.5 -0.5 z m 7,-4 V 191 h 0.5 0.5 v 0.5 0.5 h -0.5 -0.5 z m -37,-4 V 187 h 0.5 0.5 v 0.5 0.5 h -0.5 -0.5 z m 2,-1 V 186 h 0.5 0.5 v 0.5 0.5 h -0.5 -0.5 z m 2,-1 V 185 h 0.5 0.5 v 0.5 0.5 h -0.5 -0.5 z m 2,-1 V 184 h 0.5 0.5 v 0.5 0.5 h -0.5 -0.5 z m 7,-3 V 181 h 0.5 0.5 v 0.5 0.5 h -0.5 -0.5 z m 2,-1 V 180 h 0.5 0.5 v 0.5 0.5 h -0.5 -0.5 z m 2,-1 V 179 h 0.5 0.5 v 0.5 0.5 h -0.5 -0.5 z m 7,-3 V 176 h 0.5 0.5 v 0.5 0.5 h -0.5 -0.5 z m 2,-1 V 175 h 0.5 0.5 v 0.5 0.5 h -0.5 -0.5 z m 2,-1 V 174 h 0.5 0.5 v 0.5 0.5 h -0.5 -0.5 z m 85,205 V 379 h 0.5 0.5 v 0.5 0.5 h -0.5 -0.5 z m -295,-1 V 378 h 0.5 0.5 v 0.5 0.5 H 60.5 60 Z m 77,-0.5 v -1.33333 l 0.66667,0.66666 0.66666,0.66667 -0.66666,0.66667 L 137,379.33333 Z m 230,0.5 V 378 h 0.5 0.5 v 0.5 0.5 h -0.5 -0.5 z m -249,-1 V 377 h 0.5 0.5 v 0.5 0.5 h -0.5 -0.5 z m 21,0 V 377 h 0.5 0.5 v 0.5 0.5 h -0.5 -0.5 z m 219,0 V 377 h 0.5 0.5 v 0.5 0.5 h -0.5 -0.5 z m 48,0 V 377 h 0.5 0.5 v 0.5 0.5 h -0.5 -0.5 z m -38,-1 V 376 h 0.5 0.5 v 0.5 0.5 h -0.5 -0.5 z m -26,-2 V 374 h 0.5 0.5 v 0.5 0.5 h -0.5 -0.5 z m 5,0 V 374 h 0.5 0.5 v 0.5 0.5 h -0.5 -0.5 z m -291,-1 V 373 h 0.5 0.5 v 0.5 0.5 H 56.5 56 Z m 64.5,-0.5 0.61803,-1 h 0.5 0.5 l -0.61803,1 -0.61803,1 h -0.5 -0.5 z m 13.90451,-0.15451 -0.71353,-1.15451 1.15451,0.71353 L 136,373.11803 V 373.55902 374 h -0.44098 -0.44099 z M 142,373.5 V 373 h 0.5 0.5 v 0.5 0.5 h -0.5 -0.5 z m 217,0 V 373 h 0.5 0.5 v 0.5 0.5 h -0.5 -0.5 z m -6,-1 V 372 h 0.5 0.5 v 0.5 0.5 h -0.5 -0.5 z m 57,0 V 372 h 0.5 0.5 v 0.5 0.5 h -0.5 -0.5 z m -300,-1 V 371 h 0.5 0.5 v 0.5 0.5 H 110.5 110 Z M 356.33333,371.33333 357,370.66667 357.66667,371.33333 358.33333,372 H 357 355.66667 Z M 124,370.5 V 370 h 0.5 0.5 v 0.5 0.5 h -0.5 -0.5 z m 7,0 V 370 h 0.5 0.5 v 0.5 0.5 h -0.5 -0.5 z m 237,0 V 370 h 0.5 0.5 v 0.5 0.5 h -0.5 -0.5 z m -257,-1 V 369 h 0.5 0.5 v 0.5 0.5 h -0.5 -0.5 z m 32,0 V 369 h 0.5 0.5 v 0.5 0.5 h -0.5 -0.5 z m 270,-1 V 368 h 0.5 0.5 v 0.5 0.5 h -0.5 -0.5 z m -77,-1 V 367 h 0.5 0.5 v 0.5 0.5 h -0.5 -0.5 z m 30,-1 V 366 h 0.5 0.5 v 0.5 0.5 h -0.5 -0.5 z m -316,-1 V 365 h 0.5 0.5 v 0.5 0.5 H 50.5 50 Z m 328,0 V 365 h 0.5 0.5 v 0.5 0.5 h -0.5 -0.5 z m -33,-1 V 364 h 0.5 0.5 v 0.5 0.5 h -0.5 -0.5 z m 4,0 V 364 h 0.5 0.5 v 0.5 0.5 h -0.5 -0.5 z m 34,0 V 364 h 0.5 0.5 v 0.5 0.5 h -0.5 -0.5 z m 33,0 V 364 h 0.5 0.5 v 0.5 0.5 h -0.5 -0.5 z m -299,-1 V 363 h 0.5 0.5 v 0.5 0.5 h -0.5 -0.5 z m 20,0 V 363 h 0.5 0.5 v 0.5 0.5 h -0.5 -0.5 z m 198,0 V 363 h 0.5 0.5 v 0.5 0.5 h -0.5 -0.5 z m 17,0 V 363 h 0.5 0.5 v 0.5 0.5 h -0.5 -0.5 z m -233,-1 V 362 h 0.5 0.5 v 0.5 0.5 h -0.5 -0.5 z m 16,0 V 362 h 0.5 0.5 v 0.5 0.5 H 135.5 135 Z M 354.33333,362.33333 355,361.66667 355.66667,362.33333 356.33333,363 H 355 353.66667 Z M 47,361.5 V 361 h 0.5 0.5 v 0.5 0.5 H 47.5 47 Z m 74.33333,-0.16667 0.66667,-0.66666 0.66667,0.66666 L 123.33333,362 H 122 120.66667 Z M 132,361.5 V 361 h 0.5 0.5 v 0.5 0.5 h -0.5 -0.5 z m 286,0 V 361 h 0.5 0.5 v 0.5 0.5 h -0.5 -0.5 z m -72.5,-1.5 0.61803,-1 h 0.5 0.5 l -0.61803,1 -0.61803,1 h -0.5 -0.5 z m 29.5,0.5 V 360 h 0.5 0.5 v 0.5 0.5 h -0.5 -0.5 z m -39,-1 V 359 h 0.5 0.5 v 0.5 0.5 h -0.5 -0.5 z m -291,-1 V 358 h 0.5 0.5 v 0.5 0.5 H 45.5 45 Z m 375,0 V 358 h 0.5 0.5 v 0.5 0.5 h -0.5 -0.5 z m -83,-1 V 357 h 0.5 0.5 v 0.5 0.5 h -0.5 -0.5 z m 13,0.10699 v -0.39301 l 1.55194,-0.59554 1.55194,-0.59553 -0.61096,0.98854 L 351.88197,358 H 350.94098 350 Z M 373,357.5 V 357 h 0.5 0.5 v 0.5 0.5 h -0.5 -0.5 z m 11,0 V 357 h 0.5 0.5 v 0.5 0.5 h -0.5 -0.5 z m -341,-2 V 355 h 0.5 0.5 v 0.5 0.5 H 43.5 43 Z m 379,0 V 355 h 0.5 0.5 v 0.5 0.5 h -0.5 -0.5 z m -347,-2 V 353 h 0.5 0.5 v 0.5 0.5 H 75.5 75 Z m 2,0 V 353 h 0.5 0.5 v 0.5 0.5 H 77.5 77 Z m 264,0 V 353 h 0.5 0.5 v 0.5 0.5 h -0.5 -0.5 z m 10,-1.5 v -1.33333 l 0.66667,0.66666 0.66666,0.66667 -0.66666,0.66667 L 351,353.33333 Z m 19,0.5 V 352 h 0.5 0.5 v 0.5 0.5 h -0.5 -0.5 z m 54,0 V 352 h 0.5 0.5 v 0.5 0.5 h -0.5 -0.5 z m -344,-1 V 351 h 0.5 0.5 v 0.5 0.5 H 80.5 80 Z m 305,0 V 351 h 0.5 0.5 v 0.5 0.5 h -0.5 -0.5 z m -345,-1 V 350 h 0.5 0.5 v 0.5 0.5 H 40.5 40 Z m 33,0 V 350 h 0.5 0.5 v 0.5 0.5 H 73.5 73 Z m 274,0 V 350 h 0.5 0.5 v 0.5 0.5 h -0.5 -0.5 z m -264,-1 V 349 h 0.5 0.5 v 0.5 0.5 H 83.5 83 Z m 267,0 V 349 h 0.5 0.5 v 0.5 0.5 h -0.5 -0.5 z m 18,0 V 349 h 0.5 0.5 v 0.5 0.5 h -0.5 -0.5 z m 58,0 V 349 h 0.5 0.5 v 0.5 0.5 h -0.5 -0.5 z m -388,-2 V 347 h 0.5 0.5 v 0.5 0.5 H 38.5 38 Z M 71,347 v -1.33333 l 0.666667,0.66666 L 72.333333,347 71.666667,347.66667 71,348.33333 Z m 15,0.5 V 347 h 0.5 0.5 v 0.5 0.5 H 86.5 86 Z m 281,0 V 347 h 0.5 0.5 v 0.5 0.5 h -0.5 -0.5 z m 12.5,-0.5 0.61803,-1 h 0.5 0.5 l -0.61803,1 -0.61803,1 h -0.5 -0.5 z m 8.5,0.5 V 347 h 0.5 0.5 v 0.5 0.5 h -0.5 -0.5 z m 39,0 V 347 h 0.5 0.5 v 0.5 0.5 H 427.5 427 Z M 395.33333,346.33333 396,345.66667 396.66667,346.33333 397.33333,347 H 396 394.66667 Z M 37,345.5 V 345 h 0.5 0.5 v 0.5 0.5 H 37.5 37 Z m 52,0 V 345 h 0.5 0.5 v 0.5 0.5 H 89.5 89 Z m 287,0 V 345 h 0.5 0.5 v 0.5 0.5 h -0.5 -0.5 z m 16,0 V 345 h 0.5 0.5 v 0.5 0.5 h -0.5 -0.5 z m -318,-1 V 344 h 0.5 0.5 v 0.5 0.5 H 74.5 74 Z m 30,0 V 344 h 0.5 0.5 v 0.5 0.5 h -0.5 -0.5 z m 261,0 V 344 h 0.5 0.5 v 0.5 0.5 h -0.5 -0.5 z m 33,0 V 344 h 0.5 0.5 v 0.5 0.5 h -0.5 -0.5 z m -306,-1 V 343 h 0.5 0.5 v 0.5 0.5 H 92.5 92 Z m -15,-1 V 342 h 0.5 0.5 v 0.5 0.5 H 77.5 77 Z m 30,0 V 342 h 0.5 0.5 v 0.5 0.5 h -0.5 -0.5 z m 267,0 V 342 h 0.5 0.5 v 0.5 0.5 h -0.5 -0.5 z m 8,0 V 342 h 0.5 0.5 v 0.5 0.5 h -0.5 -0.5 z m 48,0 V 342 h 0.5 0.5 v 0.5 0.5 h -0.5 -0.5 z m -335,-1 V 341 h 0.5 0.5 v 0.5 0.5 H 95.5 95 Z m 268,0 V 341 h 0.5 0.5 v 0.5 0.5 h -0.5 -0.5 z m -283,-1 V 340 h 0.5 0.5 v 0.5 0.5 H 80.5 80 Z m 29,0 V 340 h 0.5 0.5 v 0.5 0.5 h -0.5 -0.5 z m 292,0 V 340 h 0.5 0.5 v 0.5 0.5 h -0.5 -0.5 z m 30,0 V 340 h 0.5 0.5 v 0.5 0.5 h -0.5 -0.5 z m -333,-1 V 339 h 0.5 0.5 v 0.5 0.5 H 98.5 98 Z m 264,0 V 339 h 0.5 0.5 v 0.5 0.5 h -0.5 -0.5 z m 10,0 V 339 h 0.5 0.5 v 0.5 0.5 h -0.5 -0.5 z m 2,0 V 339 h 0.5 0.5 v 0.5 0.5 h -0.5 -0.5 z m -341,-1 V 338 h 0.5 0.5 v 0.5 0.5 H 33.5 33 Z m 50,0 V 338 h 0.5 0.5 v 0.5 0.5 H 83.5 83 Z m 318,0 V 338 h 0.5 0.5 v 0.5 0.5 h -0.5 -0.5 z m 31,0 V 338 h 0.5 0.5 v 0.5 0.5 h -0.5 -0.5 z m -325,-1 V 337 h 0.5 0.5 v 0.5 0.5 H 107.5 107 Z M 361,337 v -1.33333 l 0.66667,0.66666 0.66666,0.66667 -0.66666,0.66667 L 361,338.33333 Z m 36.33333,0.33333 0.66667,-0.66666 0.66667,0.66666 L 399.33333,338 H 398 396.66667 Z M 32,336.5 V 336 h 0.5 0.5 v 0.5 0.5 H 32.5 32 Z m 54,0 V 336 h 0.5 0.5 v 0.5 0.5 H 86.5 86 Z m 308,0 V 336 h 0.5 0.5 v 0.5 0.5 h -0.5 -0.5 z m 39,0 V 336 h 0.5 0.5 v 0.5 0.5 h -0.5 -0.5 z m -42,-1 V 335 h 0.5 0.5 v 0.5 0.5 h -0.5 -0.5 z m -360,-1 V 334 h 0.5 0.5 v 0.5 0.5 H 31.5 31 Z m 58,0 V 334 h 0.5 0.5 v 0.5 0.5 H 89.5 89 Z m 16,0 V 334 h 0.5 0.5 v 0.5 0.5 h -0.5 -0.5 z m 282,0 V 334 h 0.5 0.5 v 0.5 0.5 h -0.5 -0.5 z m 47,0 V 334 h 0.5 0.5 v 0.5 0.5 h -0.5 -0.5 z m -72,-1 V 333 h 0.5 0.5 v 0.5 0.5 h -0.5 -0.5 z m 22,0 V 333 h 0.5 0.5 v 0.5 0.5 h -0.5 -0.5 z m -354,-1 V 332 h 0.5 0.5 v 0.5 0.5 H 30.5 30 Z M 380.33333,332.33333 381,331.66667 381.66667,332.33333 382.33333,333 H 381 379.66667 Z M 435,332.5 V 332 h 0.5 0.5 v 0.5 0.5 h -0.5 -0.5 z m -342,-1 V 331 h 0.5 0.5 v 0.5 0.5 H 93.5 93 Z m 10,0 V 331 h 0.5 0.5 v 0.5 0.5 h -0.5 -0.5 z m 274,0 V 331 h 0.5 0.5 v 0.5 0.5 h -0.5 -0.5 z m -348,-1 V 330 h 0.5 0.5 v 0.5 0.5 H 29.5 29 Z m 336.22619,-1.07872 1.72619,-1.80223 0.47833,0.47833 0.47833,0.47833 -2.20452,1.3239 -2.20452,1.3239 z M 374,330.5 V 330 h 0.5 0.5 v 0.5 0.5 h -0.5 -0.5 z m 62,0 V 330 h 0.5 0.5 v 0.5 0.5 h -0.5 -0.5 z m -344,-1 V 329 h 0.5 0.5 v 0.5 0.5 H 92.5 92 Z m 278,0 V 329 h 0.5 0.5 v 0.5 0.5 h -0.5 -0.5 z m -342,-1 V 328 h 0.5 0.5 v 0.5 0.5 H 28.5 28 Z m 73,0 V 328 h 0.5 0.5 v 0.5 0.5 h -0.5 -0.5 z m 336,0 V 328 h 0.5 0.5 v 0.5 0.5 h -0.5 -0.5 z m -374,-1 V 327 h 0.5 0.5 v 0.5 0.5 H 63.5 63 Z m 7,0 V 327 h 0.5 0.5 v 0.5 0.5 H 70.5 70 Z m 334,0 V 327 h 0.5 0.5 v 0.5 0.5 h -0.5 -0.5 z m 3,0 V 327 h 0.5 0.5 v 0.5 0.5 h -0.5 -0.5 z m -346,-1 V 326 h 0.5 0.5 v 0.5 0.5 H 61.5 61 Z m 12,0 V 326 h 0.5 0.5 v 0.5 0.5 H 73.5 73 Z m 17,0 V 326 h 0.5 0.5 v 0.5 0.5 H 90.5 90 Z m 312,0 V 326 h 0.5 0.5 v 0.5 0.5 h -0.5 -0.5 z m 36,0 V 326 h 0.5 0.5 v 0.5 0.5 h -0.5 -0.5 z m -363,-1 V 325 h 0.5 0.5 v 0.5 0.5 H 75.5 75 Z m 24,0 V 325 h 0.5 0.5 v 0.5 0.5 H 99.5 99 Z m 301,0 V 325 h 0.5 0.5 v 0.5 0.5 h -0.5 -0.5 z m -310,-1 V 324 h 0.5 0.5 v 0.5 0.5 H 90.5 90 Z m -64,-1 V 323 h 0.5 0.5 v 0.5 0.5 H 26.5 26 Z m 369,0 V 323 h 0.5 0.5 v 0.5 0.5 h -0.5 -0.5 z m -313,-1 V 322 h 0.5 0.5 v 0.5 0.5 H 82.5 82 Z m 11,0 V 322 h 0.5 0.5 v 0.5 0.5 H 93.5 93 Z m 4,0 V 322 h 0.5 0.5 v 0.5 0.5 H 97.5 97 Z m 296,0 V 322 h 0.5 0.5 v 0.5 0.5 h -0.5 -0.5 z m 16,0 V 322 h 0.5 0.5 v 0.5 0.5 h -0.5 -0.5 z m -384,-1 V 321 h 0.5 0.5 v 0.5 0.5 H 25.5 25 Z m 59,0 V 321 h 0.5 0.5 v 0.5 0.5 H 84.5 84 Z m 307,0 V 321 h 0.5 0.5 v 0.5 0.5 h -0.5 -0.5 z m 49,0 V 321 h 0.5 0.5 v 0.5 0.5 h -0.5 -0.5 z m -354,-1 V 320 h 0.5 0.5 v 0.5 0.5 H 86.5 86 Z m 324,0 V 320 h 0.5 0.5 v 0.5 0.5 h -0.5 -0.5 z m -322,-1 V 319 h 0.5 0.5 v 0.5 0.5 H 88.5 88 Z m 298,0 V 319 h 0.5 0.5 v 0.5 0.5 h -0.5 -0.5 z m 55,0 V 319 h 0.5 0.5 v 0.5 0.5 h -0.5 -0.5 z m -387,-1 V 318 h 0.5 0.5 v 0.5 0.5 H 54.5 54 Z M 66.333333,318.33333 67,317.66667 67.666667,318.33333 68.333333,319 H 67 65.666667 Z M 90,318.5 V 318 h 0.5 0.5 v 0.5 0.5 H 90.5 90 Z m 294,0 V 318 h 0.5 0.5 v 0.5 0.5 h -0.5 -0.5 z m 27,0 V 318 h 0.5 0.5 v 0.5 0.5 h -0.5 -0.5 z m -341,-1 V 317 h 0.5 0.5 v 0.5 0.5 H 70.5 70 Z m 312,0 V 317 h 0.5 0.5 v 0.5 0.5 h -0.5 -0.5 z m -359,-1 V 316 h 0.5 0.5 v 0.5 0.5 H 23.5 23 Z M 402.33333,316.33333 403,315.66667 403.66667,316.33333 404.33333,317 H 403 401.66667 Z M 53,315.5 V 315 h 0.5 0.5 v 0.5 0.5 H 53.5 53 Z m 22,0 V 315 h 0.5 0.5 v 0.5 0.5 H 75.5 75 Z m 18,0 V 315 h 0.5 0.5 v 0.5 0.5 H 93.5 93 Z m 284,0 V 315 h 0.5 0.5 v 0.5 0.5 h -0.5 -0.5 z m 23,0 V 315 h 0.5 0.5 v 0.5 0.5 h -0.5 -0.5 z m -323,-1 V 314 h 0.5 0.5 v 0.5 0.5 H 77.5 77 Z m 298,0 V 314 h 0.5 0.5 v 0.5 0.5 h -0.5 -0.5 z m 23,0 V 314 h 0.5 0.5 v 0.5 0.5 h -0.5 -0.5 z m 6,0 V 314 h 0.5 0.5 v 0.5 0.5 h -0.5 -0.5 z m 39,0 V 314 h 0.5 0.5 v 0.5 0.5 h -0.5 -0.5 z m -382,-1 V 313 h 0.5 0.5 v 0.5 0.5 H 61.5 61 Z m 18,0 V 313 h 0.5 0.5 v 0.5 0.5 H 79.5 79 Z m 13,0 V 313 h 0.5 0.5 v 0.5 0.5 H 92.5 92 Z m -11,-1 V 312 h 0.5 0.5 v 0.5 0.5 H 81.5 81 Z m 324,0 V 312 h 0.5 0.5 v 0.5 0.5 h -0.5 -0.5 z m -384,-1 V 311 h 0.5 0.5 v 0.5 0.5 H 21.5 21 Z m 31.078947,-1.08333 0.07895,-1.91667 0.525219,1.3125 0.525219,1.3125 -0.604166,0.60417 L 52,312.33333 Z M 91,311.5 V 311 h 0.5 0.5 v 0.5 0.5 H 91.5 91 Z m 300,0 V 311 h 0.5 0.5 v 0.5 0.5 h -0.5 -0.5 z m 23,0 V 311 h 0.5 0.5 v 0.5 0.5 h -0.5 -0.5 z m 30,0 V 311 h 0.5 0.5 v 0.5 0.5 h -0.5 -0.5 z m -383,-1 V 310 h 0.5 0.5 v 0.5 0.5 H 61.5 61 Z m 328,0 V 310 h 0.5 0.5 v 0.5 0.5 h -0.5 -0.5 z m 17,0 V 310 h 0.5 0.5 v 0.5 0.5 h -0.5 -0.5 z m -316,-1 V 309 h 0.5 0.5 v 0.5 0.5 H 90.5 90 Z m 286,0 V 309 h 0.5 0.5 v 0.5 0.5 h -0.5 -0.5 z m 38,0 V 309 h 0.5 0.5 v 0.5 0.5 h -0.5 -0.5 z m -394,-1 V 308 h 0.5 0.5 v 0.5 0.5 H 20.5 20 Z m 364,0 V 308 h 0.5 0.5 v 0.5 0.5 h -0.5 -0.5 z m -7,-1 V 307 h 0.5 0.5 v 0.5 0.5 h -0.5 -0.5 z m 5,0 V 307 h 0.5 0.5 v 0.5 0.5 h -0.5 -0.5 z m 27,0 V 307 h 0.5 0.5 v 0.5 0.5 h -0.5 -0.5 z m -344,-1 V 306 h 0.5 0.5 v 0.5 0.5 H 65.5 65 Z m 315,0 V 306 h 0.5 0.5 v 0.5 0.5 h -0.5 -0.5 z m 66,0 V 306 h 0.5 0.5 v 0.5 0.5 h -0.5 -0.5 z m -427,-1 V 305 h 0.5 0.5 v 0.5 0.5 H 19.5 19 Z m 34,0 V 305 h 0.5 0.5 v 0.5 0.5 H 53.5 53 Z m 14,0 V 305 h 0.5 0.5 v 0.5 0.5 H 67.5 67 Z m 2,-1 V 304 h 0.5 0.5 v 0.5 0.5 H 69.5 69 Z m -15,-1 V 303 h 0.5 0.5 v 0.5 0.5 H 54.5 54 Z m 17,0 V 303 h 0.5 0.5 v 0.5 0.5 H 71.5 71 Z m 376,0 V 303 h 0.5 0.5 v 0.5 0.5 h -0.5 -0.5 z m -429,-1 V 302 h 0.5 0.5 v 0.5 0.5 H 18.5 18 Z m 55,0 V 302 h 0.5 0.5 v 0.5 0.5 H 73.5 73 Z m -15.5,-2.5 0.618034,-1 h 0.5 0.5 L 58.5,300 l -0.618034,1 h -0.5 -0.5 z M 448,300.5 V 300 h 0.5 0.5 v 0.5 0.5 h -0.5 -0.5 z m -431,-1 V 299 h 0.5 0.5 v 0.5 0.5 H 17.5 17 Z m 63,0 V 299 h 0.5 0.5 v 0.5 0.5 H 80.5 80 Z m -20,-1 V 298 h 0.5 0.5 v 0.5 0.5 H 60.5 60 Z m 22,0 V 298 h 0.5 0.5 v 0.5 0.5 H 82.5 82 Z m -20,-1 V 297 h 0.5 0.5 v 0.5 0.5 H 62.5 62 Z M 84,297 v -1.33333 l 0.666667,0.66666 L 85.333333,297 84.666667,297.66667 84,298.33333 Z M 16,296.5 V 296 h 0.5 0.5 v 0.5 0.5 H 16.5 16 Z m 48,0 V 296 h 0.5 0.5 v 0.5 0.5 H 64.5 64 Z m 337,0 V 296 h 0.5 0.5 v 0.5 0.5 h -0.5 -0.5 z m 11,0 V 296 h 0.5 0.5 v 0.5 0.5 h -0.5 -0.5 z m 37,0 V 296 h 0.5 0.5 v 0.5 0.5 h -0.5 -0.5 z m -51,-1 V 295 h 0.5 0.5 v 0.5 0.5 h -0.5 -0.5 z m 17,0 V 295 h 0.5 0.5 v 0.5 0.5 H 415.5 415 Z M 46.5,294 l 0.618034,-1 h 0.5 0.5 L 47.5,294 l -0.618034,1 h -0.5 -0.5 z M 83,294.5 V 294 h 0.5 0.5 v 0.5 0.5 H 83.5 83 Z m 313,0 V 294 h 0.5 0.5 v 0.5 0.5 h -0.5 -0.5 z m 23.5,-2.5 1.80998,-2 h 0.5 0.5 l -1.80998,2 -1.80998,2 h -0.5 -0.5 z m 30.5,1.5 V 293 h 0.5 0.5 v 0.5 0.5 h -0.5 -0.5 z m -435,-1 V 292 h 0.5 0.5 v 0.5 0.5 H 15.5 15 Z M 44,292 v -1.33333 l 0.666667,0.66666 L 45.333333,292 44.666667,292.66667 44,293.33333 Z m 29,0.5 V 292 h 0.5 0.5 v 0.5 0.5 H 73.5 73 Z m 9,0 V 292 h 0.5 0.5 v 0.5 0.5 H 82.5 82 Z m -32,-1 V 291 h 0.5 0.5 v 0.5 0.5 H 50.5 50 Z m 25,0 V 291 h 0.5 0.5 v 0.5 0.5 H 75.5 75 Z m 2,-1 V 290 h 0.5 0.5 v 0.5 0.5 H 77.5 77 Z m -63,-1 V 289 h 0.5 0.5 v 0.5 0.5 H 14.5 14 Z m 39.5,-0.5 0.618034,-1 h 0.5 0.5 L 54.5,289 l -0.618034,1 h -0.5 -0.5 z M 79,289.5 V 289 h 0.5 0.5 v 0.5 0.5 H 79.5 79 Z m 312,0 V 289 h 0.5 0.5 v 0.5 0.5 h -0.5 -0.5 z m 60,0 V 289 h 0.5 0.5 v 0.5 0.5 h -0.5 -0.5 z m -408,-1 V 288 h 0.5 0.5 v 0.5 0.5 H 43.5 43 Z m 347,-1 V 287 h 0.5 0.5 v 0.5 0.5 h -0.5 -0.5 z m 14.33333,-0.16667 0.66667,-0.66666 0.66667,0.66666 L 406.33333,288 H 405 403.66667 Z m 4,0 0.66667,-0.66666 0.66667,0.66666 L 410.33333,288 H 409 407.66667 Z M 423,287.5 V 287 h 0.5 0.5 v 0.5 0.5 h -0.5 -0.5 z m -366,-1 V 286 h 0.5 0.5 v 0.5 0.5 H 57.5 57 Z m 354,0 V 286 h 0.5 0.5 v 0.5 0.5 h -0.5 -0.5 z m -22,-1 V 285 h 0.5 0.5 v 0.5 0.5 h -0.5 -0.5 z m 24.5,-0.5 0.61803,-1 h 0.5 0.5 l -0.61803,1 -0.61803,1 h -0.5 -0.5 z m 10.5,0.5 V 285 h 0.5 0.5 v 0.5 0.5 h -0.5 -0.5 z m 28,0 V 285 h 0.5 0.5 v 0.5 0.5 h -0.5 -0.5 z m -408,-1 V 284 h 0.5 0.5 v 0.5 0.5 H 44.5 44 Z m 17,-1 V 283 h 0.5 0.5 v 0.5 0.5 H 61.5 61 Z m 327.07895,-2.08333 0.0789,-1.91667 0.52522,1.3125 0.52522,1.3125 -0.60416,0.60417 L 388,283.33333 Z M 398,282.5 V 282 h 0.5 0.5 v 0.5 0.5 h -0.5 -0.5 z m 27,0 V 282 h 0.5 0.5 v 0.5 0.5 h -0.5 -0.5 z m -361,-1 V 281 h 0.5 0.5 v 0.5 0.5 H 64.5 64 Z m 352,0 V 281 h 0.5 0.5 v 0.5 0.5 h -0.5 -0.5 z m 37,0 V 281 h 0.5 0.5 v 0.5 0.5 h -0.5 -0.5 z m -441,-1 V 280 h 0.5 0.5 v 0.5 0.5 H 12.5 12 Z m 385,0 V 280 h 0.5 0.5 v 0.5 0.5 h -0.5 -0.5 z m -350,-1 V 279 h 0.5 0.5 v 0.5 0.5 H 47.5 47 Z m 21,-1 V 278 h 0.5 0.5 v 0.5 0.5 H 68.5 68 Z m 3,-2 V 276 h 0.5 0.5 v 0.5 0.5 H 71.5 71 Z m 383,0 V 276 h 0.5 0.5 v 0.5 0.5 h -0.5 -0.5 z m -443,-1 V 275 h 0.5 0.5 v 0.5 0.5 H 11.5 11 Z m 35,0 V 275 h 0.5 0.5 v 0.5 0.5 H 46.5 46 Z m 11,0 V 275 h 0.5 0.5 v 0.5 0.5 H 57.5 57 Z M 388,275 v -1.33333 l 0.66667,0.66666 0.66666,0.66667 -0.66666,0.66667 L 388,276.33333 Z m 9,0.5 V 275 h 0.5 0.5 v 0.5 0.5 h -0.5 -0.5 z m -344,-1 V 274 h 0.5 0.5 v 0.5 0.5 H 53.5 53 Z m 363,0 V 274 h 0.5 0.5 v 0.5 0.5 h -0.5 -0.5 z m -356,-1 V 273 h 0.5 0.5 v 0.5 0.5 H 60.5 60 Z m 15,0 V 273 h 0.5 0.5 v 0.5 0.5 H 75.5 75 Z m 340,-1 V 272 h 0.5 0.5 v 0.5 0.5 h -0.5 -0.5 z m 10,0 V 272 h 0.5 0.5 v 0.5 0.5 h -0.5 -0.5 z m -380,-1 V 271 h 0.5 0.5 v 0.5 0.5 H 45.5 45 Z m 18,0 V 271 h 0.5 0.5 v 0.5 0.5 H 63.5 63 Z m 326,0 V 271 h 0.5 0.5 v 0.5 0.5 h -0.5 -0.5 z m 10,0.12244 v -0.37755 l 1.75,-1.37245 1.75,-1.37244 -1.37244,1.75 -1.37245,1.75 H 399.37756 399 Z M 455,271.5 V 271 h 0.5 0.5 v 0.5 0.5 h -0.5 -0.5 z m -445,-1 V 270 h 0.5 0.5 v 0.5 0.5 H 10.5 10 Z m 42,0 V 270 h 0.5 0.5 v 0.5 0.5 H 52.5 52 Z m 3.75,-0.16228 1.25,-0.50439 1.25,0.50439 1.25,0.50439 H 57 54.5 Z M 75,270.5 V 270 h 0.5 0.5 v 0.5 0.5 H 75.5 75 Z M 43.333333,269.33333 44,268.66667 44.666667,269.33333 45.333333,270 H 44 42.666667 Z M 412,269.5 V 269 h 0.5 0.5 v 0.5 0.5 h -0.5 -0.5 z m 12,0 V 269 h 0.5 0.5 v 0.5 0.5 h -0.5 -0.5 z m -21,-1 V 268 h 0.5 0.5 v 0.5 0.5 h -0.5 -0.5 z m 7,0 V 268 h 0.5 0.5 v 0.5 0.5 H 410.5 410 Z M 74,267 v -1.33333 l 0.666667,0.66666 L 75.333333,267 74.666667,267.66667 74,268.33333 Z m 349,0.5 V 267 h 0.5 0.5 v 0.5 0.5 h -0.5 -0.5 z m -386,-2 V 265 h 0.5 0.5 v 0.5 0.5 H 37.5 37 Z m 356.5,-1.5 1.80998,-2 h 0.5 0.5 l -1.80998,2 -1.80998,2 h -0.5 -0.5 z M 76.872445,263.25 75.5,261.5 l 1.75,1.37244 1.75,1.37245 V 264.62244 265 h -0.377555 -0.377556 z m 343.532065,0.59549 -0.71353,-1.15451 1.15451,0.71353 L 422,264.11803 V 264.55902 265 h -0.44098 -0.44099 z M 456,264.5 V 264 h 0.5 0.5 v 0.5 0.5 H 456.5 456 Z M 9,263.5 V 263 H 9.5 10 v 0.5 0.5 H 9.5 9 Z m 64,0 V 263 h 0.5 0.5 v 0.5 0.5 H 73.5 73 Z M 36,262 v -1.33333 l 0.666667,0.66666 L 37.333333,262 36.666667,262.66667 36,263.33333 Z m 28.8125,0.31689 1.3125,-0.52522 0.604167,0.60416 L 67.333333,263 65.416667,262.92105 63.5,262.84211 Z m -10,-1 1.3125,-0.52522 0.604167,0.60416 L 57.333333,262 55.416667,261.92105 53.5,261.84211 Z M 80,261.5 V 261 h 0.5 0.5 v 0.5 0.5 H 80.5 80 Z m -34.1875,-1.18311 1.3125,-0.52522 0.604167,0.60416 L 48.333333,261 46.416667,260.92105 44.5,260.84211 Z M 398,260.5 V 260 h 0.5 0.5 v 0.5 0.5 H 398.5 398 Z M 36.333333,259.33333 37,258.66667 37.666667,259.33333 38.333333,260 H 37 35.666667 Z M 81,259.5 V 259 h 0.5 0.5 v 0.5 0.5 H 81.5 81 Z m 319,0 V 259 h 0.5 0.5 v 0.5 0.5 h -0.5 -0.5 z m -324,-1 V 258 h 0.5 0.5 v 0.5 0.5 H 76.5 76 Z m 327,0 V 258 h 0.5 0.5 v 0.5 0.5 h -0.5 -0.5 z m 7,0 V 258 h 0.5 0.5 v 0.5 0.5 h -0.5 -0.5 z m -328,-1 V 257 h 0.5 0.5 v 0.5 0.5 H 82.5 82 Z m 375,-1 V 256 h 0.5 0.5 v 0.5 0.5 h -0.5 -0.5 z m -380,-2 V 254 h 0.5 0.5 v 0.5 0.5 H 77.5 77 Z m 317.07895,-3.08333 0.0789,-1.91667 0.52522,1.3125 0.52522,1.3125 -0.60416,0.60417 L 394,253.33333 Z m 4.17105,0.894 1.75,-0.45732 1.75,0.45732 1.75,0.45733 H 400 396.5 Z M 80,251.5 V 251 h 0.5 0.5 v 0.5 0.5 H 80.5 80 Z m 336.8125,-0.18311 1.3125,-0.52522 0.60417,0.60416 L 419.33333,252 417.41667,251.9211 415.5,251.8422 Z M 59.75,250.29427 62,249.8609 l 2.25,0.43337 2.25,0.43337 H 62 57.5 Z M 70,250.5 V 250 h 0.5 0.5 v 0.5 0.5 H 70.5 70 Z m 352,0 V 250 h 0.5 0.5 v 0.5 0.5 H 422.5 422 Z M 35.333333,249.33333 36,248.66667 36.666667,249.33333 37.333333,250 H 36 34.666667 Z M 425,248.62244 v -0.37755 l 1.75,-1.37245 1.75,-1.37244 -1.37244,1.75 -1.37245,1.75 H 425.37756 425 Z M 35.252183,244.5 l 0.02018,-4 0.434897,2.26166 0.434897,2.26166 -0.455078,1.73834 L 35.232003,248.5 Z M 428,244.5 V 244 h 0.5 0.5 v 0.5 0.5 h -0.5 -0.5 z m 30,-0.5 v -1.33333 l 0.66667,0.66666 0.66666,0.66667 -0.66666,0.66667 L 458,245.33333 Z m -62.73097,-0.69299 1.76903,-0.46099 1.23097,0.49804 1.23097,0.49805 -3,-0.0371 -3,-0.037 z m 17.48097,-0.96929 1.25,-0.50439 1.25,0.50439 1.25,0.50439 h -2.5 -2.5 z m -346.988341,-1.04498 2.261659,-0.4349 1.738341,0.45508 1.738341,0.45508 -4,-0.0202 -4,-0.0202 z M 418,241.5 V 241 h 0.5 0.5 v 0.5 0.5 h -0.5 -0.5 z m 11,-0.5 v -1.33333 l 0.66667,0.66666 0.66666,0.66667 -0.66666,0.66667 L 429,242.33333 Z M 7,240.5 V 240 H 7.5 8 v 0.5 0.5 H 7.5 7 Z m 45,-2 V 238 h 0.5 0.5 v 0.5 0.5 H 52.5 52 Z m 369,0 V 238 h 0.5 0.5 v 0.5 0.5 h -0.5 -0.5 z m -382,-1 V 237 h 0.5 0.5 v 0.5 0.5 H 39.5 39 Z m 16,-1 V 236 h 0.5 0.5 v 0.5 0.5 H 55.5 55 Z m -13,-1 V 235 h 0.5 0.5 v 0.5 0.5 H 42.5 42 Z m 379,-1 V 234 h 0.5 0.5 v 0.5 0.5 h -0.5 -0.5 z m -362,-1 V 233 h 0.5 0.5 v 0.5 0.5 H 59.5 59 Z m -13,-1 V 232 h 0.5 0.5 v 0.5 0.5 H 46.5 46 Z M 429,232 v -1.33333 l 0.66667,0.66666 0.66666,0.66667 -0.66666,0.66667 L 429,233.33333 Z m -366.5,-1 0.618034,-1 h 0.5 0.5 L 63.5,231 l -0.618034,1 h -0.5 -0.5 z m -13,-1 0.618034,-1 h 0.5 0.5 L 50.5,230 l -0.618034,1 h -0.5 -0.5 z m 354.75,0.31067 1.75,-0.45732 1.75,0.45732 1.75,0.45733 H 406 402.5 Z M 417,230.5 V 230 h 0.5 0.5 v 0.5 0.5 h -0.5 -0.5 z m -351,-2 V 228 h 0.5 0.5 v 0.5 0.5 H 66.5 66 Z m 362,0 V 228 h 0.5 0.5 v 0.5 0.5 h -0.5 -0.5 z m -375,-1 V 227 h 0.5 0.5 v 0.5 0.5 H 53.5 53 Z m 374,-1 V 226 h 0.5 0.5 v 0.5 0.5 h -0.5 -0.5 z m -371,-1 V 225 h 0.5 0.5 v 0.5 0.5 H 56.5 56 Z m 14.564293,-0.79313 0.682784,-1.79313 0.559795,0.5598 0.559795,0.55979 -1.242579,1.23334 L 69.881509,226.5 Z M 37.75,223.33772 39,222.83333 l 1.25,0.50439 1.25,0.50439 H 39 36.5 Z M 423,222.5 V 222 h 0.5 0.5 v 0.5 0.5 h -0.5 -0.5 z m 35,0 V 222 h 0.5 0.5 v 0.5 0.5 h -0.5 -0.5 z m -422,-1 V 221 h 0.5 0.5 v 0.5 0.5 H 36.5 36 Z m 364.26903,-0.19299 1.76903,-0.46099 1.23097,0.49804 1.23097,0.49805 -3,-0.0371 -3,-0.037 z M 421,221.5 V 221 h 0.5 0.5 v 0.5 0.5 h -0.5 -0.5 z m -384.805051,-4 0.03705,-3 0.460988,1.76903 0.460988,1.76903 -0.498042,1.23097 L 36.157895,220.5 Z M 68.75,215.33772 70,214.83333 l 1.25,0.50439 1.25,0.50439 H 70 67.5 Z m -28,-1.04345 2.25,-0.43337 2.25,0.43337 2.25,0.43337 H 43 38.5 Z M 457,209.5 V 209 h 0.5 0.5 v 0.5 0.5 H 457.5 457 Z M 9,202.5 V 202 H 9.5 10 v 0.5 0.5 H 9.5 9 Z m 447,-1 V 201 h 0.5 0.5 v 0.5 0.5 h -0.5 -0.5 z m -446,-6 V 195 h 0.5 0.5 v 0.5 0.5 H 10.5 10 Z m 1,-5 V 190 h 0.5 0.5 v 0.5 0.5 H 11.5 11 Z m 443,-1 V 189 h 0.5 0.5 v 0.5 0.5 h -0.5 -0.5 z m -442,-4 V 185 h 0.5 0.5 v 0.5 0.5 H 12.5 12 Z m 441,-1 V 184 h 0.5 0.5 v 0.5 0.5 h -0.5 -0.5 z m -1,-4 V 180 h 0.5 0.5 v 0.5 0.5 h -0.5 -0.5 z m -1,-4 V 176 h 0.5 0.5 v 0.5 0.5 h -0.5 -0.5 z m -436,-3 V 173 h 0.5 0.5 v 0.5 0.5 H 15.5 15 Z m 435,-1 V 172 h 0.5 0.5 v 0.5 0.5 h -0.5 -0.5 z m -434,-3 V 169 h 0.5 0.5 v 0.5 0.5 H 16.5 16 Z m 433,0 V 169 h 0.5 0.5 v 0.5 0.5 h -0.5 -0.5 z m -432,-3 V 166 h 0.5 0.5 v 0.5 0.5 H 17.5 17 Z m 1,-3 V 163 h 0.5 0.5 v 0.5 0.5 H 18.5 18 Z m 429,-1 V 162 h 0.5 0.5 v 0.5 0.5 h -0.5 -0.5 z m -428,-2 V 160 h 0.5 0.5 v 0.5 0.5 H 19.5 19 Z m 427,-1 V 159 h 0.5 0.5 v 0.5 0.5 h -0.5 -0.5 z m -426,-2 V 157 h 0.5 0.5 v 0.5 0.5 H 20.5 20 Z m 1,-3 V 154 h 0.5 0.5 v 0.5 0.5 H 21.5 21 Z m 423,0 V 154 h 0.5 0.5 v 0.5 0.5 h -0.5 -0.5 z m -1,-3 V 151 h 0.5 0.5 v 0.5 0.5 h -0.5 -0.5 z m -420,-2 V 149 h 0.5 0.5 v 0.5 0.5 H 23.5 23 Z m 418,-3 V 146 h 0.5 0.5 v 0.5 0.5 h -0.5 -0.5 z m -416,-2 V 144 h 0.5 0.5 v 0.5 0.5 H 25.5 25 Z m 415,0 V 144 h 0.5 0.5 v 0.5 0.5 h -0.5 -0.5 z m -414,-2 V 142 h 0.5 0.5 v 0.5 0.5 H 26.5 26 Z m 412,-3 V 139 h 0.5 0.5 v 0.5 0.5 h -0.5 -0.5 z m -1,-2 V 137 h 0.5 0.5 v 0.5 0.5 h -0.5 -0.5 z m -408,-2 V 135 h 0.5 0.5 v 0.5 0.5 H 29.5 29 Z m 407,0 V 135 h 0.5 0.5 v 0.5 0.5 h -0.5 -0.5 z m -406,-2 V 133 h 0.5 0.5 v 0.5 0.5 H 30.5 30 Z m 405,0 V 133 h 0.5 0.5 v 0.5 0.5 h -0.5 -0.5 z m -404,-2 V 131 h 0.5 0.5 v 0.5 0.5 H 31.5 31 Z m 403,0 V 131 h 0.5 0.5 v 0.5 0.5 h -0.5 -0.5 z m -402,-2 V 129 h 0.5 0.5 v 0.5 0.5 H 32.5 32 Z m 401,0 V 129 h 0.5 0.5 v 0.5 0.5 h -0.5 -0.5 z m -1,-2 V 127 h 0.5 0.5 v 0.5 0.5 h -0.5 -0.5 z m -1,-2 V 125 h 0.5 0.5 v 0.5 0.5 h -0.5 -0.5 z m -1,-2 V 123 h 0.5 0.5 v 0.5 0.5 h -0.5 -0.5 z m -394,-1 V 122 h 0.5 0.5 v 0.5 0.5 H 36.5 36 Z m 1,-2 V 120 h 0.5 0.5 v 0.5 0.5 H 37.5 37 Z m 390,-2 V 118 h 0.5 0.5 v 0.5 0.5 h -0.5 -0.5 z m -387,-3 V 115 h 0.5 0.5 v 0.5 0.5 H 40.5 40 Z m 384,-2 V 113 h 0.5 0.5 v 0.5 0.5 h -0.5 -0.5 z m -381,-3 V 110 h 0.5 0.5 v 0.5 0.5 H 43.5 43 Z m 379,0 V 110 h 0.5 0.5 v 0.5 0.5 h -0.5 -0.5 z m -377,-3 V 107 h 0.5 0.5 v 0.5 0.5 H 45.5 45 Z m 375,0 V 107 h 0.5 0.5 v 0.5 0.5 h -0.5 -0.5 z m -373,-3 V 104 h 0.5 0.5 v 0.5 0.5 H 47.5 47 Z m 371,0 V 104 h 0.5 0.5 v 0.5 0.5 h -0.5 -0.5 z m -2,-3 V 101 h 0.5 0.5 v 0.5 0.5 h -0.5 -0.5 z m -366,-1 V 100 h 0.5 0.5 v 0.5 0.5 H 50.5 50 Z m 363,-3 V 97 h 0.5 0.5 V 97.5 98 H 413.5 413 Z M 53,96.5 V 96 H 53.5 54 V 96.5 97 H 53.5 53 Z m 357,-3 V 93 h 0.5 0.5 V 93.5 94 H 410.5 410 Z M 56,92.5 V 92 H 56.5 57 V 92.5 93 H 56.5 56 Z m 230,-4 V 88 h 0.5 0.5 v 0.5 0.5 h -0.5 -0.5 z m 9,0 V 88 h 0.5 0.5 v 0.5 0.5 h -0.5 -0.5 z m -12,-1 V 87 h 0.5 0.5 v 0.5 0.5 h -0.5 -0.5 z m 122,0 V 87 h 0.5 0.5 V 87.5 88 H 405.5 405 Z M 61,86.5 V 86 H 61.5 62 V 86.5 87 H 61.5 61 Z m 114.26903,-0.192991 1.76903,-0.460988 1.23097,0.498042 1.23097,0.498042 -3,-0.03705 -3,-0.03705 z M 170,85.5 V 85 h 0.5 0.5 v 0.5 0.5 h -0.5 -0.5 z m 12,0 V 85 h 0.5 0.5 v 0.5 0.5 h -0.5 -0.5 z m 96,0 V 85 h 0.5 0.5 v 0.5 0.5 h -0.5 -0.5 z m -111,-1 V 84 h 0.5 0.5 v 0.5 0.5 h -0.5 -0.5 z m 132,0 V 84 h 0.5 0.5 v 0.5 0.5 h -0.5 -0.5 z m -26,-1 V 83 h 0.5 0.5 V 83.5 84 H 273.5 273 Z M 162.87244,81.25 161.5,79.5 l 1.75,1.372445 1.75,1.372444 V 82.622445 83 h -0.37756 -0.37755 z M 271,82 v -1.333333 l 0.66667,0.666666 L 272.33333,82 271.66667,82.666667 271,83.333333 Z m -81.43571,-1.293128 0.68279,-1.793128 0.55979,0.559795 0.5598,0.559794 -1.24258,1.233334 L 188.88151,82.5 Z M 300,81.5 V 81 h 0.5 0.5 v 0.5 0.5 h -0.5 -0.5 z m -15,-1 V 80 h 0.5 0.5 v 0.5 0.5 h -0.5 -0.5 z m 5,0 V 80 h 0.5 0.5 v 0.5 0.5 h -0.5 -0.5 z m -80.25,-1.162281 1.25,-0.504386 1.25,0.504386 1.25,0.504386 h -2.5 -2.5 z m 31.58333,-0.0044 L 242,78.666667 242.66667,79.333333 243.33333,80 H 242 240.66667 Z m 8,0 L 250,78.666667 250.66667,79.333333 251.33333,80 H 250 248.66667 Z m 148.07118,-0.487841 -0.71353,-1.154509 1.15451,0.713525 L 399,79.118034 V 79.559017 80 h -0.44098 -0.44099 z M 220.33333,78.333333 221,77.666667 221.66667,78.333333 222.33333,79 H 221 219.66667 Z M 238,78.5 V 78 h 0.5 0.5 v 0.5 0.5 h -0.5 -0.5 z m 15,0 V 78 h 0.5 0.5 v 0.5 0.5 h -0.5 -0.5 z m 29,0 V 78 h 0.5 0.5 v 0.5 0.5 h -0.5 -0.5 z m -122,-1 V 77 h 0.5 0.5 v 0.5 0.5 h -0.5 -0.5 z m 15.8125,-0.183114 1.3125,-0.525219 0.60417,0.604166 L 178.33333,78 176.41667,77.921053 174.5,77.842105 Z M 236,77.5 V 77 h 0.5 0.5 v 0.5 0.5 h -0.5 -0.5 z m 19,0 V 77 h 0.5 0.5 v 0.5 0.5 h -0.5 -0.5 z m 45,0 V 77 h 0.5 0.5 V 77.5 78 H 300.5 300 Z M 73.5,73 77.405896,69 h 0.5 0.5 L 74.5,73 70.594104,77 h -0.5 -0.5 z M 172,76.5 V 76 h 0.5 0.5 v 0.5 0.5 h -0.5 -0.5 z m 29.07895,-1.083333 0.0789,-1.916667 0.52522,1.3125 0.52522,1.3125 -0.60416,0.604167 L 201,77.333333 Z M 273,76.5 V 76 h 0.5 0.5 v 0.5 0.5 h -0.5 -0.5 z m 10,0 V 76 h 0.5 0.5 v 0.5 0.5 h -0.5 -0.5 z m -124,-1 V 75 h 0.5 0.5 v 0.5 0.5 h -0.5 -0.5 z m 23,0 V 75 h 0.5 0.5 v 0.5 0.5 h -0.5 -0.5 z m 6,-1 V 74 h 0.5 0.5 v 0.5 0.5 h -0.5 -0.5 z m -30,-1 V 73 h 0.5 0.5 v 0.5 0.5 h -0.5 -0.5 z m 63.07895,-1.083333 0.0789,-1.916667 0.52522,1.3125 0.52522,1.3125 -0.60416,0.604167 L 221,74.333333 Z M 259,73.5 V 73 h 0.5 0.5 v 0.5 0.5 h -0.5 -0.5 z m -91,-1 V 72 h 0.5 0.5 v 0.5 0.5 h -0.5 -0.5 z m 17,0 V 72 h 0.5 0.5 v 0.5 0.5 h -0.5 -0.5 z m 2,0 V 72 h 0.5 0.5 v 0.5 0.5 h -0.5 -0.5 z m 98,0 V 72 h 0.5 0.5 v 0.5 0.5 h -0.5 -0.5 z m 12,0 V 72 h 0.5 0.5 v 0.5 0.5 h -0.5 -0.5 z m -87,-1 V 71 h 0.5 0.5 V 71.5 72 H 210.5 210 Z M 212.33333,71.333333 213,70.666667 213.66667,71.333333 214.33333,72 H 213 211.66667 Z M 244,71.5 V 71 h 0.5 0.5 v 0.5 0.5 h -0.5 -0.5 z m 3,0 V 71 h 0.5 0.5 v 0.5 0.5 h -0.5 -0.5 z m 28,0 V 71 h 0.5 0.5 v 0.5 0.5 h -0.5 -0.5 z m 24,0 V 71 h 0.5 0.5 v 0.5 0.5 h -0.5 -0.5 z m -113,-1 V 70 h 0.5 0.5 v 0.5 0.5 h -0.5 -0.5 z m 74,0 V 70 h 0.5 0.5 v 0.5 0.5 h -0.5 -0.5 z m -93,-1 V 69 h 0.5 0.5 v 0.5 0.5 h -0.5 -0.5 z m 83,0 V 69 h 0.5 0.5 v 0.5 0.5 h -0.5 -0.5 z m 51,0 V 69 h 0.5 0.5 V 69.5 70 H 301.5 301 Z M 230.27236,65 v -4.5 l 0.43337,2.25 0.43337,2.25 -0.43337,2.25 -0.43337,2.25 z M 240,68.5 V 68 h 0.5 0.5 v 0.5 0.5 h -0.5 -0.5 z m 146.40451,-0.654508 -0.71353,-1.154509 1.15451,0.713525 L 388,68.118034 V 68.559017 69 h -0.44098 -0.44099 z M 251,67.5 V 67 h 0.5 0.5 v 0.5 0.5 h -0.5 -0.5 z m 26,-1 V 66 h 0.5 0.5 v 0.5 0.5 h -0.5 -0.5 z m 16,0 V 66 h 0.5 0.5 v 0.5 0.5 h -0.5 -0.5 z m -126,-1 V 65 h 0.5 0.5 v 0.5 0.5 h -0.5 -0.5 z m 33.07895,-1.083333 0.0789,-1.916667 0.52522,1.3125 0.52522,1.3125 -0.60416,0.604167 L 200,66.333333 Z M 303,65 v -1.333333 l 0.66667,0.666666 L 304.33333,65 303.66667,65.666667 303,66.333333 Z m -41.768,-3 v -3.5 l 0.45733,1.75 0.45732,1.75 -0.45732,1.75 -0.45733,1.75 z M 288,64.5 V 64 h 0.5 0.5 v 0.5 0.5 h -0.5 -0.5 z m -130,-2 V 62 h 0.5 0.5 v 0.5 0.5 h -0.5 -0.5 z m 51.07895,-1.083333 0.0789,-1.916667 0.52522,1.3125 0.52522,1.3125 -0.60416,0.604167 L 209,63.333333 Z m 84.32556,0.428825 -0.71353,-1.154509 1.15451,0.713525 L 295,62.118034 V 62.559017 63 h -0.44098 -0.44099 z M 86.5,61 87.118034,60 h 0.5 0.5 L 87.5,61 86.881966,62 h -0.5 -0.5 z m 83,0 0.61803,-1 h 0.5 0.5 l -0.61803,1 -0.61803,1 h -0.5 -0.5 z M 279,61.5 V 61 h 0.5 0.5 v 0.5 0.5 h -0.5 -0.5 z m 10,0 V 61 h 0.5 0.5 v 0.5 0.5 h -0.5 -0.5 z m -130,-1 V 60 h 0.5 0.5 v 0.5 0.5 h -0.5 -0.5 z m 144,0 V 60 h 0.5 0.5 v 0.5 0.5 h -0.5 -0.5 z m 75,0 V 60 h 0.5 0.5 v 0.5 0.5 h -0.5 -0.5 z m -125.80505,-3 0.037,-3 0.46099,1.769032 0.46099,1.769032 -0.49804,1.230968 -0.498,1.230968 z M 280,59.5 V 59 h 0.5 0.5 v 0.5 0.5 h -0.5 -0.5 z m -120,-1 V 58 h 0.5 0.5 v 0.5 0.5 h -0.5 -0.5 z m 14,0 V 58 h 0.5 0.5 v 0.5 0.5 h -0.5 -0.5 z m 5,0 V 58 h 0.5 0.5 v 0.5 0.5 h -0.5 -0.5 z m 2,0 V 58 h 0.5 0.5 v 0.5 0.5 h -0.5 -0.5 z m 120,-1 V 57 h 0.5 0.5 V 57.5 58 H 301.5 301 Z M 92,56.5 V 56 H 92.5 93 V 56.5 57 H 92.5 92 Z m 189,0 V 56 h 0.5 0.5 V 56.5 57 H 281.5 281 Z M 162,55.622445 V 55.244889 L 163.75,53.872445 165.5,52.5 164.12756,54.25 162.75511,56 H 162.37756 162 Z M 298,55.5 V 55 h 0.5 0.5 v 0.5 0.5 h -0.5 -0.5 z m 74,0 V 55 h 0.5 0.5 v 0.5 0.5 h -0.5 -0.5 z m -90,-1 V 54 h 0.5 0.5 v 0.5 0.5 h -0.5 -0.5 z m 14,0 V 54 h 0.5 0.5 V 54.5 55 H 296.5 296 Z M 96.5,53 97.118034,52 h 0.5 0.5 L 97.5,53 96.881966,54 h -0.5 -0.5 z M 179,53.5 V 53 h 0.5 0.5 v 0.5 0.5 h -0.5 -0.5 z m 20.07895,-1.083333 0.0789,-1.916667 0.52522,1.3125 0.52522,1.3125 -0.60416,0.604167 L 199,54.333333 Z M 291,52.5 V 52 h 0.5 0.5 v 0.5 0.5 h -0.5 -0.5 z m 77,0 V 52 h 0.5 0.5 v 0.5 0.5 h -0.5 -0.5 z m -201,-1 V 51 h 0.5 0.5 v 0.5 0.5 h -0.5 -0.5 z m 11,0 V 51 h 0.5 0.5 V 51.5 52 H 178.5 178 Z M 208.15789,50 v -2.5 l 0.50439,1.25 0.50439,1.25 -0.50439,1.25 -0.50439,1.25 z M 283,51.5 V 51 h 0.5 0.5 v 0.5 0.5 h -0.5 -0.5 z m -183,-1 V 50 h 0.5 0.5 v 0.5 0.5 h -0.5 -0.5 z m 69,0 V 50 h 0.5 0.5 v 0.5 0.5 h -0.5 -0.5 z m 71.19495,-2 0.037,-3 0.46099,1.769032 0.46099,1.769032 -0.49804,1.230968 -0.498,1.230968 z M 286,50.5 V 50 h 0.5 0.5 v 0.5 0.5 h -0.5 -0.5 z m -113,-1 V 49 h 0.5 0.5 v 0.5 0.5 h -0.5 -0.5 z m 191,0 V 49 h 0.5 0.5 v 0.5 0.5 h -0.5 -0.5 z m -260,-2 V 47 h 0.5 0.5 v 0.5 0.5 h -0.5 -0.5 z m 257,0 V 47 h 0.5 0.5 V 47.5 48 H 361.5 361 Z M 231.15789,45 v -2.5 l 0.50439,1.25 0.50439,1.25 -0.50439,1.25 -0.50439,1.25 z M 107,45.5 V 45 h 0.5 0.5 v 0.5 0.5 h -0.5 -0.5 z m 155,0 V 45 h 0.5 0.5 v 0.5 0.5 h -0.5 -0.5 z m 96,0 V 45 h 0.5 0.5 v 0.5 0.5 h -0.5 -0.5 z m -154.1875,-1.183114 1.3125,-0.525219 0.60417,0.604166 L 206.33333,45 204.41667,44.921053 202.5,44.842105 Z M 110,43.5 V 43 h 0.5 0.5 v 0.5 0.5 h -0.5 -0.5 z m 130,0 V 43 h 0.5 0.5 v 0.5 0.5 h -0.5 -0.5 z m 115,0 V 43 h 0.5 0.5 v 0.5 0.5 h -0.5 -0.5 z m -3,-2 V 41 h 0.5 0.5 v 0.5 0.5 h -0.5 -0.5 z m -237,-1 V 40 h 0.5 0.5 v 0.5 0.5 h -0.5 -0.5 z m 232,-2 V 38 h 0.5 0.5 v 0.5 0.5 h -0.5 -0.5 z m -227,-1 V 37 h 0.5 0.5 v 0.5 0.5 h -0.5 -0.5 z m 225,0 V 37 h 0.5 0.5 v 0.5 0.5 h -0.5 -0.5 z m -5,-3 V 34 h 0.5 0.5 v 0.5 0.5 h -0.5 -0.5 z m -213,-1 V 33 h 0.5 0.5 v 0.5 0.5 h -0.5 -0.5 z m 211,0 V 33 h 0.5 0.5 v 0.5 0.5 h -0.5 -0.5 z m -209,-1 V 32 h 0.5 0.5 v 0.5 0.5 h -0.5 -0.5 z m 207,0 V 32 h 0.5 0.5 v 0.5 0.5 h -0.5 -0.5 z m -205,-1 V 31 h 0.5 0.5 v 0.5 0.5 h -0.5 -0.5 z m 203,0 V 31 h 0.5 0.5 v 0.5 0.5 h -0.5 -0.5 z m -201,-1 V 30 h 0.5 0.5 v 0.5 0.5 h -0.5 -0.5 z m 199,0 V 30 h 0.5 0.5 v 0.5 0.5 h -0.5 -0.5 z m -197,-1 V 29 h 0.5 0.5 v 0.5 0.5 h -0.5 -0.5 z m 195,0 V 29 h 0.5 0.5 v 0.5 0.5 h -0.5 -0.5 z m -193,-1 V 28 h 0.5 0.5 v 0.5 0.5 h -0.5 -0.5 z m 191,0 V 28 h 0.5 0.5 v 0.5 0.5 h -0.5 -0.5 z m -186,-2 V 26 h 0.5 0.5 v 0.5 0.5 h -0.5 -0.5 z m 2,-1 V 25 h 0.5 0.5 v 0.5 0.5 h -0.5 -0.5 z m 177,0 V 25 h 0.5 0.5 v 0.5 0.5 h -0.5 -0.5 z m -2,-1 V 24 h 0.5 0.5 v 0.5 0.5 h -0.5 -0.5 z m -170,-1 V 23 h 0.5 0.5 v 0.5 0.5 h -0.5 -0.5 z m 167,0 V 23 h 0.5 0.5 v 0.5 0.5 h -0.5 -0.5 z m -2,-1 V 22 h 0.5 0.5 v 0.5 0.5 h -0.5 -0.5 z m -160,-1 V 21 h 0.5 0.5 v 0.5 0.5 h -0.5 -0.5 z m 157,0 V 21 h 0.5 0.5 v 0.5 0.5 h -0.5 -0.5 z m -154,-1 V 20 h 0.5 0.5 v 0.5 0.5 h -0.5 -0.5 z m 151,0 V 20 h 0.5 0.5 v 0.5 0.5 h -0.5 -0.5 z m -148,-1 V 19 h 0.5 0.5 v 0.5 0.5 h -0.5 -0.5 z m 3,-1 V 18 h 0.5 0.5 v 0.5 0.5 h -0.5 -0.5 z m 139,0 V 18 h 0.5 0.5 v 0.5 0.5 h -0.5 -0.5 z m -136,-1 V 17 h 0.5 0.5 v 0.5 0.5 h -0.5 -0.5 z m 133,0 V 17 h 0.5 0.5 v 0.5 0.5 h -0.5 -0.5 z m -130,-1 V 16 h 0.5 0.5 v 0.5 0.5 h -0.5 -0.5 z m 127,0 V 16 h 0.5 0.5 v 0.5 0.5 h -0.5 -0.5 z m -123,-1 V 15 h 0.5 0.5 v 0.5 0.5 h -0.5 -0.5 z m 116,-1 V 14 h 0.5 0.5 v 0.5 0.5 h -0.5 -0.5 z m -4,-1 V 13 h 0.5 0.5 v 0.5 0.5 h -0.5 -0.5 z m -100,-1 V 12 h 0.5 0.5 v 0.5 0.5 h -0.5 -0.5 z m 95,0 V 12 h 0.5 0.5 v 0.5 0.5 h -0.5 -0.5 z m -90,-1 V 11 h 0.5 0.5 v 0.5 0.5 h -0.5 -0.5 z m 85,0 V 11 h 0.5 0.5 v 0.5 0.5 h -0.5 -0.5 z m -80,-1 V 10 h 0.5 0.5 v 0.5 0.5 h -0.5 -0.5 z m 75,0 V 10 h 0.5 0.5 v 0.5 0.5 h -0.5 -0.5 z m -68,-1 V 9 h 0.5 0.5 V 9.5 10 h -0.5 -0.5 z m 61,0 V 9 h 0.5 0.5 V 9.5 10 h -0.5 -0.5 z m -53,-1 V 8 h 0.5 0.5 V 8.5 9 h -0.5 -0.5 z m 45,0 V 8 h 0.5 0.5 V 8.5 9 h -0.5 -0.5 z m -14,-1 V 7 h 0.5 0.5 V 7.5 8 h -0.5 -0.5 z"
         id="path63" />
      <path
         style="fill:#004678;fill-opacity:1"
         d="M 214.13628,457.96529 204.77256,457.0603 193.63628,455.06375 182.5,453.0672 171.98733,450.05069 161.47466,447.03418 151.12558,443.00102 140.77651,438.96786 130.13825,433.5225 119.5,428.07713 109,421.19083 98.5,414.30453 92,409.1078 85.5,403.91107 75.116391,393.70554 64.732782,383.5 58.741322,376.17555 52.749862,368.85111 45.263806,357.67555 37.777751,346.5 30.90319,332.47561 24.028629,318.45122 19.110343,303.47561 14.192056,288.5 12.131433,278 10.070809,267.5 8.8977851,259 7.7247611,250.5 V 233 215.5 l 1.173024,-8.5 1.1730239,-8.5 2.060624,-10.5 2.060623,-10.5 4.762519,-14.5 4.762519,-14.5 5.0265,-10.6538 5.0265,-10.65379 5.570601,-9.46526 5.570601,-9.46526 L 52.631387,97.880945 60.351478,87.5 71.425739,76.137814 82.5,64.775628 l 8,-6.470564 8,-6.470565 10.5,-7.015144 10.5,-7.015145 14.02439,-6.88779 14.02439,-6.887791 14.97561,-4.918286 L 177.5,14.192056 188,12.131433 198.5,10.070809 207,8.8848455 215.5,7.698882 h 17.5 17.5 l 8.5,1.1859635 8.5,1.1859635 10.48586,2.075056 10.48586,2.075055 9.01414,2.776534 9.01414,2.776534 9.26863,3.581446 9.26863,3.581445 11.13493,5.695657 11.13493,5.695656 10.09644,6.667451 10.09644,6.667451 7.97516,6.418453 7.97517,6.418453 9.02483,9.024836 9.02484,9.024835 6.41845,7.975165 6.41846,7.975164 6.97218,10.5 6.97218,10.5 6.822,14 6.822,14 3.11781,8.5 3.11782,8.5 3.35726,13.04999 3.35726,13.04998 1.73627,11.95002 1.73626,11.95001 v 18.5 18.5 l -1.73626,11.95001 -1.73627,11.95002 -3.35726,13.04998 -3.35726,13.04999 -3.12151,8.5 -3.12151,8.5 -6.46237,13.36929 -6.46237,13.36928 -6.62412,10.13072 -6.62411,10.13071 -6.59283,8.46271 -6.59283,8.46271 -9.57465,9.54123 -9.57465,9.54123 -7.95497,6.41451 -7.95498,6.41452 -10.5,6.97816 -10.5,6.97815 -15,7.27117 -15,7.27117 -10.5,3.5466 -10.5,3.54659 -10.5,2.49067 -10.5,2.49066 -10.6437,1.54724 -10.64369,1.54724 -14.85631,0.43286 -14.8563,0.43286 z m 48.06906,-14.53776 11.2741,-1.57246 13.01028,-3.33519 13.01028,-3.33518 10.5,-4.18055 10.5,-4.18056 10,-5.12445 10,-5.12445 10,-6.69495 10,-6.69496 9.58441,-8.02085 9.58441,-8.02086 7.31676,-7.82153 7.31675,-7.82154 6.84975,-8.84938 6.84974,-8.84937 5.6747,-9.15063 5.67471,-9.15062 5.42485,-11.38591 5.42485,-11.3859 4.30035,-13.1141 4.30035,-13.11409 2.08547,-10.5 2.08547,-10.5 1.14745,-9.94263 1.14744,-9.94264 -0.54824,-19.05736 -0.54824,-19.05737 -2.07965,-11.14974 -2.07965,-11.14973 -3.43705,-11.94124 -3.43705,-11.94123 -5.3327,-12.40903 -5.33271,-12.40903 -6.41412,-10.75632 -6.41413,-10.75632 -7.75509,-10.3286 -7.7551,-10.328607 -9.90549,-9.954095 -9.9055,-9.954095 -7.91137,-6.382067 L 358.5,61.657829 348.99308,55.413457 339.48616,49.169085 327.49012,43.164228 315.49408,37.159372 301.99704,32.53554 288.5,27.911708 276.5,25.51037 264.5,23.109032 254.78941,22.054516 245.07883,21 H 232.5 219.92117 l -9.71058,1.069678 -9.71059,1.069678 -11.67415,2.451319 -11.67416,2.451318 -10.58915,3.506151 -10.58916,3.506152 -8.23669,3.581911 -8.23669,3.581911 -10.5,5.927507 -10.5,5.927506 -8.84554,6.330251 -8.84554,6.330251 -9.408924,8.302321 -9.408922,8.302321 -7.71276,8.853013 -7.71276,8.853012 -6.244525,8.72785 -6.244525,8.72785 -6.019961,10.5 -6.01996,10.5 -4.952183,12.00037 -4.952183,12.00037 -2.990743,10.49963 -2.990744,10.49963 -1.551046,8 -1.551046,8 -1.024319,8.47377 L 21,217.44753 v 15.72502 15.72502 l 1.53439,11.70499 1.53439,11.70499 2.398533,10.09622 2.398532,10.09623 3.613743,10.5 3.613743,10.5 6.363226,13 6.363226,13 6.987699,10.5 6.987698,10.5 8.077288,9.64002 8.077288,9.64002 8.275122,7.72433 8.275122,7.72434 7.54424,5.77395 7.54424,5.77396 8.45576,5.49331 8.45576,5.49331 10,4.98186 10,4.98185 9.43924,3.714 9.43925,3.714 13.24521,3.3947 13.24521,3.3947 9.81555,1.41949 9.81554,1.41949 19.21562,0.10833 L 250.93124,445 Z M 120.5,396.5845 l -3,-1.34877 -3.18867,-3.36786 L 111.12267,388.5 110.06133,385.6849 109,382.8698 v -3.97474 -3.97474 l 1.89359,-3.71016 1.89359,-3.71016 1.89301,-1.71186 1.89301,-1.71186 3.68128,-1.53814 L 123.93576,361 h 3.82023 3.82023 l 4.40335,2.25 4.40334,2.25 1.94902,2.67663 1.94901,2.67662 -3.01066,4.09387 -3.01066,4.09386 -1.23094,-2.97174 -1.23094,-2.97174 -2.36368,-1.54875 L 131.07037,370 h -3.38916 -3.38916 l -2.60558,2.41477 -2.60558,2.41477 -0.6841,2.72566 -0.6841,2.72566 0.89366,2.50742 0.89365,2.50742 2.61927,1.9498 2.61927,1.9498 2.63003,0.15235 2.63002,0.15235 -0.0142,0.5 -0.0142,0.5 -3.23513,3.71664 -3.23512,3.71663 z M 350.60699,386.41821 350,384.83643 V 382.89321 380.95 l 2.93074,-0.58615 2.93074,-0.58615 2.06926,-1.9278 L 360,375.92209 v -1.3386 -1.3386 l -1.33229,-1.1057 -1.33229,-1.10571 -5.64273,1.98326 L 346.04997,375 h -1.50921 -1.50921 l -3.07752,-2.75 -3.07752,-2.75 -0.54809,-4.08725 -0.5481,-4.08726 1.5856,-3.0662 1.58559,-3.0662 3.27425,-2.0186 3.27424,-2.01859 2.61395,-0.65221 2.61395,-0.65221 0.62239,2.32426 0.6224,2.32426 0.0137,1.06479 0.0136,1.06479 -3.5,1.66903 -3.5,1.66903 V 362.48382 365 h 1.87427 1.87428 L 353,363.5 357.25145,362 h 2.47307 2.47306 l 2.86934,3.07163 2.86933,3.07164 0.62038,3.30688 0.62037,3.30689 -1.49922,2.87148 -1.49923,2.87148 -2.83927,2.68638 -2.83928,2.68638 -2.8151,1.06362 L 354.8698,388 h -1.82791 -1.82791 z m -260.130457,-15.4427 -2.89765,-3.0245 12.429527,-12.45944 12.42953,-12.45944 3.30101,3.19947 3.30101,3.19946 -12.25497,12.28447 L 94.530012,374 H 93.952097 93.374182 Z M 235,346.70295 V 323 h 24.58333 24.58334 l -0.33334,0.88208 -0.33333,0.88207 -20.5,19.25942 -20.5,19.25943 -3.75,3.56145 -3.75,3.56145 z M 371.08432,353.25432 362,338.50864 v -2.11946 -2.11946 l 2.07258,-2.63486 2.07258,-2.63486 1.17742,-0.002 1.17742,-0.002 16,4.65689 16,4.65688 0.73508,0.62984 0.73508,0.62983 -2.23508,3.26266 -2.23508,3.26266 -3.66601,-0.54613 -3.66602,-0.54613 -3.65329,4.97678 -3.65329,4.97677 1.71302,2.89992 1.71302,2.89991 -2.7624,3.6217 -2.76241,3.6217 h -0.29699 -0.29699 z m 10.38057,-7.84108 1.69492,-2.58677 -0.32991,-0.23581 -0.3299,-0.23581 -4.53343,-1.67742 L 373.43313,339 h -0.7646 -0.76461 l 3.09608,4.5 3.09608,4.5 h 0.83695 0.83695 z M 74.076467,351.10739 72,348.19126 v -0.92375 -0.92376 l 10.962838,-7.36397 10.962837,-7.36397 -1.990249,-3.22029 -1.990249,-3.22029 3.084987,-2.19671 3.084987,-2.1967 0.295038,0.35909 0.295038,0.35909 6.147383,9.21164 6.14739,9.21164 v 0.82275 0.82275 l -2.92373,1.72709 -2.92373,1.72709 -2.13313,-2.9957 -2.133124,-2.9957 -10.193143,6.80396 -10.193143,6.80395 -1.173533,0.69202 -1.173534,0.69203 z M 60.897883,325.74193 57.5,323.48386 55.25,319.03004 53,314.57622 v -3.83777 -3.83777 l 1.421362,-2.74861 1.421362,-2.74861 4.828638,-2.6203 4.828638,-2.62029 7.758696,-3.52851 7.758695,-3.5285 1.491305,3.56919 L 84,296.24425 v 0.7318 0.7318 l -9.435567,4.26304 -9.435568,4.26304 -2.186736,2.32767 -2.186735,2.32767 0.63818,2.54272 0.63818,2.54271 2.360621,1.54674 2.36062,1.54674 5.121723,-2.0188 5.121723,-2.01879 5.973263,-3.0153 L 88.942967,309 h 0.508192 0.508193 l 1.99109,3.90286 1.99109,3.90286 -7.720766,3.68907 L 78.5,324.18385 73.71298,326.09193 68.925959,328 H 66.610863 64.295766 Z M 391,321.33887 l -14.5,-6.50298 -0.8351,-0.80304 -0.8351,-0.80305 1.71228,-3.3649 1.71227,-3.3649 0.23812,-0.28196 0.23812,-0.28197 12.37775,5.53197 L 403.4861,317 h 0.1338 0.13381 l 2.14784,-4.99279 2.14784,-4.99279 3.22531,1.33799 3.2253,1.33798 -0.27286,1.56345 -0.27285,1.56344 -3.50743,7.59136 L 406.93944,328 406.21972,327.9209 405.5,327.8418 Z m 6.96601,-26.58887 -4.45778,-2.25 -2.14644,-3.87593 -2.14645,-3.87593 -0.59649,-3.73023 -0.59648,-3.73023 1.46141,-4.92111 1.46142,-4.92112 3.2774,-3.17204 3.2774,-3.17205 3.71788,-1.55068 3.71788,-1.55068 1.78212,0.006 1.78212,0.006 3.71895,1.03286 3.71894,1.03285 3.17335,2.6702 3.17336,2.6702 1.83574,4.04137 1.83574,4.04137 v 4 4 l -1.85194,4 -1.85194,4 -2.8761,2.68638 -2.8761,2.68638 -2.8151,1.06362 L 410.8698,297 h -4.22301 -4.22301 z m 13.34973,-7.86704 2.18426,-1.11704 1.72776,-2.13296 1.72777,-2.13296 0.0222,-3.82692 L 417,273.84615 414.07692,270.92308 411.15385,268 h -3.64267 -3.64266 l -1.92391,1.02964 -1.92391,1.02965 -1.51035,2.92069 -1.51035,2.9207 v 2.64966 2.64966 l 3.4,3.4 3.4,3.4 h 2.66574 2.66574 z m -367.13948,3.48624 -1.216799,-4.54947 2.595591,-2.04169 2.595591,-2.0417 -0.630726,-2.61817 -0.630725,-2.61817 -0.98314,-3.75 -0.98314,-3.75 h -3.292979 -3.292979 l -1.029746,-4.5 -1.029746,-4.5 3.111269,0.0643 3.111269,0.0643 15.391508,1.68569 15.391509,1.68569 1.306178,4.43014 1.306179,4.43013 -0.445451,0.72076 -0.44545,0.72075 -13.752237,9.7561 -13.752236,9.75611 -1.05347,0.80234 -1.05347,0.80235 z m 15.705879,-16.28502 4.382139,-2.90725 -5.677869,-0.7094 -5.677869,-0.7094 -0.303708,0.37093 -0.303709,0.37094 0.87803,3.25 0.878031,3.25 0.721408,-0.004 L 55.5,276.992 Z m 17.257749,-11.41563 -1.105002,-1.33144 1.188992,-5.66856 L 78.41287,250 l 0.543565,0.0314 0.543565,0.0314 1.830509,2.51342 1.830508,2.51341 -1.830508,4.45141 L 79.5,263.9925 78.872445,263.99625 78.244889,264 Z M 394.57259,250.52936 394.02731,248.5 394.01365,246.25 394,244 l 0.75,-0.0698 0.75,-0.0698 11.20046,-0.7304 11.20046,-0.73039 2.04954,-1.85481 L 422,238.69002 V 236.34501 234 l -2.13843,-2.13843 -2.13843,-2.13843 -12.36157,0.68681 L 393,231.09677 v -4.40017 -4.40017 l 8.25,-0.64222 8.25,-0.64222 5.29966,-0.006 5.29966,-0.006 2.93341,1.51693 2.93342,1.51692 1.48832,2.8781 1.48832,2.8781 0.62316,3.89699 0.62315,3.89698 -1.11344,4.13499 -1.11343,4.13499 -2.96064,2.49121 -2.96065,2.49122 -6.27047,0.56271 -6.27047,0.56272 -7.19107,0.29843 -7.19107,0.29843 z M 53,250.30429 l -13.5,-0.29173 -2.010472,-0.46521 -2.010472,-0.46522 0.361008,-4.53908 0.361008,-4.53909 10.361369,-7.25198 L 56.92381,225.5 56.961905,224.75 57,224 l -6.75,-0.011 -6.75,-0.011 -3.644818,-0.60277 -3.644817,-0.60277 0.318306,-1.63622 0.318306,-1.63623 0.0751,-2.5 0.0751,-2.5 13.251414,0.25507 13.251413,0.25506 4.25,0.55621 4.25,0.55621 v 3.00446 3.00447 l -0.974897,1.82161 -0.974897,1.82162 -10.257002,7.36264 -10.257002,7.36265 3.481899,0.24411 3.481899,0.24411 7.303086,0.59619 7.303086,0.59618 -0.303086,4.1597 L 70.5,250.5 l -2,0.048 -2,0.048 z m 269.0202,-43.77357 -40.4798,-16.34569 -4.0202,2.29763 -4.0202,2.29762 -16,8.73911 -16,8.73911 -3.28063,1.97124 -3.28062,1.97124 0.28062,-12.749 0.28063,-12.749 18,-8.29123 18,-8.29122 1.46347,-0.0603 1.46348,-0.0603 39.53652,18.64448 39.53653,18.64448 6.7279,3.35696 6.72791,3.35697 -1.13842,2.49855 L 364.67897,223 363.58948,222.9382 362.5,222.8764 Z M 279.75,85.888157 272,82.85229 V 81.561696 80.271102 L 278.10281,65.385551 284.20562,50.5 l 0.29994,-0.319423 0.29995,-0.319423 7.59847,3.16325 7.59847,3.163251 2.03773,2.590557 2.03773,2.590558 -0.66611,3.032792 -0.66611,3.032792 -1.12037,1.793997 -1.12037,1.793996 -1.8255,0.579392 -1.8255,0.579392 1.45474,1.659435 1.45475,1.659434 0.66237,2.176596 0.66237,2.176596 -1.45943,3.492913 -1.45943,3.492912 -2.01892,1.080492 L 294.13148,89 290.81574,88.962012 287.5,88.924024 Z m 11.74716,-6.879208 0.63194,-1.991052 -0.62796,-1.01606 -0.62796,-1.01606 -2.77819,-1.436658 -2.77819,-1.436658 -1.62693,3.411694 -1.62692,3.411693 1.71852,1.001667 1.71853,1.001668 2.68261,0.03041 L 290.86522,81 Z m 3.058,-14.182753 0.68994,-2.173805 -1.81368,-1.326195 L 291.61774,60 h -0.83362 -0.83362 l -0.9824,2.583916 -0.98241,2.583916 0.56617,0.916084 L 289.11803,67 h 2.3736 2.37359 z M 169.00051,84.876547 166.50103,83.879866 164.15319,81.689933 161.80536,79.5 159.90268,75.789838 158,72.079676 V 68 63.920324 l 1.95615,-3.834371 1.95615,-3.834371 3.0749,-2.587362 3.07491,-2.587361 3.71894,-1.032853 3.71895,-1.032852 1,-0.0018 1,-0.0018 1.75,4.256759 1.75,4.256758 v 0.600821 0.600821 l -2.50784,-0.479403 -2.50783,-0.479403 -3.03932,1.258929 -3.03933,1.258929 -1.54134,2.980628 -1.54134,2.980627 0.60381,3.218587 0.60381,3.218588 2.23469,2.044996 2.23469,2.044996 2.1766,0.659025 2.17659,0.659025 3.44271,-1.438456 3.44271,-1.438457 1.47727,-2.109086 1.47726,-2.109086 1.84408,4.089437 1.84408,4.089436 -1.01554,1.664016 -1.01554,1.664016 -3.42511,1.748446 -3.42511,1.748446 -5,-0.06183 -5,-0.06183 z M 202,79.655715 v -0.622866 l -1.52612,-16.656968 -1.52613,-16.656967 0.27613,-0.221871 0.27612,-0.22187 4.25,-0.54243 4.25,-0.54243 -0.007,1.154844 -0.007,1.154843 1.15662,12.741175 1.15662,12.741176 5.24366,-0.616289 5.24365,-0.616289 0.71383,3.250034 0.71382,3.250033 -1.35689,0.859767 -1.35689,0.859767 -3.5,0.02401 -3.5,0.02401 -5.25,0.630599 -5.25,0.630599 z m 37.5,-1.10589 -4,-1.467913 -2.25,-2.59672 L 231,71.888473 V 60.569236 49.25 l 0.63518,-3.175893 0.63518,-3.175892 4.03765,0.300892 4.03766,0.300893 -0.2429,12.68104 -0.2429,12.68104 2.56278,1.679196 2.56278,1.679197 2.47842,-0.622044 2.47842,-0.622044 1.0657,-1.991285 1.06571,-1.991285 0.61613,-11.496907 L 253.30595,44 h 4.49315 4.49315 l -0.70399,12.670611 -0.70399,12.670612 -1.36336,3.262971 -1.36335,3.262971 -3.06155,1.583186 -3.06154,1.583185 -4.26724,0.492101 -4.26723,0.492101 z"
         id="path62" />
    </g>
  </g>
</svg>
