<?xml version="1.0" encoding="UTF-8" standalone="no"?>
<!-- Created with Inkscape (http://www.inkscape.org/) -->

<svg
   version="1.1"
   id="svg1"
   width="384"
   height="201.60001"
   viewBox="0 0 384 201.60001"
   xmlns="http://www.w3.org/2000/svg"
   xmlns:svg="http://www.w3.org/2000/svg">
  <defs
     id="defs1" />
  <g
     id="g1">
    <g
       id="g2">
      <path
         style="fill:#cc302f;fill-opacity:1"
         d="m 211.68,156.6541 -26.24,-3e-4 c 7.41799,2.16041 12.58946,3.86225 26.24,3e-4 z m -72.03099,-1.0541 0.17986,-0.88 8.83993,-52.32 8.83993,-52.319998 0.0592,-0.06689 0.0592,-0.06689 44.30644,-0.813431 44.30645,-0.813431 1.16081,3.18e-4 1.16081,3.17e-4 -2.88074,11.520001 -2.88075,11.52 -2.12007,0.03189 -2.12006,0.03189 -4.028,0.208112 -4.02799,0.208111 -0.37461,-2.56 -0.3746,-2.56 -0.77665,-3.115464 -0.77665,-3.115463 -0.83104,-2.724537 -0.83103,-2.724536 h -0.25675 -0.25675 l -2.37296,8.479252 -2.37297,8.479253 -2.72,0.0081 -2.72,0.0081 -17.28,0.464652 -17.28,0.464652 -2.4,0.0081 -2.4,0.0081 -1.19935,8.053975 -1.19935,8.053975 0.0951,0.09505 0.095,0.09505 13.5843,-0.41927 13.5843,-0.419271 0.22154,0.190236 0.22153,0.190236 -1.58169,11.04 -1.61013,11.864821 -13.72123,-0.0248 H 171.52 v 0.12069 0.12069 l -1.44796,9.07931 -1.44797,9.07931 -0.1782,0.88335 -0.17819,0.88335 18.14447,-0.21612 18.14447,-0.21611 -0.2461,0.77277 -0.24611,0.77276 -2.01189,7.15302 -2.01189,7.15302 -0.12259,0.12259 -0.12259,0.12259 -9.57772,-2.41308 -9.57773,-2.41308 -0.56,-0.16409 -0.56,-0.16409 c 0.0615,9.22674 4.9445,13.36575 5.92958,14.3615 l -23.03493,-0.23838 h -22.94461 z m 72.42244,0.48 0.30982,-0.4 1.32937,-1.70873 1.32936,-1.70874 v -0.43893 -0.43893 l -1.2,-0.31663 -1.2,-0.31663 -4.16,-1.02391 -4.16,-1.02391 -0.12683,-0.10529 -0.12683,-0.10529 3.21322,-3.33608 3.21322,-3.33608 2.19361,-2.84238 2.19361,-2.84239 1.6,-2.45297 1.6,-2.45297 5.28,-0.0951 5.28,-0.0951 0.13182,0.0785 0.13183,0.0785 -2.84554,12.64151 -2.84553,12.64151 c -3.86217,-0.004 -7.6961,0.0628 -11.54368,0.18548 z m 39.72773,-111.199999 -0.43918,-0.56 0.56,0.439183 0.56,0.439182 v 0.120818 0.120817 h -0.12082 -0.12082 z m -4.16,-4.16 -0.43918,-0.56 0.56,0.439183 0.56,0.439182 v 0.120818 0.120817 h -0.12082 -0.12082 z"
         id="path3" />
      <path
         style="fill:#244f7d;fill-opacity:1"
         d="m 186.88,182.39781 -3.68,-0.2446 -2.56,-0.38058 -2.56,-0.38058 -2.4,-0.47305 -2.4,-0.47305 -3.52,-0.98185 -3.52,-0.98185 -3.59517,-1.38704 -3.59518,-1.38704 -4.12965,-2.09989 -4.12966,-2.0999 -3.79517,-2.52667 -3.79517,-2.52667 -2.72,-2.18037 -2.72,-2.18037 -3.52715,-3.52715 -3.52714,-3.52715 -2.18037,-2.72 -2.18037,-2.72 -2.52667,-3.79516 -2.52667,-3.79517 -2.0999,-4.12966 -2.0999,-4.12966 -1.38704,-3.59517 -1.38704,-3.59518 -0.971,-3.52 -0.97101,-3.52 -0.34732,-1.6 -0.34732,-1.6 -0.48755,-3.10989 -0.48756,-3.1099 -0.29465,-4.64902 -0.29465,-4.64902 0.30324,-4.881085 0.30324,-4.881082 0.66065,-3.946599 0.66066,-3.946599 1.07934,-3.938184 1.07933,-3.938184 1.16633,-3.155218 1.16634,-3.155217 2.21913,-4.516546 2.21913,-4.516546 2.6658,-4.017126 2.66581,-4.017125 2.72678,-3.306329 2.72678,-3.306329 3.32037,-3.216713 3.32038,-3.216713 2.56,-2.039162 2.56,-2.039163 3.84,-2.533347 3.84,-2.533348 4.8,-2.345332 4.8,-2.345333 3.07683,-1.134509 3.07683,-1.134509 4.34443,-1.142906 4.34443,-1.142905 4.25874,-0.633925 4.25874,-0.633925 5.12,-0.199142 5.12,-0.199142 4.32,0.383879 4.32,0.38388 4.20771,0.777002 4.2077,0.777002 3.7923,1.147798 3.79229,1.147798 3.2,1.251655 3.2,1.251655 3.84,1.94749 3.84,1.94749 4,2.671434 4,2.671434 2.71242,2.185779 2.71243,2.185778 3.36757,3.367576 3.36758,3.367575 2.18578,2.712425 2.18578,2.712425 2.67143,4 2.67143,4 1.94749,3.84 1.94749,3.84 1.25166,3.2 1.25165,3.2 1.1478,3.792295 1.1478,3.792295 0.777,4.207705 0.777,4.207706 0.38388,4.32 0.38388,4.32 -0.19914,5.119997 -0.19914,5.12 -0.63393,4.25875 -0.63392,4.25874 -1.14291,4.34443 -1.1429,4.34443 -1.13451,3.07683 -1.13451,3.07682 -2.34533,4.8 -2.34533,4.8 -2.53335,3.84 -2.53335,3.84 -2.03916,2.56 -2.03916,2.56 -3.21672,3.32376 -3.21671,3.32376 -3.47374,2.84692 -3.47374,2.84691 -3.66965,2.42319 -3.66965,2.4232 -3.90521,1.99395 -3.9052,1.99395 -3.41141,1.33379 -3.4114,1.3338 -3.81591,1.09833 -3.81591,1.09833 -3.32409,0.6383 -3.32409,0.6383 -3.2,0.32106 -3.2,0.32106 -3.68,0.1419 -3.68,0.14191 z m 27.53645,-25.80838 8.81645,-0.20934 2.78355,-12.35183 2.78355,-12.35183 4.3e-4,-0.31821 4.2e-4,-0.31822 -5.31132,0.10194 -5.31132,0.10194 1.16428,-2.02194 1.16427,-2.02194 1.47253,-2.88 c 7.92807,-15.81894 11.13133,-34.914474 8.68238,-52.546753 l 6.02916,-0.233702 6.02917,-0.233702 0.0599,-0.0595 0.0599,-0.0595 2.86178,-11.433418 2.86179,-11.433418 -1.1617,-3.17e-4 -1.1617,-3.18e-4 -44.30645,0.813431 -44.30644,0.813431 -0.0592,0.06689 -0.0592,0.06689 -8.83993,52.319996 -8.83993,52.32 -0.1794,0.87789 -0.17939,0.87789 c 24.98238,-0.0352 49.96427,0.0444 74.94642,0.11364 z m -45.97078,-25.62515 0.1784,-0.88428 1.44797,-9.07931 1.44796,-9.07931 V 111.80069 111.68 h 13.45004 l 13.63588,-0.0605 1.69546,-11.779487 1.58169,-11.04 -0.22153,-0.190236 -0.22154,-0.190236 -13.5843,0.419271 -13.5843,0.41927 -0.0976,-0.0976 -0.0976,-0.0976 1.17987,-7.971435 1.17987,-7.971434 0.022,-0.04704 0.022,-0.04704 22.17425,-0.55204 22.17426,-0.552039 0.16906,0.169065 0.16907,0.169065 -8.32227,29.502296 -8.32227,29.5023 -0.10105,0.0833 -0.10105,0.0834 -18.02637,0.20864 -18.02636,0.20865 z"
         id="path2" />
    </g>
  </g>
</svg>
