<svg version="1.1" id="Layer_1" xmlns="http://www.w3.org/2000/svg" xmlns:xlink="http://www.w3.org/1999/xlink" x="0px" y="0px"
	 width="100%" viewBox="0 0 330 153" enable-background="new 0 0 330 153" xml:space="preserve">
<path fill="#000000" opacity="1.000000" stroke="none" 
	d="
M68.000000,1.000000 
	C133.020889,1.000000 198.041794,1.000000 263.831360,1.312111 
	C263.954224,2.075004 263.370300,2.720541 262.653595,2.948284 
	C240.508804,9.984882 226.873016,30.790785 226.472595,48.954987 
	C223.450394,48.982643 220.877106,48.982643 218.308197,48.982643 
	C218.308197,52.726803 218.308197,55.638889 218.308197,59.121902 
	C221.393494,59.121902 224.179626,59.121902 226.979538,59.541679 
	C227.954147,70.761963 232.495285,79.940170 239.524261,88.059082 
	C246.388840,95.988098 255.142181,100.836044 264.925659,104.483002 
	C264.624023,105.815277 264.133942,106.734810 264.059143,107.686958 
	C262.501526,127.520271 240.219910,147.088501 216.491806,143.224564 
	C195.518341,139.809174 180.124298,122.386703 179.861771,101.096817 
	C179.651199,84.021423 189.385757,72.017128 203.412186,63.394817 
	C208.787857,60.090286 210.051163,57.746281 207.991043,51.096409 
	C207.395432,51.096409 206.673447,50.911812 206.096161,51.122925 
	C179.524551,60.840107 167.228180,82.953407 170.405151,108.802040 
	C172.856720,128.748444 184.417221,143.245651 203.894424,150.514175 
	C206.061462,151.322845 207.971024,152.821396 210.000000,154.000000 
	C180.979111,154.000000 151.958206,154.000000 122.132294,153.706146 
	C121.800262,152.969406 122.207825,152.255524 122.755791,152.123230 
	C136.458862,148.815033 147.011658,141.105759 154.291870,129.121689 
	C158.684875,121.890274 161.734024,114.101173 161.994888,105.228195 
	C158.597748,104.676727 155.562241,104.183960 152.214401,103.640495 
	C150.542542,115.301811 146.267105,125.277069 137.523193,132.983292 
	C128.788773,140.681152 118.392807,144.859695 107.037636,143.794266 
	C84.039558,141.636368 69.147392,125.063591 67.471313,103.862503 
	C68.229919,103.480515 68.635742,103.168022 69.092422,103.046310 
	C88.667870,97.828918 104.038002,78.055420 105.609116,59.008537 
	C114.893669,58.150806 122.919579,59.989830 130.574341,64.804146 
	C139.704620,70.546432 146.204178,78.239616 149.874023,88.189285 
	C152.037155,94.054001 155.722549,96.461426 161.912048,94.637482 
	C161.611145,93.412430 161.255417,92.191299 161.014389,90.947929 
	C158.442841,77.681900 151.451950,67.268974 140.908798,58.946407 
	C130.613464,50.819458 118.477303,49.517147 105.919525,48.498817 
	C105.340515,46.105080 104.978088,44.058308 104.517578,42.033840 
	C100.113113,22.671124 88.122002,10.052844 69.851906,2.971503 
	C69.093781,2.677661 68.611038,1.673326 68.000000,1.000000 
z"/>
<path fill="#000000" opacity="1.000000" stroke="none" 
	d="
M331.000000,68.000000 
	C331.000000,96.597595 331.000000,125.195190 331.000000,154.000000 
	C299.312744,154.000000 267.625031,154.000000 235.352295,153.626602 
	C236.503754,152.478348 238.332382,151.859940 239.960449,150.901031 
	C246.384888,147.117111 253.430084,144.014893 258.981110,139.202011 
	C268.872864,130.625595 273.353546,118.830872 275.607269,106.007355 
	C280.607361,105.556084 285.279022,105.592819 289.711487,104.581383 
	C309.188477,100.136986 322.345123,88.416725 329.061981,69.523094 
	C329.294678,68.868477 330.335724,68.501198 331.000000,68.000000 
z"/>
<path fill="#000000" opacity="1.000000" stroke="none" 
	d="
M97.000000,154.000000 
	C65.077095,154.000000 33.154194,154.000000 1.000000,154.000000 
	C1.000000,125.646194 1.000000,97.291756 1.299261,68.140793 
	C2.070320,68.149429 2.537358,68.957405 3.014669,69.759277 
	C6.821183,76.154205 9.847904,83.211014 14.595267,88.808296 
	C25.508678,101.675507 40.462921,105.872604 56.904575,106.409142 
	C57.313755,108.058495 57.737732,109.283607 57.970329,110.544044 
	C61.960037,132.164047 74.788963,145.730377 95.635696,152.079636 
	C96.230270,152.260727 96.551384,153.339691 97.000000,154.000000 
z"/>
<path fill="#0078D0" opacity="1.000000" stroke="none" 
	d="
M56.830315,106.001343 
	C40.462921,105.872604 25.508678,101.675507 14.595267,88.808296 
	C9.847904,83.211014 6.821183,76.154205 3.014669,69.759277 
	C2.537358,68.957405 2.070320,68.149429 1.299261,67.672134 
	C1.000000,58.645771 1.000000,49.291542 1.347590,39.709000 
	C2.052026,39.141880 2.617332,38.863571 2.735745,38.455563 
	C8.018404,20.253538 19.717424,8.423836 37.836243,2.870981 
	C38.365578,2.708755 38.618305,1.643963 39.000000,1.000000 
	C48.354229,1.000000 57.708454,1.000000 67.531342,1.000000 
	C68.611038,1.673326 69.093781,2.677661 69.851906,2.971503 
	C88.122002,10.052844 100.113113,22.671124 104.517578,42.033840 
	C104.978088,44.058308 105.340515,46.105080 105.549973,48.726265 
	C105.285774,52.544956 105.220047,55.778893 105.154320,59.012829 
	C104.038002,78.055420 88.667870,97.828918 69.092422,103.046310 
	C68.635742,103.168022 68.229919,103.480515 67.346664,103.426895 
	C67.290108,99.742104 67.687271,96.334435 68.416290,92.824570 
	C74.692490,88.123665 81.491287,84.263802 86.309517,78.691399 
	C90.131271,74.271446 91.526863,67.753693 94.346939,61.978020 
	C94.794762,58.138580 94.895348,54.488510 94.997559,50.410484 
	C94.976028,48.316601 95.266937,46.574135 94.882408,44.996277 
	C89.434647,22.642073 69.949173,7.516007 46.413239,11.287990 
	C21.467806,15.285865 5.928104,38.786789 12.146404,63.582104 
	C17.380213,84.451790 37.455036,97.685295 57.129768,95.229324 
	C57.176125,99.018127 57.003220,102.509735 56.830315,106.001343 
z"/>
<path fill="#F0282D" opacity="1.000000" stroke="none" 
	d="
M331.000000,67.531342 
	C330.335724,68.501198 329.294678,68.868477 329.061981,69.523094 
	C322.345123,88.416725 309.188477,100.136986 289.711487,104.581383 
	C285.279022,105.592819 280.607361,105.556084 275.384766,105.667786 
	C271.459381,104.917664 268.195007,104.501556 264.930634,104.085449 
	C255.142181,100.836044 246.388840,95.988098 239.524261,88.059082 
	C232.495285,79.940170 227.954147,70.761963 227.383423,59.444107 
	C231.181229,60.009003 234.588913,61.091255 237.997452,62.566498 
	C238.135056,63.922878 238.119812,64.938736 238.431473,65.841759 
	C242.866608,78.692543 251.531296,87.570015 264.286438,93.062721 
	C268.082825,93.797180 271.559387,94.344070 275.431213,94.936600 
	C278.177856,94.988335 280.537201,95.123894 282.879456,94.980461 
	C305.658875,93.585526 325.058441,71.597588 320.710358,46.242020 
	C316.513672,21.769264 293.709076,5.947617 268.381317,12.135940 
	C250.787598,16.434610 236.414169,33.704811 236.602722,50.895332 
	C233.110931,50.280361 230.016205,49.603848 226.921494,48.927334 
	C226.873016,30.790785 240.508804,9.984882 262.653595,2.948284 
	C263.370300,2.720541 263.954224,2.075004 264.300049,1.312111 
	C273.354218,1.000000 282.708466,1.000000 292.240295,1.320456 
	C292.756500,2.004760 293.031860,2.578389 293.442810,2.702283 
	C311.566620,8.166130 323.502686,19.849218 329.133911,37.968513 
	C329.286133,38.458351 330.357330,38.662582 331.000000,39.000000 
	C331.000000,48.354229 331.000000,57.708454 331.000000,67.531342 
z"/>
<path fill="#00A551" opacity="1.000000" stroke="none" 
	d="
M264.925659,104.483002 
	C268.195007,104.501556 271.459381,104.917664 274.946228,105.673340 
	C273.353546,118.830872 268.872864,130.625595 258.981110,139.202011 
	C253.430084,144.014893 246.384888,147.117111 239.960449,150.901031 
	C238.332382,151.859940 236.503754,152.478348 234.883636,153.626602 
	C226.979095,154.000000 218.958191,154.000000 210.468643,154.000000 
	C207.971024,152.821396 206.061462,151.322845 203.894424,150.514175 
	C184.417221,143.245651 172.856720,128.748444 170.405151,108.802040 
	C167.228180,82.953407 179.524551,60.840107 206.096161,51.122925 
	C206.673447,50.911812 207.395432,51.096409 207.991043,51.096409 
	C210.051163,57.746281 208.787857,60.090286 203.412186,63.394817 
	C189.385757,72.017128 179.651199,84.021423 179.861771,101.096817 
	C180.124298,122.386703 195.518341,139.809174 216.491806,143.224564 
	C240.219910,147.088501 262.501526,127.520271 264.059143,107.686958 
	C264.133942,106.734810 264.624023,105.815277 264.925659,104.483002 
z"/>
<path fill="#FEB114" opacity="1.000000" stroke="none" 
	d="
M94.995934,50.838444 
	C94.895348,54.488510 94.794762,58.138580 93.994522,62.009922 
	C80.112556,68.538185 71.333572,78.461639 68.084427,92.926773 
	C67.687271,96.334435 67.290108,99.742104 67.017609,103.585373 
	C69.147392,125.063591 84.039558,141.636368 107.037636,143.794266 
	C118.392807,144.859695 128.788773,140.681152 137.523193,132.983292 
	C146.267105,125.277069 150.542542,115.301811 152.214401,103.640495 
	C155.562241,104.183960 158.597748,104.676727 161.994888,105.228195 
	C161.734024,114.101173 158.684875,121.890274 154.291870,129.121689 
	C147.011658,141.105759 136.458862,148.815033 122.755791,152.123230 
	C122.207825,152.255524 121.800262,152.969406 121.663635,153.706146 
	C113.979103,154.000000 105.958199,154.000000 97.468651,154.000000 
	C96.551384,153.339691 96.230270,152.260727 95.635696,152.079636 
	C74.788963,145.730377 61.960037,132.164047 57.970329,110.544044 
	C57.737732,109.283607 57.313755,108.058495 56.904575,106.409142 
	C57.003220,102.509735 57.176125,99.018127 57.301491,94.873138 
	C57.650764,92.511009 58.000885,90.789841 58.451511,89.095406 
	C63.622635,69.650993 75.563690,56.664509 94.995934,50.838444 
z"/>
<path fill="#000000" opacity="1.000000" stroke="none" 
	d="
M331.000000,38.531342 
	C330.357330,38.662582 329.286133,38.458351 329.133911,37.968513 
	C323.502686,19.849218 311.566620,8.166130 293.442810,2.702283 
	C293.031860,2.578389 292.756500,2.004760 292.708923,1.320456 
	C305.593292,1.000000 318.186615,1.000000 331.000000,1.000000 
	C331.000000,13.353357 331.000000,25.708019 331.000000,38.531342 
z"/>
<path fill="#000000" opacity="1.000000" stroke="none" 
	d="
M38.531342,1.000000 
	C38.618305,1.643963 38.365578,2.708755 37.836243,2.870981 
	C19.717424,8.423836 8.018404,20.253538 2.735745,38.455563 
	C2.617332,38.863571 2.052026,39.141880 1.347590,39.240345 
	C1.000000,26.406702 1.000000,13.813402 1.000000,1.000000 
	C13.353357,1.000000 25.708019,1.000000 38.531342,1.000000 
z"/>
<path fill="#FDB014" opacity="1.000000" stroke="none" 
	d="
M105.609116,59.008537 
	C105.220047,55.778893 105.285774,52.544956 105.721054,49.083572 
	C118.477303,49.517147 130.613464,50.819458 140.908798,58.946407 
	C151.451950,67.268974 158.442841,77.681900 161.014389,90.947929 
	C161.255417,92.191299 161.611145,93.412430 161.912048,94.637482 
	C155.722549,96.461426 152.037155,94.054001 149.874023,88.189285 
	C146.204178,78.239616 139.704620,70.546432 130.574341,64.804146 
	C122.919579,59.989830 114.893669,58.150806 105.609116,59.008537 
z"/>
<path fill="#01A551" opacity="1.000000" stroke="none" 
	d="
M226.472595,48.954987 
	C230.016205,49.603848 233.110931,50.280361 236.973892,50.975891 
	C253.082581,55.942539 264.329620,65.577148 270.671112,80.464027 
	C272.628510,85.058983 273.608490,90.070290 275.035980,94.890968 
	C271.559387,94.344070 268.082825,93.797180 264.272949,92.690575 
	C259.955261,78.106659 251.680313,67.798088 237.996597,62.173508 
	C234.588913,61.091255 231.181229,60.009003 227.369659,59.024330 
	C224.179626,59.121902 221.393494,59.121902 218.308197,59.121902 
	C218.308197,55.638889 218.308197,52.726803 218.308197,48.982643 
	C220.877106,48.982643 223.450394,48.982643 226.472595,48.954987 
z"/>
<path fill="#000000" opacity="1.000000" stroke="none" 
	d="
M94.997559,50.410484 
	C75.563690,56.664509 63.622635,69.650993 58.451511,89.095406 
	C58.000885,90.789841 57.650764,92.511009 57.082230,94.575943 
	C37.455036,97.685295 17.380213,84.451790 12.146404,63.582104 
	C5.928104,38.786789 21.467806,15.285865 46.413239,11.287990 
	C69.949173,7.516007 89.434647,22.642073 94.882408,44.996277 
	C95.266937,46.574135 94.976028,48.316601 94.997559,50.410484 
z"/>
<path fill="#000000" opacity="1.000000" stroke="none" 
	d="
M68.416290,92.824570 
	C71.333572,78.461639 80.112556,68.538185 93.647285,62.199295 
	C91.526863,67.753693 90.131271,74.271446 86.309517,78.691399 
	C81.491287,84.263802 74.692490,88.123665 68.416290,92.824570 
z"/>
<path fill="#000000" opacity="1.000000" stroke="none" 
	d="
M275.431213,94.936600 
	C273.608490,90.070290 272.628510,85.058983 270.671112,80.464027 
	C264.329620,65.577148 253.082581,55.942539 237.370972,50.914352 
	C236.414169,33.704811 250.787598,16.434610 268.381317,12.135940 
	C293.709076,5.947617 316.513672,21.769264 320.710358,46.242020 
	C325.058441,71.597588 305.658875,93.585526 282.879456,94.980461 
	C280.537201,95.123894 278.177856,94.988335 275.431213,94.936600 
z"/>
<path fill="#000000" opacity="1.000000" stroke="none" 
	d="
M237.997452,62.566498 
	C251.680313,67.798088 259.955261,78.106659 263.953125,92.503014 
	C251.531296,87.570015 242.866608,78.692543 238.431473,65.841759 
	C238.119812,64.938736 238.135056,63.922878 237.997452,62.566498 
z"/>
</svg>