<svg version="1.2" xmlns="http://www.w3.org/2000/svg" viewBox="0 0 222 142" width="222" height="142">
	<style>
		.s0 { fill: #fefefe } 
		.s1 { fill: #003f7e } 
		.s2 { fill: #003e7c } 
		.s3 { fill: #004080 } 
		.s4 { fill: #003f7f } 
		.s5 { fill: #003e7b } 
		.s6 { fill: #003e7d } 
		.s7 { fill: #00407f } 
		.s8 { fill: #003b76 } 
		.s9 { fill: #014180 } 
		.s10 { fill: #ffd501 } 
		.s11 { fill: #e62e25 } 
		.s12 { fill: #024180 } 
	</style>
	<path class="s0" d="m211.56 47.32q-2.6 0.72-5.2 1.36-12.96 3.22-25.93 6.45-9.88 2.45-19.77 4.9-9.42 2.35-18.85 4.7-9.31 2.31-18.62 4.62-9.49 2.36-18.98 4.71-9.31 2.31-18.62 4.62-9.39 2.34-18.79 4.68-4.68 1.15-9.37 2.31-9.55 2.37-19.1 4.74-4.53 1.13-9.07 2.26-2.21 0.54-4.42 1.06c-0.1 0.03-0.2 0.03-0.38 0.05 0-31.2 0-62.37-0.01-93.6q0.36-0.08 0.78-0.01 0.84 0.31 1.67 0.53 4.55 1.14 9.12 2.26 9.3 2.32 18.61 4.63 9.49 2.35 18.98 4.7 9.31 2.31 18.62 4.62 9.4 2.34 18.79 4.68 9.31 2.31 18.62 4.62 4.77 1.19 9.55 2.38 9.28 2.3 18.56 4.6 9.52 2.36 19.04 4.72 9.31 2.31 18.62 4.62 7.64 1.91 15.28 3.82 0.43 0.09 0.87 0.15 0 0.37 0 0.82zm-155.16-36.46q-0.12-0.05-0.24-0.08-5.51-1.38-11.03-2.75c-1.22-0.31-2.45-0.59-3.77-0.92q-0.06-0.03-0.12-0.04-6.83-1.71-13.67-3.42c-0.1-0.02-0.22 0-0.38 0q0 0.27 0 0.48 0 12.52 0.01 25.04c0 0.19 0.02 0.37 0 0.68q0 5.79 0 11.62c50.49 0 100.91 0 151.33 0q-0.28-0.16-0.57-0.23-1.33-0.33-2.67-0.66-21.36-5.35-42.73-10.68-0.66-0.16-1.35-0.16-36.97-0.01-73.93 0c-0.27 0-0.55-0.02-0.81-0.14q0-0.74 0-1.49c0-2.66 0.01-5.32 0.13-7.98q18.22 0 36.45 0c-0.2-0.15-0.41-0.21-0.62-0.26q-14.4-3.61-28.8-7.21c-2.37-0.59-4.76-1.17-7.23-1.8zm69.97 53.5q2.16 0.01 4.32-0.01 0.65 0 1.29-0.15 5.9-1.47 11.8-2.95 16.8-4.19 33.6-8.39c0.15-0.04 0.3-0.1 0.55-0.19-50.32 0-100.51 0-150.7 0 0 3.91 0 7.78 0 11.69 33.04 0 66.03 0 99.14 0zm-92.63 24.39q3.33-0.83 6.66-1.66 22.19-5.55 44.37-11.11 0.76-0.19 1.52-0.4-0.01-0.02-0.02-0.05-29.51 0-59.03 0c0 4.96 0 9.88 0 14.85 2.17-0.55 4.28-1.08 6.5-1.63z"/>
	<path class="s1" d="m61.12 142.5c-0.02-0.22-0.19-0.2-0.33-0.26-0.65-0.26-1.33-0.48-1.94-0.81-1.11-0.6-1.86-1.55-2.34-2.68-1.14-2.66-1.04-5.29 0.43-7.78 1.04-1.76 2.69-2.61 4.72-2.86q2.26-0.28 4.18 0.86c1.45 0.86 2.24 2.17 2.46 3.92-0.97 0.17-1.91 0.06-2.85 0.07q-0.21-0.43-0.38-0.82c-0.52-1.15-2.01-1.64-3.1-1.45-1.63 0.29-2.5 1.29-2.91 2.8-0.41 1.53-0.35 3.04 0.36 4.49 0.51 1.05 1.35 1.62 2.51 1.82 0.56 0.09 1.08 0.02 1.59-0.1 1.23-0.28 1.96-1.21 2.12-2.64-0.47-0.17-0.97-0.06-1.45-0.08-0.48-0.02-0.95-0.01-1.47-0.01 0-0.8 0-1.53 0-2.31q2.84 0 5.62 0c0.14 0.45 0.16 6.71 0.03 7.43q-0.9 0-1.87 0c-0.08-0.43-0.16-0.86-0.25-1.34-0.12 0.08-0.24 0.12-0.31 0.2q-0.86 0.95-2.09 1.31-0.1 0.04-0.17 0.19c-0.83 0.05-1.66 0.05-2.56 0.05z"/>
	<path class="s1" d="m211.56 120.19q-5.08 0.07-10.15 0.06c-0.13-0.5-0.17-12.86-0.04-13.72q2.5-0.01 5.02 0 2.51 0 5.12-0.02 0.08 1.29-0.01 2.67c-0.64 0.05-1.22 0.05-1.8 0.05q-0.91 0-1.81 0-0.88-0.01-1.75 0c-0.59 0.01-1.19-0.05-1.77 0.04 0 0.94 0 1.8 0 2.71 2.21 0.06 4.38-0.03 6.54 0.05 0 0.84 0 1.61 0 2.44q-0.85 0-1.64 0-0.82 0-1.63 0-0.84-0.01-1.68 0.01c-0.53 0.02-1.07-0.1-1.59 0.08 0 1.04 0 2.05 0 3.12q0.41 0.03 0.76 0.04 3.22 0.02 6.43 0.03 0 1.18 0 2.44z"/>
	<path class="s2" d="m24.06 115.56c0.39-0.06 0.78-0.06 1.2-0.06 0.03 0.4 0.04 0.73 0.09 1.05 0.21 1.27 0.98 2.1 2.13 2.56 1.33 0.53 2.72 0.58 4.11 0.24 0.87-0.22 1.63-0.68 2-1.55 0.6-1.41 0.17-2.8-1.43-3.39-0.96-0.36-2.01-0.51-3-0.79-0.92-0.25-1.86-0.48-2.74-0.84-2.61-1.06-2.31-4.71-0.36-5.87q1.45-0.88 3.13-0.9c1.42-0.02 2.78 0.22 3.94 1.1 1.13 0.86 1.55 2.05 1.57 3.47-0.42 0-0.78 0-1.18 0-0.02-0.06-0.06-0.14-0.06-0.21-0.05-1.79-1.26-2.8-2.72-3.12-0.91-0.19-1.82-0.22-2.72 0.01-1.08 0.27-1.92 0.81-2.23 2-0.31 1.17 0.44 2.16 1.36 2.58 0.93 0.42 1.94 0.58 2.93 0.79 1.12 0.24 2.25 0.46 3.27 1.01 1.31 0.72 1.84 2.09 1.65 3.48q-0.34 2.7-3.44 3.36c-1.83 0.38-3.65 0.23-5.33-0.71-0.86-0.48-1.5-1.17-1.84-2.11q-0.09-0.22-0.28-0.41c-0.05-0.54-0.05-1.09-0.05-1.69z"/>
	<path class="s1" d="m181.36 120.32c-0.54-0.52-0.53-0.49-1.21-0.24-1.16 0.43-2.35 0.6-3.6 0.44-1.53-0.21-2.83-0.81-3.9-1.9q-1.24-1.29-1.62-3.04c-0.47-2.12-0.36-4.19 0.69-6.12 1.06-1.96 2.77-2.95 4.96-3.22q2.11-0.25 3.99 0.68c1.48 0.72 2.46 1.89 3.02 3.42q1.19 3.31-0.17 6.56c-0.17 0.4-0.44 0.75-0.67 1.12q-0.13 0.2-0.3 0.45c0.54 0.51 1.07 1 1.65 1.53-0.48 0.52-0.95 1.01-1.46 1.55-0.46-0.41-0.91-0.8-1.38-1.23zm-6.43-10.39c-0.19 0.28-0.42 0.53-0.55 0.83-0.72 1.73-0.81 3.49-0.01 5.19 0.81 1.73 2.16 2.25 4.18 1.82q-0.59-0.58-1.14-1.15c0.49-0.54 0.93-1.02 1.39-1.52 0.55 0.47 1.04 0.9 1.61 1.39 0.2-0.47 0.4-0.83 0.52-1.22 0.35-1.12 0.34-2.26 0.1-3.39-0.19-0.9-0.56-1.74-1.3-2.35-1.29-1.08-3.66-1.01-4.8 0.4z"/>
	<path class="s1" d="m114.15 112.41c-0.24-0.38-0.46-0.73-0.75-1.19-0.13 0.68-0.06 1.25-0.07 1.81q-0.01 0.9-0.01 1.81 0 0.87 0 1.75 0 0.9 0 1.81 0 0.86 0 1.78-1.43 0-2.76 0c-0.14-0.51-0.2-12.07-0.08-13.61 0.5-0.15 1.02-0.05 1.53-0.07q0.74-0.01 1.51 0c1.86 2.98 3.7 5.94 5.61 9 0.12-0.66 0.05-1.22 0.07-1.78q0.01-0.91 0-1.81 0-0.88 0-1.75 0-0.91 0-1.81 0-0.88 0-1.73c0.49-0.15 2.17-0.17 2.84-0.04q0 6.78 0 13.63c-1.01 0-2 0-3.06 0q-2.38-3.84-4.83-7.8z"/>
	<path class="s1" d="m84.18 133c0-1.54 0-3.02 0-4.56q0.35-0.03 0.63-0.04c0.61 0 1.21 0.03 1.82-0.01 0.41-0.03 0.64 0.14 0.85 0.48q1.02 1.67 2.07 3.34 1.49 2.41 2.99 4.82c0.05 0.08 0.12 0.16 0.27 0.37 0-3.05 0-5.97 0-8.96 0.98-0.08 1.88-0.03 2.77-0.03 0.14 0.47 0.2 12.62 0.06 13.66q-0.22 0.04-0.46 0.05c-0.65 0.01-1.29-0.02-1.94 0.01-0.45 0.03-0.71-0.14-0.94-0.53-0.74-1.25-1.52-2.48-2.29-3.71q-1.29-2.1-2.59-4.19c-0.08-0.13-0.17-0.24-0.35-0.48-0.01 0.84-0.01 1.55-0.02 2.26q0 1.09 0 2.18 0 1.09 0 2.19c0 0.72 0 1.45 0 2.26q-0.74 0.01-1.4 0.02-0.69 0-1.32 0-0.08-0.08-0.09-0.09-0.03-0.02-0.03-0.05-0.02-4.45-0.03-8.99z"/>
	<path class="s1" d="m127.36 133.87c2.11 0 4.17 0 6.27 0 0 0.8 0 1.54 0 2.37-1.07 0.03-2.14 0.01-3.22 0.01q-1.62 0-3.22 0c-0.14 0.5-0.16 2.56-0.03 3.27q1.78 0 3.59 0 1.79 0 3.64 0.01c0 0.9 0 1.7 0 2.55q-5.18 0-10.4 0c0-4.52 0-9.03 0-13.61 0.17-0.02 0.35-0.07 0.53-0.07q4.59 0 9.18 0 0.26 0.01 0.57 0.06c0 0.86 0 1.66 0 2.54-2.4 0-4.76 0-7.18 0 0 0.94-0.01 1.81 0.01 2.68 0 0.06 0.13 0.12 0.26 0.19z"/>
	<path class="s1" d="m108.66 142.13q-4.98 0-9.85 0c-0.14-0.52-0.16-13.04-0.03-13.62 0.45-0.14 9.38-0.17 10.13-0.03q0 1.2 0 2.51c-2.36 0-4.68 0-7.1 0-0.02 0.97-0.01 1.89 0 2.88 2.22 0 4.38 0 6.58 0 0 0.81 0 1.55 0 2.38-2.17 0.01-4.33 0-6.57 0-0.03 1.08-0.03 2.13 0 3.24 2.46 0 4.86 0 7.31 0 0 0.89 0 1.71 0 2.57q-0.19 0.04-0.47 0.07z"/>
	<path class="s3" d="m75.57 133.88c1.84 0 3.63 0 5.45 0 0 0.81 0 1.55 0 2.35-2.19 0-4.34 0-6.54 0 0 1.1 0 2.13 0 3.25 0.76 0.04 1.54 0.01 2.32 0.02q1.22 0 2.44 0c0.78 0 1.57 0 2.43 0 0.05 0.87 0.02 1.69 0.03 2.5-0.46 0.15-9.32 0.2-10.3 0.07-0.12-0.43-0.16-12.76-0.03-13.55q5.05 0 10.17 0c0 0.82 0 1.6 0 2.47q-1.19 0.01-2.36 0.01-1.15 0-2.31 0-1.17 0-2.4 0c0 0.97 0 1.87 0 2.85q0.5 0.01 1.1 0.03z"/>
	<path class="s1" d="m198.3 107.27c0 2.73 0.02 5.39-0.01 8.06-0.01 0.67-0.16 1.36-0.33 2.01-0.39 1.47-1.41 2.4-2.8 2.88-1.73 0.6-3.52 0.61-5.27 0.07-1.9-0.6-2.96-1.93-3.21-3.89q-0.1-0.75-0.1-1.49-0.01-3.75-0.01-7.5 0-0.34 0-0.7c0.53-0.16 1.02-0.07 1.51-0.08 0.5-0.02 1-0.01 1.56-0.01q0.03 0.39 0.04 0.71 0 4 0 8c0 0.25-0.01 0.5 0.04 0.74 0.21 1.02 0.78 1.83 2.19 1.93q0.56 0.03 1.12 0c1.24-0.08 2.04-0.87 2.15-2.1q0.02-0.31 0.02-0.63 0-3.93 0-7.87 0-0.33 0-0.73c1.03 0 2.02 0 3.06 0q0.02 0.26 0.04 0.6z"/>
	<path class="s4" d="m144.1 118c0.51-0.05 0.97-0.04 1.41-0.15 0.79-0.19 1.32-0.71 1.52-1.5q0.15-0.57 0.14-1.17 0.01-3.93 0-7.87 0-0.34 0-0.66c0.54-0.17 2.55-0.17 3.1 0q0.02 0.28 0.03 0.59c0 2.56 0.03 5.12-0.01 7.68-0.02 1.03-0.15 2.06-0.62 3.02q-0.8 1.6-2.45 2.18-2.8 1.01-5.62 0.03c-1.6-0.56-2.55-1.74-2.89-3.38q-0.16-0.77-0.15-1.55-0.02-3.96-0.01-7.93 0-0.32 0-0.72c1.02 0 1.99 0 3.02 0q0 0.38 0 0.71-0.01 3.84 0.01 7.68c0.01 0.49 0.1 0.99 0.23 1.47 0.22 0.85 0.83 1.31 1.68 1.45q0.27 0.06 0.61 0.12z"/>
	<path class="s4" d="m133.23 109.96c1.27 3.43 2.53 6.81 3.81 10.25-1.08 0-2.09 0-3.17 0q-0.36-1.01-0.73-2.07-0.1-0.29-0.2-0.59c-0.06-0.2-0.17-0.32-0.39-0.32q-2.36 0-4.77 0-0.45 1.26-0.89 2.48c-0.19 0.53-0.18 0.54-0.73 0.54-0.83 0-1.66 0-2.58 0 1.76-4.62 3.49-9.17 5.23-13.72 1.06 0 2.08 0 3.13 0q0.63 1.69 1.29 3.43zm-1.29 4.85c-0.01-0.1 0-0.21-0.03-0.31q-0.7-2.06-1.41-4.12-0.05-0.1-0.12-0.21c-0.46 0.77-1.66 4.26-1.64 4.81q0.42 0 0.85 0c0.77-0.02 1.53-0.05 2.35-0.17z"/>
	<path class="s1" d="m112.41 128.4q0.23 0.01 0.37 0c0.33-0.03 0.46 0.12 0.55 0.44q1.1 3.48 2.21 6.95c0.22 0.67 0.43 1.34 0.75 2q0.51-1.55 1.01-3.11 0.95-2.93 1.89-5.87c0.07-0.24 0.16-0.42 0.46-0.41q1.31 0.01 2.62 0.02 0.04 0 0.16 0.09-0.07 0.27-0.16 0.56-2.04 6.19-4.09 12.38-0.08 0.2-0.14 0.41-0.12 0.38-0.51 0.37-1.32-0.02-2.63 0c-0.35 0.01-0.47-0.19-0.56-0.47q-0.48-1.51-0.97-3.03-1.62-4.98-3.24-9.96-0.03-0.11-0.06-0.27c0.38-0.18 0.78-0.08 1.16-0.1 0.37-0.01 0.75 0 1.18 0z"/>
	<path class="s2" d="m163.43 107.87c0 0.34 0.01 0.61 0 0.88-0.02 0.4-0.07 0.46-0.48 0.47q-0.97 0.01-1.94 0.01c-0.53 0-1.07 0-1.7 0-0.01 1.87 0 3.7-0.01 5.52q0 2.74 0 5.46c-0.51 0.18-2.41 0.2-3.1 0.03q0-2.71 0-5.45c0-1.82 0-3.65 0-5.56-1.39 0-2.71 0-4.07 0 0-0.93 0-1.77 0-2.61 0.55-0.15 10.77-0.13 11.3 0.05q0 0.54 0 1.2z"/>
	<path class="s2" d="m47.29 119.23c-1.18 0.94-2.48 1.39-3.95 1.41-1.48 0.02-2.84-0.27-4.07-1.12-1.21-0.84-1.99-2.01-2.42-3.39q-0.89-2.9 0.08-5.81c0.95-2.79 3.44-4.32 6.06-4.33 1.67-0.01 3.15 0.43 4.43 1.51 0.77 0.64 1.3 1.46 1.69 2.36q0.74 1.75 0.68 3.64c-0.07 1.82-0.49 3.54-1.72 4.96-0.22 0.27-0.49 0.5-0.78 0.77zm-6.64-0.24c0.82 0.43 1.68 0.52 2.59 0.55 2.09 0.05 3.9-1.27 4.7-3.11q1.26-2.92 0.12-5.89c-0.76-1.96-2.53-3.39-4.81-3.44-2.39-0.05-4.34 1.39-5.14 3.52-0.38 1.02-0.47 2.06-0.43 3.13 0.08 2.23 0.95 4.01 2.97 5.24z"/>
	<path class="s5" d="m24.85 142.25c-0.12-0.07-0.24-0.12-0.25-0.2q-0.04-0.24-0.03-0.5 0-6.31 0-12.62 0.01-0.29 0.03-0.64 0.26-0.03 0.46-0.04 2.37-0.02 4.75 0.01c1.16 0.01 2.26 0.32 3.25 0.95 1.22 0.77 1.95 1.92 2.31 3.29 0.51 1.93 0.53 3.87-0.1 5.77-0.71 2.16-2.25 3.39-4.44 3.83-0.52 0.11-1.07 0.14-1.61 0.14-1.43 0.02-2.87 0.01-4.37 0.01zm6.34-1.4c1.77-0.64 2.72-1.95 3.13-3.74 0.32-1.38 0.28-2.76-0.04-4.13-0.19-0.81-0.54-1.57-1.12-2.2-0.93-1-2.12-1.37-3.42-1.42-1.17-0.04-2.33-0.01-3.5 0-0.13 0-0.27 0.04-0.39 0.07 0 3.91 0 7.77 0 11.69q0.35 0 0.65 0 1.31-0.01 2.62 0.01c0.68 0.02 1.33-0.08 2.07-0.28z"/>
	<path class="s6" d="m71.3 110.12c0 0.81 0 1.56 0 2.38 2.62 0.01 5.17 0.03 7.74 0.04 0 0.38 0 0.68 0 1.08-2.56 0.01-5.11 0-7.69 0.01 0 1.88 0 3.7 0 5.61q2.05 0.02 4.1 0.01 2.04 0 4.17 0c0 0.37 0 0.71 0 1.09q-4.75 0-9.47 0c-0.13-0.51-0.16-12.63-0.04-13.85 0.43-0.14 8.6-0.18 9.42-0.04 0 0.31 0 0.63 0 1.03q-2.06 0-4.07 0c-1.35 0-2.71 0-4.14 0-0.01 0.89-0.01 1.74-0.02 2.64z"/>
	<path class="s6" d="m43.56 128.25c1.35 0 2.64 0 3.97 0 0 0.38 0 0.69 0 1.08-2.72 0-5.42 0-8.19 0-0.08 1.69-0.01 3.32-0.04 5.04 0.68 0.06 1.31 0.02 1.95 0.03q0.97 0 1.94 0 0.93 0 1.87 0 0.95 0 1.97 0c0 0.38 0 0.7 0 1.1q-3.84 0-7.67 0c-0.26 1.89-0.13 3.71-0.16 5.61 2.83 0.1 5.61-0.01 8.43 0.06 0 0.37 0 0.67 0 0.98-0.42 0.13-8.74 0.16-9.54 0.03q0-6.91 0-13.83 0.03-0.02 0.05-0.04 0.03-0.03 0.05-0.03 2.64-0.02 5.37-0.03z"/>
	<path class="s1" d="m98.94 113.63c-1.6 0-3.13 0-4.7 0 0 1.89 0 3.72 0 5.63 0.71 0.04 1.41 0.01 2.11 0.01q1.06 0.01 2.12 0.01 1.04 0 2.07 0 1.04 0 2.13 0c0 0.39 0 0.69 0 1-0.47 0.12-8.83 0.15-9.58 0.02q0-6.91 0-13.83c0.46-0.12 8.69-0.15 9.44-0.02q0 0.45 0 1.01c-2.73 0-5.43 0-8.16 0-0.03 0.22-0.06 0.38-0.07 0.54q0.01 0.97 0 1.94-0.04 0.93-0.1 1.86c-0.01 0.2 0 0.41 0 0.69 1.35 0.08 2.65 0.02 3.95 0.03q1.92 0.01 3.89 0c0 0.39 0 0.7 0 1.09q-0.77 0.01-1.54 0.02-0.73 0-1.56 0z"/>
	<path class="s2" d="m59.21 107.32q-1.64-0.42-3.18 0.08c-1.28 0.42-2.18 1.28-2.81 2.43-0.75 1.38-0.99 2.87-0.82 4.45 0.14 1.21 0.52 2.3 1.24 3.27 0.83 1.13 1.95 1.76 3.33 1.98 1.25 0.21 2.38-0.02 3.36-0.77 1.23-0.94 2.07-2.16 2.13-3.78q0.01-0.11 0.06-0.28c0.37 0 0.73 0 1.19 0-0.11 0.57-0.16 1.09-0.3 1.57-0.66 2.2-2.06 3.69-4.31 4.26-2.45 0.61-5.4-0.4-6.82-2.74-0.66-1.08-0.99-2.26-1.13-3.52-0.18-1.66 0.05-3.24 0.79-4.72 1.22-2.43 3.28-3.55 5.97-3.54 1.55 0.01 2.95 0.47 4.07 1.59 0.74 0.74 1.16 1.67 1.43 2.66 0.03 0.14 0 0.28 0 0.46-0.37 0-0.72 0-1.11 0-0.37-1.71-1.36-2.86-3.09-3.4z"/>
	<path class="s7" d="m168.32 111.38c0 2.97 0 5.88 0 8.83-1.01 0-1.96 0-2.91 0-0.14-0.42-0.2-12.43-0.06-13.57 0.42-0.14 2.17-0.17 2.97-0.03q0 2.32 0 4.77z"/>
	<path class="s2" d="m85.8 119.73c0-4.09 0-8.13 0-12.21-0.26-0.02-0.46-0.04-0.66-0.04q-1.72 0-3.44 0c-0.76 0-0.77-0.02-0.75-0.76q0.01-0.13 0.03-0.24c0.46-0.13 10.1-0.16 10.81-0.03q0 0.46 0 1.02c-1.57 0-3.11 0-4.73 0-0.01 1.47 0 2.88 0 4.28q-0.01 2.16-0.01 4.31 0 2.11 0 4.27c-0.43 0-0.79 0-1.21 0-0.01-0.18-0.03-0.36-0.04-0.6z"/>
	<path class="s3" d="m66.18 119.73c0-4.45 0-8.85 0-13.3q0.54 0 1.05 0c0.12 0.45 0.18 12.52 0.05 13.89q-0.48 0-1.06 0-0.02-0.24-0.04-0.59z"/>
	<path class="s6" d="m104.55 125.76q0.28 0.43 0.54 0.81c-0.86 0.36-1.91 0.18-2.5-0.38q-1.02-0.96-2.04-1.91c-0.1-0.09-0.19-0.2-0.38-0.41 0.81 0 1.51 0.05 2.19-0.01 0.66-0.06 1.1 0.12 1.4 0.74 0.2 0.4 0.51 0.75 0.79 1.16z"/>
	<path class="s8" d="m77.27 102.58c-0.51 0.52-1.02 0.98-1.46 1.5-0.43 0.52-0.93 0.63-1.62 0.46 0.12-0.19 0.2-0.37 0.32-0.51 0.58-0.68 1.18-1.33 1.74-2.02 0.31-0.38 0.65-0.56 1.13-0.49 0.2 0.02 0.4 0 0.69 0-0.22 0.45-0.48 0.75-0.8 1.06z"/>
	<path class="s8" d="m98.66 102.72c0.2-0.24 0.39-0.43 0.54-0.65 0.31-0.42 0.69-0.64 1.22-0.55 0.2 0.03 0.4 0.02 0.71 0.04-0.49 0.55-0.89 1.01-1.3 1.46-0.34 0.36-0.71 0.7-1.05 1.06-0.57 0.6-0.61 0.62-1.58 0.45 0.4-0.68 0.98-1.18 1.46-1.81z"/>
	<path class="s9" d="m56.46 29.72q0.41 0.01 0.82 0.02 36.96-0.01 73.93 0 0.69 0 1.35 0.16 21.37 5.33 42.73 10.68 1.34 0.33 2.67 0.66 0.29 0.07 0.57 0.23c-50.42 0-100.84 0-151.33 0 0-3.89 0-7.76 0.07-11.68 4.53-0.05 8.98-0.05 13.43-0.06 0.25 0 0.5-0.01 0.8-0.01q7.37 0.02 14.65 0.02 0.16-0.01 0.31-0.02z"/>
	<path class="s9" d="m126.31 64.36c-33.05 0-66.04 0-99.08 0 0-3.91 0-7.78 0-11.69 50.19 0 100.38 0 150.7 0-0.25 0.09-0.4 0.15-0.55 0.19q-16.8 4.2-33.6 8.39-5.9 1.48-11.8 2.95-0.64 0.15-1.29 0.15c-1.44 0.02-2.88 0.01-4.38 0.01z"/>
	<path class="s9" d="m33.69 88.76c-2.17 0.54-4.28 1.07-6.45 1.62 0-4.97 0-9.89 0-14.85q29.52 0 59.03 0 0.01 0.03 0.02 0.05-0.76 0.21-1.52 0.4-22.18 5.56-44.37 11.11-3.32 0.83-6.71 1.67z"/>
	<path class="s10" d="m41.45 29.71q-0.38 0.02-0.75 0.02-6.66 0.01-13.41 0-0.1-0.28-0.09-0.56-0.01-12.52-0.01-25.04 0-0.21 0-0.48c0.16 0 0.28-0.02 0.38 0q6.84 1.71 13.67 3.42c0.04 0.01 0.08 0.02 0.16 0.12 0.05 7.55 0.05 15.04 0.05 22.52z"/>
	<path class="s11" d="m41.5 29.72c-0.05-7.49-0.05-14.98-0.05-22.51q1.84 0.36 3.68 0.82 5.52 1.37 11.03 2.75c0.08 0.02 0.16 0.05 0.28 0.16 0.03 1.68 0.02 3.28 0.02 4.88q0.01 2.15 0.03 4.31-0.01 3.99-0.02 7.98 0 0.73 0 1.55-0.16 0.09-0.32 0.08-7.28 0-14.65-0.02z"/>
	<path class="s12" d="m56.54 20.13q-0.08-2.16-0.08-4.31 0-2.39 0.02-4.86 3.59 0.8 7.15 1.7 14.4 3.6 28.8 7.21c0.21 0.05 0.42 0.11 0.62 0.26q-18.21 0-36.51 0z"/>
</svg>