<?xml version="1.0" encoding="UTF-8" standalone="no"?>
<svg
   width="232.99452pt"
   height="113.73438pt"
   viewBox="0 0 232.99453 113.73437"
   version="1.1"
   id="svg5"
   xmlns="http://www.w3.org/2000/svg"
   xmlns:svg="http://www.w3.org/2000/svg">
  <defs
     id="defs5" />
  <g
     id="surface1"
     transform="translate(-18.685159,-21.94922)">
    <path
       style="fill:#002147;fill-opacity:1;fill-rule:evenodd;stroke:none"
       d="m 39.175781,110.85938 72.878909,0.97265 3.39844,-58.789061 -37.410161,-31.09375 c 0,0 -30.121094,28.90625 -38.867188,88.910161 z m 0,0"
       id="path2" />
    <path
       style="fill:#dc0030;fill-opacity:1;fill-rule:evenodd;stroke:none"
       d="m 142.89062,66.796875 v 28.480469 c 0,3.226562 -0.10156,5.499996 -0.29296,6.800786 -0.20313,1.3125 -0.77735,2.65234 -1.74219,4.02734 -0.96875,1.38281 -2.22656,2.42578 -3.8086,3.13281 -1.57421,0.71094 -3.4414,1.07031 -5.57031,1.07031 -2.375,0 -4.46875,-0.42187 -6.27343,-1.26562 -1.8125,-0.84375 -3.16797,-1.94141 -4.07032,-3.28906 -0.89843,-1.35547 -1.42968,-2.77735 -1.58593,-4.27735 -0.16797,-1.499997 -0.2461,-4.652341 -0.2461,-9.468747 V 66.796875 h 10.30859 v 31.949219 c 0,1.859376 0.0937,3.054686 0.28516,3.566406 0.18359,0.51953 0.55859,0.78125 1.13672,0.78125 0.65234,0 1.07031,-0.28516 1.26562,-0.85156 0.17969,-0.57422 0.27344,-1.92188 0.27344,-4.042971 V 66.796875 Z m 25.83594,12.894531 h -9.57422 v -3.15625 c 0,-1.472656 -0.125,-2.414062 -0.36718,-2.820312 -0.23829,-0.402344 -0.65235,-0.601563 -1.23047,-0.601563 -0.61719,0 -1.08594,0.269532 -1.40235,0.816407 -0.3164,0.539062 -0.47656,1.367187 -0.47656,2.472656 0,1.417969 0.17578,2.496094 0.53906,3.214844 0.33985,0.71875 1.31641,1.582031 2.91407,2.605468 4.58984,2.929688 7.47656,5.328125 8.67187,7.207032 1.19531,1.878906 1.78906,4.90625 1.78906,9.082031 0,3.039061 -0.33593,5.273441 -0.99609,6.710941 -0.66016,1.4375 -1.9375,2.65234 -3.82813,3.62109 -1.89843,0.97266 -4.09375,1.46484 -6.61718,1.46484 -2.75782,0 -5.11719,-0.5664 -7.0586,-1.6875 -1.96093,-1.125 -3.24218,-2.55468 -3.84375,-4.28515 -0.60156,-1.7461 -0.90234,-4.20703 -0.90234,-7.406252 v -2.785157 h 9.57812 v 5.183594 c 0,1.601565 0.12891,2.625005 0.39844,3.082035 0.27344,0.44922 0.75,0.68359 1.4375,0.68359 0.6836,0 1.19531,-0.28516 1.53125,-0.87109 0.33203,-0.57422 0.5,-1.4375 0.5,-2.578129 0,-2.507812 -0.3164,-4.152343 -0.94922,-4.921875 -0.65625,-0.773437 -2.26953,-2.058593 -4.82812,-3.863281 -2.56641,-1.835937 -4.26563,-3.15625 -5.10156,-3.980469 -0.82422,-0.828125 -1.52344,-1.96875 -2.06641,-3.425781 C 146.29687,82 146.02344,80.140625 146.02344,77.875 c 0,-3.261719 0.38672,-5.652344 1.16406,-7.160156 0.77344,-1.507813 2.02734,-2.6875 3.75391,-3.539063 1.73046,-0.84375 3.82031,-1.277343 6.27343,-1.277343 2.6836,0 4.96485,0.46875 6.84766,1.394531 1.89062,0.933594 3.13672,2.101562 3.75391,3.519531 0.60937,1.410156 0.91015,3.808594 0.91015,7.199219 z m 27.66406,12.054688 c 0,4.285156 -0.0937,7.3125 -0.27734,9.093746 -0.19141,1.78907 -0.77344,3.41407 -1.76172,4.88672 -0.98828,1.47266 -2.32812,2.60547 -4.00781,3.39844 -1.67969,0.78906 -3.64453,1.18359 -5.87891,1.18359 -2.125,0 -4.03125,-0.3789 -5.71875,-1.12109 -1.69922,-0.74609 -3.05078,-1.85937 -4.08203,-3.35156 -1.02734,-1.49219 -1.63672,-3.11719 -1.83984,-4.8711 -0.19141,-1.761715 -0.29297,-4.832027 -0.29297,-9.218746 v -7.285156 c 0,-4.285157 0.0977,-7.3125 0.28516,-9.101563 0.1875,-1.777344 0.77343,-3.40625 1.76953,-4.878906 0.98437,-1.472656 2.3125,-2.605469 4.0039,-3.394531 1.67969,-0.792969 3.63672,-1.1875 5.875,-1.1875 2.125,0 4.03125,0.378906 5.71875,1.125 1.69532,0.746093 3.05469,1.859375 4.08203,3.351562 1.03125,1.488281 1.64063,3.117188 1.83204,4.867188 0.19921,1.761718 0.29296,4.824218 0.29296,9.21875 z M 186.07812,77.75 c 0,-1.984375 -0.0977,-3.253906 -0.30859,-3.808594 -0.19922,-0.550781 -0.61719,-0.828125 -1.25391,-0.828125 -0.54296,0 -0.95312,0.226563 -1.23828,0.675782 -0.29297,0.4375 -0.43359,1.757812 -0.43359,3.960937 v 19.890625 c 0,2.480465 0.10156,4.007815 0.28516,4.582035 0.18359,0.58593 0.625,0.87109 1.3125,0.87109 0.70312,0 1.14843,-0.33203 1.34375,-0.99609 0.19531,-0.67578 0.29296,-2.25391 0.29296,-4.769535 z m 14.16016,-10.953125 h 7.71484 c 4.98438,0 8.34766,0.242188 10.10157,0.738281 1.75781,0.492188 3.09375,1.292969 4.00781,2.414063 0.91797,1.125 1.48828,2.382812 1.72266,3.757812 0.22656,1.375 0.34375,4.078125 0.34375,8.121094 V 96.75 c 0,3.82813 -0.16407,6.37891 -0.51172,7.67578 -0.33594,1.28516 -0.90625,2.29688 -1.7461,3.02735 -0.83593,0.72656 -1.86718,1.23046 -3.08593,1.52734 -1.23047,0.28516 -3.07032,0.42969 -5.53125,0.42969 h -13.01563 z m 10.31641,7.285156 v 28.035159 c 1.48047,0 2.40625,-0.31641 2.74218,-0.95313 0.34375,-0.64843 0.51172,-2.390622 0.51172,-5.230466 V 79.375 c 0,-1.929687 -0.0547,-3.160156 -0.16797,-3.710937 -0.11718,-0.539063 -0.375,-0.941407 -0.78515,-1.195313 -0.41016,-0.25 -1.17969,-0.386719 -2.30078,-0.386719 z m 35.22265,-7.285156 5.90235,42.613285 h -10.5586 l -0.51172,-7.66407 h -3.70312 l -0.60938,7.66407 h -10.67968 l 5.24218,-42.613285 z m -5.46093,27.402344 c -0.52735,-4.824219 -1.04688,-10.789063 -1.57032,-17.878906 -1.04687,8.148437 -1.69922,14.105468 -1.95703,17.878906 z m 0,0"
       id="path3" />
    <path
       style="fill:#ffffff;fill-opacity:1;fill-rule:evenodd;stroke:none"
       d="m 81.328125,49.183594 c 11.472656,0 20.781255,9.308594 20.781255,20.785156 0,10.671875 -8.050786,19.464844 -18.402349,20.644531 v 4.632813 c 0,1.515625 0.113282,2.519531 0.335938,3.003906 0.175781,0.371094 0.546875,0.6875 1.097656,0.953125 0.75,0.355469 1.542969,0.535156 2.382813,0.535156 h 1.285156 v 0.816409 H 73.609375 v -0.816409 h 1.257813 c 1.46875,0 2.527343,-0.363281 3.1875,-1.085937 0.417968,-0.46875 0.632812,-1.609375 0.632812,-3.40625 V 90.582031 C 68.460938,89.285156 60.542969,80.546875 60.542969,69.96875 c 0,-11.476562 9.308594,-20.785156 20.785156,-20.785156 z M 78.6875,84.449219 v -8.585938 c 0,-1.519531 -0.117187,-2.523437 -0.339844,-3.007812 C 78.167969,72.488281 77.8125,72.167969 77.277344,71.90625 76.511719,71.550781 75.710938,71.375 74.867188,71.375 H 73.609375 V 70.554688 H 88.808594 V 71.375 h -1.285156 c -1.441407,0 -2.5,0.363281 -3.160157,1.082031 -0.4375,0.476563 -0.65625,1.609375 -0.65625,3.40625 v 8.628907 c 6.996094,-1.136719 12.335938,-7.207032 12.335938,-14.523438 0,-8.128906 -6.585938,-14.71875 -14.714844,-14.71875 -8.125,0 -14.71875,6.589844 -14.71875,14.71875 0,7.226563 5.210938,13.234375 12.078125,14.480469 z m 0,0"
       id="path4" />
    <path
       style="fill:#9cb0d9;fill-opacity:1;fill-rule:evenodd;stroke:none"
       d="m 29.863281,103.43359 c 0,0 -12.898437,8.36719 -10.984375,16.91016 2.769532,11.94922 15.515625,14.12109 28.066407,14.64062 12.558593,0.52344 45.851562,-5.92578 51.953125,-6.97265 6.105472,-1.04688 35.910152,-4.53125 48.984372,1.57031 13.07813,6.10156 13.07813,6.10156 13.07813,6.10156 0,0 -21.09766,-20.74609 -37.3086,-20.57031 -16.21484,0.17188 -33.472652,2.61328 -56.832027,8.36719 -23.355469,5.7539 -40.441407,4.00781 -42.015625,-2.26563 -1.742188,-2.09375 -1.742188,-10.63671 5.058593,-17.78125 z m 0,0"
       id="path5" />
  </g>
</svg>
