<?xml version="1.0" encoding="UTF-8"?>
<svg xmlns="http://www.w3.org/2000/svg" xmlns:xlink="http://www.w3.org/1999/xlink" width="268.8pt" height="157.8pt" viewBox="0 0 268.8 157.8" version="1.1">
<g id="surface1">
<path style=" stroke:none;fill-rule:evenodd;fill:rgb(0%,55.664063%,20.776367%);fill-opacity:1;" d="M 0.0234375 157.710938 L 268.8125 157.710938 L 268.8125 -0.0234375 L 0.0234375 -0.0234375 Z M 0.0234375 157.710938 "/>
<path style=" stroke:none;fill-rule:evenodd;fill:rgb(0%,13.719177%,28.637695%);fill-opacity:1;" d="M 39.175781 110.859375 L 112.054688 111.832031 L 115.453125 53.042969 L 78.042969 21.949219 C 78.042969 21.949219 47.921875 50.855469 39.175781 110.859375 Z M 39.175781 110.859375 "/>
<path style=" stroke:none;fill-rule:evenodd;fill:rgb(86.71875%,0%,19.993591%);fill-opacity:1;" d="M 142.890625 66.796875 L 142.890625 95.277344 C 142.890625 98.503906 142.789063 100.777344 142.597656 102.078125 C 142.394531 103.390625 141.820313 104.730469 140.855469 106.105469 C 139.886719 107.488281 138.628906 108.53125 137.046875 109.238281 C 135.472656 109.949219 133.605469 110.308594 131.476563 110.308594 C 129.101563 110.308594 127.007813 109.886719 125.203125 109.042969 C 123.390625 108.199219 122.035156 107.101563 121.132813 105.753906 C 120.234375 104.398438 119.703125 102.976563 119.546875 101.476563 C 119.378906 99.976563 119.300781 96.824219 119.300781 92.007813 L 119.300781 66.796875 L 129.609375 66.796875 L 129.609375 98.746094 C 129.609375 100.605469 129.703125 101.800781 129.894531 102.3125 C 130.078125 102.832031 130.453125 103.09375 131.03125 103.09375 C 131.683594 103.09375 132.101563 102.808594 132.296875 102.242188 C 132.476563 101.667969 132.570313 100.320313 132.570313 98.199219 L 132.570313 66.796875 Z M 168.726563 79.691406 L 159.152344 79.691406 L 159.152344 76.535156 C 159.152344 75.0625 159.027344 74.121094 158.785156 73.714844 C 158.546875 73.3125 158.132813 73.113281 157.554688 73.113281 C 156.9375 73.113281 156.46875 73.382813 156.152344 73.929688 C 155.835938 74.46875 155.675781 75.296875 155.675781 76.402344 C 155.675781 77.820313 155.851563 78.898438 156.214844 79.617188 C 156.554688 80.335938 157.53125 81.199219 159.128906 82.222656 C 163.71875 85.152344 166.605469 87.550781 167.800781 89.429688 C 168.996094 91.308594 169.589844 94.335938 169.589844 98.511719 C 169.589844 101.550781 169.253906 103.785156 168.59375 105.222656 C 167.933594 106.660156 166.65625 107.875 164.765625 108.84375 C 162.867188 109.816406 160.671875 110.308594 158.148438 110.308594 C 155.390625 110.308594 153.03125 109.742188 151.089844 108.621094 C 149.128906 107.496094 147.847656 106.066406 147.246094 104.335938 C 146.644531 102.589844 146.34375 100.128906 146.34375 96.929688 L 146.34375 94.144531 L 155.921875 94.144531 L 155.921875 99.328125 C 155.921875 100.929688 156.050781 101.953125 156.320313 102.410156 C 156.59375 102.859375 157.070313 103.09375 157.757813 103.09375 C 158.441406 103.09375 158.953125 102.808594 159.289063 102.222656 C 159.621094 101.648438 159.789063 100.785156 159.789063 99.644531 C 159.789063 97.136719 159.472656 95.492188 158.839844 94.722656 C 158.183594 93.949219 156.570313 92.664063 154.011719 90.859375 C 151.445313 89.023438 149.746094 87.703125 148.910156 86.878906 C 148.085938 86.050781 147.386719 84.910156 146.84375 83.453125 C 146.296875 82 146.023438 80.140625 146.023438 77.875 C 146.023438 74.613281 146.410156 72.222656 147.1875 70.714844 C 147.960938 69.207031 149.214844 68.027344 150.941406 67.175781 C 152.671875 66.332031 154.761719 65.898438 157.214844 65.898438 C 159.898438 65.898438 162.179688 66.367188 164.0625 67.292969 C 165.953125 68.226563 167.199219 69.394531 167.816406 70.8125 C 168.425781 72.222656 168.726563 74.621094 168.726563 78.011719 Z M 196.390625 91.746094 C 196.390625 96.03125 196.296875 99.058594 196.113281 100.839844 C 195.921875 102.628906 195.339844 104.253906 194.351563 105.726563 C 193.363281 107.199219 192.023438 108.332031 190.34375 109.125 C 188.664063 109.914063 186.699219 110.308594 184.464844 110.308594 C 182.339844 110.308594 180.433594 109.929688 178.746094 109.1875 C 177.046875 108.441406 175.695313 107.328125 174.664063 105.835938 C 173.636719 104.34375 173.027344 102.71875 172.824219 100.964844 C 172.632813 99.203125 172.53125 96.132813 172.53125 91.746094 L 172.53125 84.460938 C 172.53125 80.175781 172.628906 77.148438 172.816406 75.359375 C 173.003906 73.582031 173.589844 71.953125 174.585938 70.480469 C 175.570313 69.007813 176.898438 67.875 178.589844 67.085938 C 180.269531 66.292969 182.226563 65.898438 184.464844 65.898438 C 186.589844 65.898438 188.496094 66.277344 190.183594 67.023438 C 191.878906 67.769531 193.238281 68.882813 194.265625 70.375 C 195.296875 71.863281 195.90625 73.492188 196.097656 75.242188 C 196.296875 77.003906 196.390625 80.066406 196.390625 84.460938 Z M 186.078125 77.75 C 186.078125 75.765625 185.980469 74.496094 185.769531 73.941406 C 185.570313 73.390625 185.152344 73.113281 184.515625 73.113281 C 183.972656 73.113281 183.5625 73.339844 183.277344 73.789063 C 182.984375 74.226563 182.84375 75.546875 182.84375 77.75 L 182.84375 97.640625 C 182.84375 100.121094 182.945313 101.648438 183.128906 102.222656 C 183.3125 102.808594 183.753906 103.09375 184.441406 103.09375 C 185.144531 103.09375 185.589844 102.761719 185.785156 102.097656 C 185.980469 101.421875 186.078125 99.84375 186.078125 97.328125 Z M 200.238281 66.796875 L 207.953125 66.796875 C 212.9375 66.796875 216.300781 67.039063 218.054688 67.535156 C 219.8125 68.027344 221.148438 68.828125 222.0625 69.949219 C 222.980469 71.074219 223.550781 72.332031 223.785156 73.707031 C 224.011719 75.082031 224.128906 77.785156 224.128906 81.828125 L 224.128906 96.75 C 224.128906 100.578125 223.964844 103.128906 223.617188 104.425781 C 223.28125 105.710938 222.710938 106.722656 221.871094 107.453125 C 221.035156 108.179688 220.003906 108.683594 218.785156 108.980469 C 217.554688 109.265625 215.714844 109.410156 213.253906 109.410156 L 200.238281 109.410156 Z M 210.554688 74.082031 L 210.554688 102.117188 C 212.035156 102.117188 212.960938 101.800781 213.296875 101.164063 C 213.640625 100.515625 213.808594 98.773438 213.808594 95.933594 L 213.808594 79.375 C 213.808594 77.445313 213.753906 76.214844 213.640625 75.664063 C 213.523438 75.125 213.265625 74.722656 212.855469 74.46875 C 212.445313 74.21875 211.675781 74.082031 210.554688 74.082031 Z M 245.777344 66.796875 L 251.679688 109.410156 L 241.121094 109.410156 L 240.609375 101.746094 L 236.90625 101.746094 L 236.296875 109.410156 L 225.617188 109.410156 L 230.859375 66.796875 Z M 240.316406 94.199219 C 239.789063 89.375 239.269531 83.410156 238.746094 76.320313 C 237.699219 84.46875 237.046875 90.425781 236.789063 94.199219 Z M 240.316406 94.199219 "/>
<path style=" stroke:none;fill-rule:evenodd;fill:rgb(0%,55.664063%,20.776367%);fill-opacity:1;" d="M 81.328125 49.183594 C 92.800781 49.183594 102.109375 58.492188 102.109375 69.96875 C 102.109375 80.640625 94.058594 89.433594 83.707031 90.613281 L 83.707031 95.246094 C 83.707031 96.761719 83.820313 97.765625 84.042969 98.25 C 84.21875 98.621094 84.589844 98.9375 85.140625 99.203125 C 85.890625 99.558594 86.683594 99.738281 87.523438 99.738281 L 88.808594 99.738281 L 88.808594 100.554688 L 73.609375 100.554688 L 73.609375 99.738281 L 74.867188 99.738281 C 76.335938 99.738281 77.394531 99.375 78.054688 98.652344 C 78.472656 98.183594 78.6875 97.042969 78.6875 95.246094 L 78.6875 90.582031 C 68.460938 89.285156 60.542969 80.546875 60.542969 69.96875 C 60.542969 58.492188 69.851563 49.183594 81.328125 49.183594 Z M 78.6875 84.449219 L 78.6875 75.863281 C 78.6875 74.34375 78.570313 73.339844 78.347656 72.855469 C 78.167969 72.488281 77.8125 72.167969 77.277344 71.90625 C 76.511719 71.550781 75.710938 71.375 74.867188 71.375 L 73.609375 71.375 L 73.609375 70.554688 L 88.808594 70.554688 L 88.808594 71.375 L 87.523438 71.375 C 86.082031 71.375 85.023438 71.738281 84.363281 72.457031 C 83.925781 72.933594 83.707031 74.066406 83.707031 75.863281 L 83.707031 84.492188 C 90.703125 83.355469 96.042969 77.285156 96.042969 69.96875 C 96.042969 61.839844 89.457031 55.25 81.328125 55.25 C 73.203125 55.25 66.609375 61.839844 66.609375 69.96875 C 66.609375 77.195313 71.820313 83.203125 78.6875 84.449219 Z M 78.6875 84.449219 "/>
<path style=" stroke:none;fill-rule:evenodd;fill:rgb(61.521912%,69.726563%,85.15625%);fill-opacity:1;" d="M 29.863281 103.433594 C 29.863281 103.433594 16.964844 111.800781 18.878906 120.34375 C 21.648438 132.292969 34.394531 134.464844 46.945313 134.984375 C 59.503906 135.507813 92.796875 129.058594 98.898438 128.011719 C 105.003906 126.964844 134.808594 123.480469 147.882813 129.582031 C 160.960938 135.683594 160.960938 135.683594 160.960938 135.683594 C 160.960938 135.683594 139.863281 114.9375 123.652344 115.113281 C 107.4375 115.285156 90.179688 117.726563 66.820313 123.480469 C 43.464844 129.234375 26.378906 127.488281 24.804688 121.214844 C 23.0625 119.121094 23.0625 110.578125 29.863281 103.433594 Z M 29.863281 103.433594 "/>
</g>
</svg>
